<?xml version="1.0" ?><!DOCTYPE svg  PUBLIC '-//W3C//DTD SVG 1.1//EN'  'http://www.w3.org/Graphics/SVG/1.1/DTD/svg11.dtd'><svg id="Lager_1" style="enable-background:new 0 0 100 100;" version="1.1" viewBox="0 0 100 100" xml:space="preserve" xmlns="http://www.w3.org/2000/svg" xmlns:xlink="http://www.w3.org/1999/xlink"><g><path d="M50,82c-17.6,0-32-13.9-32-31c0-4.4,0.9-8.6,2.8-12.6l0.2-0.3l-4.3-16c-0.3-1-0.1-2,0.5-2.8   c0.6-0.8,1.6-1.3,2.5-1.3c0.3,0,0.6,0,0.9,0.1l16.7,4.5l0.3-0.1c4-1.6,8.2-2.4,12.5-2.4s8.5,0.8,12.5,2.4l0.3,0.1l16.7-4.5   C79.7,18,80,18,80.3,18c1,0,1.9,0.5,2.5,1.3c0.6,0.8,0.8,1.8,0.5,2.8l-4.3,16l0.2,0.3c1.8,4,2.8,8.2,2.8,12.6   C82,68.1,67.6,82,50,82z M49.7,51.5c-3.9,0-7,3.1-7,6.9s3.1,6.9,7,6.9c3.9,0,7-3.1,7-6.9S53.6,51.5,49.7,51.5z M59.3,39   c-3.9,0-7,3.1-7,6.9s3.1,6.9,7,6.9s7-3.1,7-6.9S63.1,39,59.3,39z M40.7,39c-3.9,0-7,3.1-7,6.9s3.1,6.9,7,6.9s7-3.1,7-6.9   S44.6,39,40.7,39z" style="fill:#91B3E5;"/><path d="M80.3,19c0.7,0,1.3,0.3,1.7,0.9c0.2,0.3,0.6,1,0.4,1.9l-4.2,15.7L78,38.2l0.3,0.7   C80.1,42.7,81,46.8,81,51c0,16.5-13.9,30-31,30S19,67.5,19,51c0-4.2,0.9-8.3,2.7-12.2l0.3-0.7l-0.2-0.7l-4.2-15.7   c-0.2-0.9,0.1-1.6,0.4-1.9c0.4-0.6,1.1-0.9,1.7-0.9c0.2,0,0.4,0,0.6,0.1l16.3,4.4l0.7,0.2l0.6-0.3C41.7,21.8,45.8,21,50,21   s8.3,0.8,12.1,2.4l0.6,0.3l0.7-0.2l16.3-4.4C79.9,19,80.1,19,80.3,19L80.3,19 M53.9,51.7c-1.2-0.7-2.6-1.1-4.1-1.1   c-1.1,0-2.1,0.2-3.1,0.6c1.3-1.4,2.1-3.2,2.1-5.3c0-4.3-3.6-7.9-8-7.9s-8,3.5-8,7.9c0,4.3,3.6,7.9,8,7.9c1.1,0,2.1-0.2,3.1-0.6   c-1.3,1.4-2.1,3.2-2.1,5.3c0,4.3,3.6,7.9,8,7.9s8-3.5,8-7.9c0-2.3-1-4.4-2.6-5.8c1.2,0.7,2.6,1.1,4.1,1.1c4.4,0,8-3.5,8-7.9   c0-4.3-3.6-7.9-8-7.9s-8,3.5-8,7.9C51.3,48.2,52.3,50.2,53.9,51.7 M80.3,17c-0.4,0-0.7,0-1.1,0.1l-16.3,4.4   c-4-1.6-8.3-2.5-12.9-2.5s-8.9,0.9-12.9,2.5l-16.3-4.4C20.4,17,20,17,19.7,17c-2.7,0-4.8,2.6-4.1,5.3L19.8,38C18,42,17,46.4,17,51   c0,17.7,14.8,32,33,32s33-14.3,33-32c0-4.6-1-9-2.8-13l4.2-15.7C85.1,19.6,83,17,80.3,17L80.3,17z M59.3,51.7c-3.3,0-6-2.6-6-5.9   c0-3.2,2.7-5.9,6-5.9c3.3,0,6,2.6,6,5.9C65.3,49.1,62.6,51.7,59.3,51.7L59.3,51.7z M40.7,51.7c-3.3,0-6-2.6-6-5.9   c0-3.2,2.7-5.9,6-5.9c3.3,0,6,2.6,6,5.9C46.7,49.1,44,51.7,40.7,51.7L40.7,51.7z M49.7,64.3c-3.3,0-6-2.6-6-5.9   c0-3.2,2.7-5.9,6-5.9c3.3,0,6,2.6,6,5.9C55.7,61.7,53,64.3,49.7,64.3L49.7,64.3z" style="fill:#63789E;"/></g></svg>