<?xml version="1.0" ?><!DOCTYPE svg  PUBLIC '-//W3C//DTD SVG 1.1//EN'  'http://www.w3.org/Graphics/SVG/1.1/DTD/svg11.dtd'><svg id="Lager_1" style="enable-background:new 0 0 100 100;" version="1.1" viewBox="0 0 100 100" xml:space="preserve" xmlns="http://www.w3.org/2000/svg" xmlns:xlink="http://www.w3.org/1999/xlink"><g><path d="M50,81c-10,0-19.3-4.4-25.4-12.2l-0.2-0.3L11.2,66c-1.1-0.2-2-1-2.4-2.1c-0.4-1.1-0.1-2.3,0.6-3.2   l8.6-9.8l0-0.8c0-17.1,14.4-31,32-31c17.6,0,32,13.9,32,31l0,0.8l8.6,9.8c0.8,0.9,1,2.1,0.6,3.2c-0.4,1.1-1.3,1.9-2.4,2.1   l-13.1,2.6l-0.2,0.3C69.3,76.6,60,81,50,81z M62.3,41.2c-3.4,0-6,3.9-6,8.8c0,4.9,2.6,8.8,6,8.8s6-3.9,6-8.8   C68.3,45.1,65.6,41.2,62.3,41.2z M37.8,41.2c-3.4,0-6,3.9-6,8.8c0,4.9,2.6,8.8,6,8.8s6-3.9,6-8.8C43.8,45.1,41.1,41.2,37.8,41.2z" style="fill:#E5E5E5;"/><path d="M50,20c17.1,0,31,13.5,31,30c0,0.1,0,0.1,0,0.2c0,0.1,0,0.2,0,0.2l0,0.8l0.5,0.6l8.3,9.6   c0.8,0.9,0.6,1.8,0.4,2.2s-0.5,1.2-1.7,1.5l-12.8,2.5l-0.7,0.1l-0.5,0.6C68.7,75.7,59.7,80,50,80s-18.7-4.3-24.6-11.8l-0.5-0.6   l-0.7-0.1L11.4,65c-1.1-0.2-1.5-1.1-1.7-1.5c-0.1-0.4-0.3-1.3,0.4-2.2l8.3-9.6l0.5-0.6l0-0.8c0-0.1,0-0.2,0-0.2c0-0.1,0-0.1,0-0.2   C19,33.5,32.9,20,50,20 M62.3,59.8c3.9,0,7-4.3,7-9.8s-3.1-9.8-7-9.8s-7,4.3-7,9.8S58.3,59.8,62.3,59.8 M37.8,59.8   c3.9,0,7-4.3,7-9.8s-3.1-9.8-7-9.8s-7,4.3-7,9.8S33.8,59.8,37.8,59.8 M50,18c-18.2,0-33,14.3-33,32c0,0.2,0,0.3,0,0.5L8.7,60   c-2.1,2.4-0.8,6.3,2.4,6.9l12.8,2.5C29.8,77.1,39.3,82,50,82s20.2-4.9,26.2-12.5L89,66.9c3.2-0.6,4.5-4.5,2.4-6.9L83,50.5   c0-0.2,0-0.3,0-0.5C83,32.3,68.2,18,50,18L50,18z M62.3,57.8c-2.8,0-5-3.5-5-7.8c0-4.3,2.2-7.8,5-7.8s5,3.5,5,7.8   C67.3,54.3,65,57.8,62.3,57.8L62.3,57.8z M37.8,57.8c-2.8,0-5-3.5-5-7.8c0-4.3,2.2-7.8,5-7.8s5,3.5,5,7.8   C42.8,54.3,40.5,57.8,37.8,57.8L37.8,57.8z" style="fill:#999999;"/></g></svg>