<svg id="Layer_1" data-name="Layer 1" xmlns="http://www.w3.org/2000/svg" viewBox="0 0 100 100"><defs><style>.cls-1{fill:#ffc640;}.cls-2{fill:#3e3e3f;}.cls-3{fill:#faad3f;}.cls-4{fill:#f37d3b;}.cls-5{fill:#bc6842;}</style></defs><title>fire</title><path class="cls-1" d="M75.8,14.82S82,32.2,35.48,43.74L59.76,59l1.65,1C90,44.65,75.8,14.82,75.8,14.82Z"/><circle class="cls-2" cx="21.23" cy="39.22" r="5.26" transform="translate(-13.82 11.64) rotate(-23.38)"/><path class="cls-3" d="M13.93,55.27c2,4.58,14.3,3.66,27.52-2S62.31,35,62,35C26.55,33.58,28,22.11,28,22.11S12,50.69,13.93,55.27Z"/><path class="cls-4" d="M24.62,18.24a3.83,3.83,0,1,1-7.65,0c0-2.11,3.83-7.74,3.83-7.74S24.62,16.13,24.62,18.24Z"/><path class="cls-4" d="M17,47.84a2.16,2.16,0,0,1-4.32,0c0-1.19,2.16-4.37,2.16-4.37S17,46.65,17,47.84Z"/><path class="cls-3" d="M88.76,42.45a6,6,0,1,1-12.06,0c0-3.33,6-12.2,6-12.2S88.76,39.12,88.76,42.45Z"/><circle class="cls-2" cx="29.88" cy="36.92" r="5.26"/><circle class="cls-2" cx="19.6" cy="41.63" r="2.87"/><circle class="cls-2" cx="34.37" cy="31.27" r="3.5"/><circle class="cls-2" cx="42.79" cy="25.06" r="6.6"/><circle class="cls-2" cx="45.83" cy="18.88" r="1.95"/><circle class="cls-2" cx="40.87" cy="14.24" r="3"/><circle class="cls-2" cx="68.16" cy="23.47" r="3"/><circle class="cls-2" cx="30.1" cy="9" r="0.95"/><circle class="cls-2" cx="73.47" cy="16.29" r="0.95"/><circle class="cls-2" cx="67.21" cy="20.13" r="0.95"/><circle class="cls-2" cx="29.77" cy="24.85" r="1.91" transform="translate(-3.74 5.33) rotate(-9.63)"/><circle class="cls-2" cx="36.19" cy="17.76" r="1.33" transform="translate(-2.46 6.31) rotate(-9.63)"/><path class="cls-3" d="M65.72,13.19a2.75,2.75,0,0,1-5.49,0c0-1.52,2.75-5.55,2.75-5.55S65.72,11.67,65.72,13.19Z"/><path class="cls-1" d="M62.54,41.21S77,52.65,43.76,87.15H74.38C90.38,59,62.54,41.21,62.54,41.21Z"/><path class="cls-4" d="M86.93,62.16a37.84,37.84,0,0,1-75.69,0c0-17,12.41-17.24,22.71-29.42C46.18,18.28,43.58,0,43.58,0S86.93,41.26,86.93,62.16Z"/><path class="cls-1" d="M44.62,73.5l.09-.07c.08-.07.13-.08.16,0s.08.08.18,0l.41-.21a17,17,0,0,0,2.68-1.93,31.64,31.64,0,0,0,3.61-3.62c.59-.74,1.27-1.52,1.83-2.37a25.74,25.74,0,0,0,1.71-2.67,29.27,29.27,0,0,0,1.5-2.89,30.94,30.94,0,0,0,1.21-3,28.57,28.57,0,0,0,.89-3A21.4,21.4,0,0,0,59.48,51c.13-.88.32-1.72.36-2.45L60,46.59l.1-1.72,1,1.39,1.17,1.65c.47.64.86,1.42,1.37,2.27A25.46,25.46,0,0,1,65.11,53a35.75,35.75,0,0,1,1.43,3.37c.4,1.2.93,2.48,1.23,3.8a41,41,0,0,1,.92,4.11,38.67,38.67,0,0,1,.57,4.27c.17,1.44.17,2.84.22,4.24A52.88,52.88,0,0,1,69,80.51,42.23,42.23,0,0,1,67.8,86.2l-.29,1c-.11.31-.26.66-.36.91a2.76,2.76,0,0,0-.18.49l0,.11A14.35,14.35,0,1,1,44.51,73.58Z"/><path class="cls-5" d="M53.39,87.11l.22-.21c.12-.11.29-.26.54-.54.5-.51,1.2-1.29,2-2.26s1.74-2.15,2.66-3.47a42,42,0,0,0,2.66-4.28c.42-.75.76-1.53,1.14-2.3s.64-1.55.92-2.32.49-1.52.66-2.25.29-1.43.39-2.09l.13-1.81a9.5,9.5,0,0,0,0-1.41l-.09-1.26.54,1.14a10.3,10.3,0,0,1,.59,1.36l.58,1.86c.16.7.29,1.46.44,2.29s.16,1.7.24,2.62,0,1.86,0,2.83-.11,1.95-.24,2.92a48.46,48.46,0,0,1-1,5.68c-.42,1.8-.92,3.45-1.38,4.87s-.91,2.58-1.25,3.42c-.16.4-.33.77-.44,1l-.14.33,0,.08a5.61,5.61,0,1,1-10.28-4.5A5.7,5.7,0,0,1,53.39,87.11Z"/><path class="cls-1" d="M49.08,76.3a7,7,0,0,1-14,0c0-3.87,7-14.16,7-14.16S49.08,72.43,49.08,76.3Z"/><path class="cls-1" d="M29.94,63.4a3.5,3.5,0,1,1-7,0c0-1.93,3.5-7.08,3.5-7.08S29.94,61.47,29.94,63.4Z"/></svg>