<svg id="Layer_1" data-name="Layer 1" xmlns="http://www.w3.org/2000/svg" viewBox="0 0 100 100"><defs><style>.cls-1{fill:#3e3e3f;}.cls-2{fill:#f37d3b;}.cls-3{fill:#ffc640;}</style></defs><title>lava</title><ellipse class="cls-1" cx="44.7" cy="43.33" rx="31.75" ry="8.85"/><path class="cls-2" d="M58.84,39.76c0,6.32-9,8.25-20.16,8.25s-20.16-1.93-20.16-8.25,9-16.86,20.16-16.86S58.84,33.44,58.84,39.76Z"/><path class="cls-1" d="M62.48,54.05l-4-4.56,1.86-1.64,2,2.31,1.59-2c2.19-8.56,14.67-8.34,15.18-8.33l-.06,2.48c-.11,0-11.22-.19-12.76,6.67l-.06.27Z"/><ellipse class="cls-1" cx="31.75" cy="60.21" rx="31.75" ry="8.85"/><ellipse class="cls-1" cx="66.31" cy="53.51" rx="23.08" ry="6.44"/><ellipse class="cls-1" cx="68.57" cy="70.66" rx="23.08" ry="6.44"/><ellipse class="cls-1" cx="39.79" cy="51.36" rx="15.09" ry="4.21"/><ellipse class="cls-1" cx="72.85" cy="32.42" rx="10.24" ry="1.43"/><ellipse class="cls-1" cx="80.81" cy="45.43" rx="19.19" ry="5.35"/><path class="cls-1" d="M38.32,44.35h.45l1.45-.06c1.27-.07,3.11-.21,5.28-.47a60.68,60.68,0,0,0,7.17-1.26,27.56,27.56,0,0,0,3.49-1.09,8.11,8.11,0,0,0,3.09-1.94A15.06,15.06,0,0,1,62,37.67,15.78,15.78,0,0,1,65,36.53,16.32,16.32,0,0,1,70.55,36a24.23,24.23,0,0,1,4.72.8,38,38,0,0,1,3.84,1.32,54.94,54.94,0,0,1,5.32,2.54l1.92,1.07-2.17-.34a53.26,53.26,0,0,0-5.67-.53,34.4,34.4,0,0,0-3.68.08,19.06,19.06,0,0,0-3.78.71,9.66,9.66,0,0,0-3.22,1.58,7.89,7.89,0,0,0-1.17,1.13,5.46,5.46,0,0,0-.8,1.21l-.54.92-.08.13,0,.06.11-.13,0,0,0,0L65,47c-.18.26-.36.51-.54.73a19.88,19.88,0,0,1-2.24,2.37,35.77,35.77,0,0,1-4.42,3.38,72,72,0,0,1-7.92,4.43c-2.34,1.14-4.31,2-5.72,2.57l-1.67.66-.65.24Z"/><path class="cls-3" d="M39.2,47.24,50,44.7,53.46,42l7.69-.79,3.69-.52,5.11-.6L77,40l1.3,3.64v4.24s-17.19,2.74-23.44,8.63"/><path class="cls-2" d="M41.33,51.91a20.09,20.09,0,0,1,1.92-1c1.22-.6,3-1.38,5.07-2.17,1.05-.38,2.18-.82,3.4-1.18s2.57-.57,3.94-.91a9.34,9.34,0,0,0,3.85-1.82c.26-.24.56-.45.8-.72l.65-.84c.45-.66.82-1.29,1.39-2a10.59,10.59,0,0,1,4-3.21,15.44,15.44,0,0,1,4.8-1.3,16,16,0,0,1,4.49.11,27.16,27.16,0,0,1,3.8,1,28.4,28.4,0,0,1,3,1.27,21.24,21.24,0,0,1,2.19,1.21,19.63,19.63,0,0,1,1.8,1.26l-.14.37a21.34,21.34,0,0,1-2.17-.12c-.67-.08-1.5-.11-2.41-.23l-3-.31c-1.1-.11-2.28-.2-3.5-.28s-2.48-.13-3.76-.14a15,15,0,0,0-7.57,2c-.28.2-.57.35-.87.6l-.86.75a19.18,19.18,0,0,1-1.84,1.56L56.58,48.5a18.44,18.44,0,0,1-3.67,2.29,19,19,0,0,1-3.64,1.14,23.24,23.24,0,0,1-3.18.49,19,19,0,0,1-2.49.09,11.91,11.91,0,0,1-2.2-.21Z"/><path class="cls-2" d="M42,56.52a19.8,19.8,0,0,1,1.82-1C45,55,46.67,54.2,48.66,53.45c1-.37,2.07-.79,3.22-1.15s2.41-.61,3.73-.89A11.57,11.57,0,0,0,59.44,50a7.05,7.05,0,0,0,2.72-3c.63-1.27,1.11-2.69,1.89-4a13.15,13.15,0,0,1,3.13-3.61,9.17,9.17,0,0,1,4.36-1.89,11.56,11.56,0,0,1,4,.13,14.75,14.75,0,0,1,3.08,1,15.34,15.34,0,0,1,2.16,1.12,11.62,11.62,0,0,1,1.72,1.24l-.14.37s-.78,0-2.07,0-3.08-.16-5.05-.06a16.13,16.13,0,0,0-3,.41,10.92,10.92,0,0,0-2.84,1.08,12.6,12.6,0,0,0-2.78,2.3L63.59,48a24.4,24.4,0,0,1-3.47,3l-3.5,2.64a15.88,15.88,0,0,1-3.56,2,22.51,22.51,0,0,1-3.48,1,23.65,23.65,0,0,1-5.39.5,11.8,11.8,0,0,1-2.1-.21Z"/><path class="cls-2" d="M94.14,43.45c0,2.16-4.77,2.82-10.64,2.82s-10.64-.66-10.64-2.82,4.77-5.76,10.64-5.76S94.14,41.29,94.14,43.45Z"/><path class="cls-2" d="M87,69.22c0,3.6-7.94,4.7-17.73,4.7s-17.73-1.1-17.73-4.7,7.94-9.6,17.73-9.6S87,65.63,87,69.22Z"/><ellipse class="cls-1" cx="80.76" cy="50.39" rx="18.49" ry="4.52"/><path class="cls-3" d="M96.72,50c0,2-8.28,2.59-18.5,2.59S63.86,52,63.86,50,68,44.7,78.22,44.7,96.72,48,96.72,50Z"/><path class="cls-3" d="M80.25,31.51c0,.77-3.22,1-7.19,1s-7.19-.24-7.19-1,3.22-2.06,7.19-2.06S80.25,30.74,80.25,31.51Z"/><circle class="cls-3" cx="29.69" cy="31.49" r="1.31"/><circle class="cls-3" cx="24.86" cy="36.09" r="2.25"/><circle class="cls-3" cx="32.24" cy="39.96" r="1.24"/><path class="cls-2" d="M36.22,44.93s12.29,3.35,17,1c0,0,8.63-3.72,11.65-3.5,0,0,7.62-2.39-7.54-4.08"/><polyline class="cls-2" points="79.23 39.85 80.95 40.68 81.2 40.2"/><circle class="cls-2" cx="65.09" cy="49.64" r="0.37"/><circle class="cls-2" cx="66.88" cy="48.11" r="0.27"/><circle class="cls-2" cx="68.67" cy="50.59" r="0.58"/><circle class="cls-2" cx="75.72" cy="46.07" r="0.49"/><circle class="cls-3" cx="56.55" cy="65.75" r="0.5"/><circle class="cls-3" cx="78.56" cy="63.53" r="0.7"/><circle class="cls-3" cx="79.8" cy="71.12" r="1.24"/><path class="cls-2" d="M59.07,51.25l.38-.22a6.42,6.42,0,0,1,1-.38A4.32,4.32,0,0,1,63,50.57a1.8,1.8,0,0,1,1.1.8,4.48,4.48,0,0,1,.17,2c0,.78,0,1.43.46,1.75a2.94,2.94,0,0,0,1.81.58,4.7,4.7,0,0,1,2.13.56,8,8,0,0,1,1.53,1.22,3.12,3.12,0,0,1,.89,1.68,5.11,5.11,0,0,1,0,1.92,5.24,5.24,0,0,1-.66,1.7,3.43,3.43,0,0,1-1,1.14,5.87,5.87,0,0,1-.88.55l-.37.14-.78-.17-.34-.23a6.57,6.57,0,0,0-.79-.49l-.48-.24-.54-.23-1-.37a3.32,3.32,0,0,1-.82-.43,1.09,1.09,0,0,1-.37-.8A11.88,11.88,0,0,0,63,60.38a9.21,9.21,0,0,1,.25-1.87A2.08,2.08,0,0,0,63,56.8c-.27-.41-.92-.46-1.64-.36a5.22,5.22,0,0,1-1.88.14c-.43-.12-.6-.5-.79-.83a5,5,0,0,1-.31-2.41,9.52,9.52,0,0,1,.13-1l.08-.43Z"/><path class="cls-3" d="M56.05,56.42c0,4.91-10.83,6.41-24.2,6.41s-24.2-1.5-24.2-6.41,10.83-13.1,24.2-13.1S56.05,51.51,56.05,56.42Z"/><path class="cls-2" d="M31.72,62.09c0,1.64-3.61,2.14-8.07,2.14s-8.07-.5-8.07-2.14,3.61-4.37,8.07-4.37S31.72,60.45,31.72,62.09Z"/><path class="cls-1" d="M51.19,62.71c0,1.16-2.55,1.51-5.7,1.51s-5.7-.35-5.7-1.51,2.55-3.09,5.7-3.09S51.19,61.55,51.19,62.71Z"/></svg>