<svg id="Layer_1" data-name="Layer 1" xmlns="http://www.w3.org/2000/svg" xmlns:xlink="http://www.w3.org/1999/xlink" viewBox="0 0 100 100"><defs><style>.cls-1{fill:none;}.cls-2{clip-path:url(#clip-path);}.cls-3{fill:#58595b;}.cls-4{fill:#e0e0e0;}.cls-5{fill:#f05c38;}.cls-6{fill:#f37d60;}.cls-7{fill:#ffe5b1;}.cls-8{fill:#ffc640;}.cls-9{fill:#aed2c4;}.cls-10{fill:#fff;}</style><clipPath id="clip-path"><path class="cls-1" d="M-34.29,0h-71.43A14.33,14.33,0,0,0-120,14.29V85.71A14.33,14.33,0,0,0-105.71,100h71.43A14.33,14.33,0,0,0-20,85.71V14.29A14.33,14.33,0,0,0-34.29,0Z"/></clipPath></defs><title>primordial soup</title><g class="cls-2"><path class="cls-3" d="M-323,135.57C-139,41.52,18-20.36,34.09-5.63L153.26-66.55c-67.42,1.13-262.41,76.19-483,189-51.17,26.15-99.73,52.35-144.88,77.88H-444C-406.79,179.43-366.13,157.6-323,135.57Z"/><path class="cls-3" d="M177.7-59.09c-2.8-5.48-11.54-7.68-24.44-7.46L34.09-5.63c.38.35,1.08.52,1.31,1,9.5,18.59-132,109.91-317,205h101.72C38.5,81.93,193.16-28.85,177.7-59.09Z"/></g><circle class="cls-4" cx="50" cy="50" r="50"/><circle class="cls-5" cx="50" cy="50" r="37.86"/><circle class="cls-6" cx="50" cy="50" r="34.33"/><path class="cls-7" d="M39,59.67h-.18l-10.26-.77a2.42,2.42,0,0,1-2-1.36l-4.46-9.27a2.42,2.42,0,0,1,.18-2.41l5.8-8.5a2.4,2.4,0,0,1,2.18-1l10.26.77a2.42,2.42,0,0,1,2,1.36l4.46,9.27a2.42,2.42,0,0,1-.18,2.41L41,58.62A2.42,2.42,0,0,1,39,59.67ZM30.05,37.82a.9.9,0,0,0-.74.39l-5.8,8.5a.9.9,0,0,0-.07.9l4.46,9.27a.9.9,0,0,0,.74.51l10.26.77a.9.9,0,0,0,.81-.39l5.8-8.5a.9.9,0,0,0,.07-.9L41.12,39.1a.9.9,0,0,0-.74-.51h0l-10.26-.77Z"/><path class="cls-7" d="M37.91,71.93h-.18l-5.18-.39a2.42,2.42,0,0,1-2-1.36L28.3,65.5a2.42,2.42,0,0,1,.18-2.41l2.93-4.29a2.4,2.4,0,0,1,2.18-1l5.18.39a2.42,2.42,0,0,1,2,1.36L43,64.18a2.42,2.42,0,0,1-.18,2.41L39.9,70.88A2.42,2.42,0,0,1,37.91,71.93Zm-4.5-12.67a.9.9,0,0,0-.74.39l-2.93,4.29a.9.9,0,0,0-.07.9l2.25,4.68a.9.9,0,0,0,.74.51l5.18.39a.9.9,0,0,0,.81-.39l2.93-4.29a.9.9,0,0,0,.07-.9l-2.25-4.68a.9.9,0,0,0-.74-.51h0l-5.18-.39Z"/><path class="cls-7" d="M48.88,78.94a.76.76,0,0,1-.62-1.18l3.47-5.08a.9.9,0,0,0,.07-.9L49.54,67.1a.9.9,0,0,0-.74-.51l-6.13-.46a.76.76,0,1,1,.11-1.51l6.13.46a2.42,2.42,0,0,1,2,1.36l2.25,4.68A2.42,2.42,0,0,1,53,73.53l-3.47,5.08A.75.75,0,0,1,48.88,78.94Z"/><path class="cls-7" d="M62.85,80.52a.76.76,0,0,1-.68-.43L59.5,74.55a.9.9,0,0,0-.74-.51l-6.13-.46a.76.76,0,0,1-.7-.81.75.75,0,0,1,.81-.7l6.13.46a2.42,2.42,0,0,1,2,1.36l2.67,5.54a.76.76,0,0,1-.68,1.09Z"/><path class="cls-7" d="M59.76,74.12A.76.76,0,0,1,59.12,73l4-6.4a.76.76,0,1,1,1.28.81l-4,6.4A.76.76,0,0,1,59.76,74.12Z"/><path class="cls-7" d="M56.49,73.87a.76.76,0,0,1-.64-1.16l4-6.4a.76.76,0,1,1,1.28.81l-4,6.4A.76.76,0,0,1,56.49,73.87Z"/><path class="cls-8" d="M73.27,66.19a.76.76,0,0,1-.55-.24l-4.2-4.49A2.42,2.42,0,0,1,68,59.11l1.51-5a2.42,2.42,0,0,1,1.76-1.65l6-1.4a.76.76,0,0,1,.34,1.48l-6,1.39a.9.9,0,0,0-.66.61l-1.51,5a.9.9,0,0,0,.2.88l4.2,4.49a.76.76,0,0,1-.55,1.27Z"/><path class="cls-8" d="M70.55,54.4a.76.76,0,0,1-.55-.24l-4.2-4.49a2.42,2.42,0,0,1-.55-2.35L67,41.43a.76.76,0,1,1,1.45.44L66.7,47.76a.9.9,0,0,0,.2.87l4.2,4.49a.76.76,0,0,1-.55,1.27Z"/><path class="cls-8" d="M58.39,51.18a.76.76,0,0,1-.2-1.49l7.31-2a.76.76,0,0,1,.4,1.46l-7.31,2Z"/><path class="cls-8" d="M60.63,53.58a.76.76,0,0,1-.2-1.49l7.31-2a.76.76,0,1,1,.4,1.46l-7.31,2Z"/><path class="cls-9" d="M58.66,33.95A10.35,10.35,0,0,1,55,33.29c-4.45-1.68-7.43-6.35-8.39-13.17A.56.56,0,1,1,47.7,20c.91,6.4,3.64,10.76,7.68,12.28s9,0,13.88-4.15a.56.56,0,1,1,.73.85C66.14,32.24,62.23,33.95,58.66,33.95Z"/><path class="cls-9" d="M67,36a.56.56,0,0,1-.55-.48c-.91-6.4-3.64-10.76-7.68-12.28s-9,0-13.88,4.15a.56.56,0,1,1-.73-.85c5.23-4.48,10.56-6,15-4.35s7.43,6.35,8.39,13.17a.56.56,0,0,1-.48.63Z"/><path class="cls-9" d="M52.56,31.82a.54.54,0,0,1-.2,0,.56.56,0,0,1-.33-.72L55.46,22a.56.56,0,0,1,1,.4l-3.43,9.09A.56.56,0,0,1,52.56,31.82Z"/><path class="cls-9" d="M55.8,33.56a.54.54,0,0,1-.2,0,.56.56,0,0,1-.33-.72l3.76-10a.56.56,0,0,1,1,.4l-3.76,10A.56.56,0,0,1,55.8,33.56Z"/><path class="cls-9" d="M59.57,33.9a.54.54,0,0,1-.2,0,.56.56,0,0,1-.33-.72l3-7.92a.56.56,0,0,1,1,.4l-3,7.92A.56.56,0,0,1,59.57,33.9Z"/><ellipse class="cls-10" cx="21.84" cy="16.24" rx="8.62" ry="2.43" transform="translate(-5.37 16.69) rotate(-37.58)"/></svg>