<svg id="Layer_1" data-name="Layer 1" xmlns="http://www.w3.org/2000/svg" viewBox="0 0 100 100"><defs><style>.cls-1{fill:#895e59;}.cls-2{fill:#4a4a4c;}.cls-3{fill:#58595b;}.cls-4{fill:#fff;}</style></defs><title>mountain</title><ellipse class="cls-1" cx="50" cy="87.23" rx="49.31" ry="12.77"/><path class="cls-2" d="M74.58,41.69l4.37-4.37C70.81,24.24,50,0,50,0S29,24.41,20.85,37.64l4,4Z"/><path class="cls-3" d="M78.94,37.32l-4.37,4.37h0l-2.23,2.23,2.23-2.23H24.9l2.77,2.77L24.9,41.69h0l-4-4C8.63,57.44.69,83,.69,87.23.69,94.28,22.76,100,50,100s49.31-5.72,49.31-12.77C99.31,83,91.28,57.16,78.94,37.32Z"/><circle class="cls-2" cx="27.26" cy="41.68" r="7.58"/><circle class="cls-2" cx="42.42" cy="41.68" r="7.58"/><circle class="cls-2" cx="57.58" cy="41.68" r="7.58"/><circle class="cls-2" cx="72.74" cy="41.68" r="7.58"/><circle class="cls-2" cx="22.88" cy="53.91" r="1.39"/><circle class="cls-2" cx="27.85" cy="62.1" r="1.39"/><circle class="cls-2" cx="50.21" cy="62.1" r="1.39"/><circle class="cls-2" cx="72.56" cy="62.1" r="1.39"/><circle class="cls-2" cx="33.78" cy="53.91" r="1.39"/><circle class="cls-2" cx="44.69" cy="53.91" r="1.39"/><circle class="cls-2" cx="55.59" cy="53.91" r="1.39"/><circle class="cls-2" cx="66.49" cy="53.91" r="1.39"/><circle class="cls-2" cx="77.4" cy="53.91" r="1.39"/><path class="cls-4" d="M90.18,21.26H82a1.58,1.58,0,0,0,.39-1c0-.86-.89-1.68-2.47-2.43a17.78,17.78,0,0,0-1.71-.68,4.14,4.14,0,0,0,.22-1.28,4.18,4.18,0,0,0-8.23-1,2.63,2.63,0,0,0-4.5-.16c-1.2-.13-2.44-.25-3.72-.35l.59.74c6.45.57,11,1.57,11.76,2.73a.64.64,0,0,1,.12.36c0,.37-.38.73-1.1,1.07a2,2,0,0,0-.63.26l-.8.26a3.11,3.11,0,0,0-6,1.14c-2.13.27-4.59.49-7.26.64a4.29,4.29,0,0,0-6.63.22H49.9c-13.53,0-24.5-1.61-24.5-3.6a.64.64,0,0,1,.12-.36c.43-.64,2-1.23,4.45-1.73l.9-.06s0-.07,0-.11c1.84-.34,4.1-.62,6.63-.84l.59-.74c-2.64.2-5.12.47-7.37.79,0-.1,0-.19-.08-.29a3.86,3.86,0,0,0-7.44,1.81,21.68,21.68,0,0,0-3.25,1.17,5.89,5.89,0,0,0-2.08,1.45,2,2,0,0,0-2.25.9A3.12,3.12,0,0,0,9.46,21a3.08,3.08,0,0,0,0,.4,2.26,2.26,0,0,0,.32,4.41.58.58,0,0,0,.2,0H33.88a146.82,146.82,0,0,0,16,.83,146.16,146.16,0,0,0,16.29-.86h0a.58.58,0,0,0,.2,0H90.25a2.27,2.27,0,0,0-.07-4.55Zm-20-5.94.2,0h.05Z"/></svg>