<svg id="Layer_1" data-name="Layer 1" xmlns="http://www.w3.org/2000/svg" viewBox="0 0 100 100"><defs><style>.cls-1{fill:#895e59;}.cls-2{fill:#805752;}.cls-3{fill:#714c48;}.cls-4{fill:#6a4743;}</style></defs><title>clay</title><path class="cls-1" d="M5.89,80.24c0,3.57-.21,7.4,8.83,9.74,1.69.44,3.51.85,5.43,1.22,3.21.62,6.71,1.14,10.44,1.55l2.27.23c5.36.51,11.14.78,17.18.78h0c15.52,0,29.39-1.83,38.55-4.71A41.44,41.44,0,0,0,94,87c.52-.25,1-.51,1.47-.77,2.92-1.64,4.56-3.47,4.56-5.4h0c0-4.29-8.08-30.28-20.51-50.35Z"/><path class="cls-1" d="M97.36,37.88l-.63.6.63-.6L95.9,36.7l1.46,1.18L100,35.39v-2.7C100,18.23,88.06,4.59,73.71,6.4,62,7.87,39.32,15.21,27.58,16.48,13.2,18,.09,18.23.09,32.69L12,64.77c0-3.1-.07,26.84,14.39,26.84H73.71C88.17,91.6,100,75.36,100,81.2V40Z"/><path class="cls-2" d="M57.84,23.05S92,14.76,84.54,8A20.38,20.38,0,0,0,73.71,6.4C62,7.87,39.32,15.21,27.58,16.48c-8,.86-15.54,1.31-20.71,4C15.23,26,36.66,37.21,57.84,23.05Z"/><path class="cls-3" d="M23.88,66.82c6.71-12.32,14.79-28.58,11.5-36.88L16.9,17.68C7.31,19.09.09,22,.09,32.69c0,0,3.11,17.25,2.45,32.86l1.93-.46,1-1.21-1,1.21.19,0-.19,0L2.4,67.57c-.06,1-.11,2-.21,3l5,1.89,2.76,0-2.76,0,.23.09-.23-.09L2,72.45A42.43,42.43,0,0,1,.09,80.83C-1.2,84.49,11.92,92.22,26.38,92.22l1.27.19C25.36,89.29,18.17,77.31,23.88,66.82Z"/><path class="cls-2" d="M58.66,33.28c-1,3.41-2.12,6.78-3.28,10.13l-.17-.81c2.09,1.85,4.17,3.7,6.21,5.6l1.09,1-1.39.64c-2,.92-4,1.76-6,2.64l.15-.08c-2.81,1.79-5.64,3.56-8.5,5.27l.46-.84c0,2.37-.13,4.75-.22,7.12l-.18-.49c2.28,3,4.51,6.1,6.64,9.26-2.69-2.69-5.29-5.46-7.84-8.27l-.16-.18v-.31c-.1-2.37-.18-4.75-.22-7.12V56.3L45.7,56c2.77-1.85,5.59-3.64,8.41-5.41l.08-.05.07,0c2-.83,4-1.7,6.05-2.49L60,49.64c-2-2-3.91-4-5.84-6l-.37-.39.2-.43C55.49,39.64,57,36.43,58.66,33.28Z"/><path class="cls-2" d="M64.41,62.82a24.42,24.42,0,0,1-.84-4.41l.37.69a42,42,0,0,1-5.06-3.18l.35.16a40.14,40.14,0,0,1-3.9-1.27l-.85-.32.31-.63a24.32,24.32,0,0,1,1.79-3.18,24.32,24.32,0,0,1-.37,3.63l-.54-1a40.14,40.14,0,0,1,4,.66l.16,0,.19.12a42,42,0,0,1,4.8,3.55l.41.34,0,.35A24.43,24.43,0,0,1,64.41,62.82Z"/><path class="cls-2" d="M95.4,52.35c-1,2-2.09,3.86-3.23,5.73l.11-.23c-.64,3-1.4,5.93-2.23,8.86L90,67l-.18.19c-2.55,2.74-5.18,5.41-8,7.94l0-1c1.32,1.39,2.6,2.83,3.8,4.34-1.63-1-3.2-2.16-4.72-3.33l-.51-.39.46-.59c2.33-3,4.81-5.75,7.37-8.49l-.25.44c.87-2.92,1.82-5.81,2.88-8.67l.06-.17,0-.06C92.38,55.55,93.83,53.9,95.4,52.35Z"/><path class="cls-2" d="M89.77,63.8a95.14,95.14,0,0,1,7.05,6.4l.63.62-.72.65Q90.57,77.07,83.88,82l.23-.29A96.66,96.66,0,0,1,78.93,90a96.6,96.6,0,0,1,3.58-9l.06-.13.17-.16q6.18-5.59,12.88-10.53l-.09,1.28A95.16,95.16,0,0,1,89.77,63.8Z"/><path class="cls-4" d="M11,28.16c-.76,3.81-1.7,7.55-2.77,11.25l-.05-.71q2.16,3.9,4.16,7.87l.12.24v.26l0,3.62-1.75-.8q2.92-2.44,5.93-4.78l1.1-.85.17,1.29c.22,1.68.44,3.37.59,5.06l0,.25-.14.1c-.92.69-1.83,1.39-2.78,2,.73-.89,1.5-1.74,2.27-2.6l-.12.35c-.5-1.63-.94-3.27-1.36-4.91l1.27.44q-2.73,2.66-5.57,5.2L10.31,53l0-2.35,0-3.62.12.49q-2-4-3.87-8l-.18-.38.12-.33C7.82,35.22,9.3,31.66,11,28.16Z"/></svg>