<svg id="Layer_1" data-name="Layer 1" xmlns="http://www.w3.org/2000/svg" viewBox="0 0 100 100"><defs><style>.cls-1{fill:#09a582;}.cls-2{fill:#faaf40;}.cls-3{fill:#895e59;}.cls-4{fill:#089a7a;}.cls-5{fill:#069274;}.cls-6{fill:#6ab8d9;}.cls-7{fill:#007359;}.cls-8{fill:#3e3e3f;}.cls-9{fill:#f37d3b;}.cls-10{fill:#ffc640;}.cls-11{fill:#58595b;}</style></defs><title>river</title><path class="cls-1" d="M39.32,94S121.7,98.89,79,59.65"/><path class="cls-1" d="M29.52,12.15s2-7.41,16.31-9.66S69.46.89,72.6.14,79,1.82,79,1.82"/><path class="cls-2" d="M36.84,71.65c-2.14-3.21-.78-10.07-.72-10.36l1.48.3c-.37,1.81-1,7,.5,9.22Z"/><path class="cls-3" d="M37.07,62h0a2.24,2.24,0,0,1-1.9-2.55l1.41-8.19a2.31,2.31,0,0,1,2.66-1.83h0A2.24,2.24,0,0,1,41.14,52l-1.41,8.19A2.31,2.31,0,0,1,37.07,62Z"/><path class="cls-2" d="M38.18,71.89c-1.1-3,1-8.51,1-8.74l1.14.43c0,.05-2,5.32-1,7.89Z"/><path class="cls-3" d="M39.87,63.84h0a2,2,0,0,1-1-2.44l2.31-6.66a1.74,1.74,0,0,1,2.27-1.11h0a2,2,0,0,1,1,2.44l-2.31,6.66A1.74,1.74,0,0,1,39.87,63.84Z"/><path class="cls-1" d="M38.44,72.1l.88-1.36-.11-2.52a3.41,3.41,0,0,0-.9.84,3.19,3.19,0,0,0-.23.43l.1,2.34A1.39,1.39,0,0,0,38.44,72.1Z"/><path class="cls-1" d="M38.18,71.83l-.1-2.34A2.34,2.34,0,0,0,38.18,71.83Z"/><path class="cls-4" d="M39.76,70.07l-.09-2.14-.45.29.11,2.52Z"/><path class="cls-1" d="M40.47,69l-.06-1.46c-.25.13-.5.27-.75.42l.09,2.14Z"/><path class="cls-4" d="M41.85,66.83s-.67.27-1.44.67L40.47,69Z"/><path class="cls-5" d="M41.14,71.17c.71-1.09.71-4.34.71-4.34L38.44,72.1C39.22,72.68,40.43,72.27,41.14,71.17Z"/><path class="cls-1" d="M37.24,72.07l-.81-1.28L34.35,70a3.5,3.5,0,0,0,.38,1.13,2.89,2.89,0,0,0,.27.37l1.93.69A1.22,1.22,0,0,0,37.24,72.07Z"/><path class="cls-1" d="M36.93,72.23,35,71.54A1.84,1.84,0,0,0,36.93,72.23Z"/><path class="cls-4" d="M36,70.16l-1.77-.63c0,.18.05.35.09.52l2.08.74Z"/><path class="cls-1" d="M35.37,69.11l-1.2-.43c0,.27.05.56.09.84l1.77.63Z"/><path class="cls-4" d="M34.11,67.11s0,.72.06,1.57l1.2.43Z"/><path class="cls-5" d="M37.39,69.23c-.65-1-3.28-2.12-3.28-2.12l3.13,5A2.15,2.15,0,0,0,37.39,69.23Z"/><path class="cls-6" d="M23.74,75.68a175.47,175.47,0,0,0,22.66-8.06,80,80,0,0,0,10-5.26,29.42,29.42,0,0,0,7.1-5.88,12.27,12.27,0,0,0,1.13-1.71c.14-.2.3-.27.05-1a8.06,8.06,0,0,0-2.15-2.62,26.16,26.16,0,0,0-4.11-2.82c-6.36-3.56-14.38-6-22.38-7.89l-6.32-1.43c-2.17-.52-4.35-1.07-6.55-1.74a52.1,52.1,0,0,1-6.71-2.48,22.64,22.64,0,0,1-3.58-2,10,10,0,0,1-3.78-4.6A7.12,7.12,0,0,1,8.93,24a8.13,8.13,0,0,1,1.48-3,14.08,14.08,0,0,1,3.36-3,37,37,0,0,1,6.4-3.25,112.77,112.77,0,0,1,12.6-4.11C49.57,6.23,66.48,3.38,83.45.93c-16.54,4.4-33,9.23-48.78,15.42a106.3,106.3,0,0,0-11.3,5.2,29.31,29.31,0,0,0-4.72,3.11,5.37,5.37,0,0,0-1.26,1.41c-.07.14,0,.16.1-.08a1.83,1.83,0,0,0,0-1c-.22-.58,0-.23.53,0a14.67,14.67,0,0,0,2.13.86,43.19,43.19,0,0,0,5.54,1.32c2,.35,4,.63,6,.87l6.35.65c8.82,1,17.68,2.35,26.88,6a42.17,42.17,0,0,1,7,3.6,25.15,25.15,0,0,1,6.84,6.43,18.4,18.4,0,0,1,3.42,11.17,22.39,22.39,0,0,1-3,10.29c-3.17,5.5-7,9-10.84,12.27a99.5,99.5,0,0,1-11.78,8.26A197.46,197.46,0,0,1,32.13,99h0A12.4,12.4,0,1,1,22.28,76.2,13.75,13.75,0,0,1,23.74,75.68Z"/><polyline class="cls-7" points="53.77 15.4 52.44 13.16 56.21 14.12"/><polyline class="cls-7" points="53.77 15.4 52.44 13.16 56.21 14.12"/><polygon class="cls-7" points="49.95 18.5 52.47 22.75 53.98 18.98 49.95 18.5"/><circle class="cls-1" cx="56.59" cy="17.7" r="3.92" transform="translate(-1.1 31.41) rotate(-30.73)"/><circle class="cls-8" cx="57.07" cy="16.13" r="0.49" transform="translate(-0.23 31.43) rotate(-30.73)"/><polyline class="cls-7" points="54.71 19.91 55.45 21.15 57.03 18.44"/><rect class="cls-1" x="58.76" y="15.46" width="3.34" height="2.12" rx="0.47" ry="0.47" transform="translate(0.05 33.2) rotate(-30.73)"/><polyline class="cls-7" points="69.42 19.64 69.42 17.8 71.36 19.74"/><polyline class="cls-9" points="69.42 19.64 69.42 17.8 71.36 19.74"/><polygon class="cls-9" points="65.99 20.14 65.99 23.63 68.26 21.88 65.99 20.14"/><circle class="cls-10" cx="70.31" cy="22.05" r="2.76"/><circle class="cls-8" cx="71.16" cy="21.27" r="0.35"/><polyline class="cls-9" points="68.36 22.71 68.36 23.73 70.31 22.65"/><rect class="cls-10" x="71.88" y="21.97" width="2.36" height="1.49" rx="0.33" ry="0.33"/><polyline class="cls-7" points="63.81 33.9 66.14 33.27 64.33 36.39"/><polyline class="cls-9" points="63.81 33.9 66.14 33.27 64.33 36.39"/><polygon class="cls-9" points="62.01 29.71 57.6 30.89 60.57 33.18 62.01 29.71"/><circle class="cls-10" cx="61.05" cy="35.83" r="3.62" transform="translate(-7.16 16.91) rotate(-14.9)"/><circle class="cls-8" cx="62.33" cy="36.65" r="0.45" transform="translate(-7.33 17.26) rotate(-14.9)"/><polyline class="cls-9" points="59.56 33.59 58.27 33.94 60.28 36.03"/><rect class="cls-10" x="59.59" y="38.56" width="3.09" height="1.95" rx="0.43" ry="0.43" transform="translate(83.62 -29.7) rotate(75.1)"/><rect class="cls-6" x="38.72" y="25.68" width="3.39" height="8.31" rx="0.75" ry="0.75" transform="translate(-7.7 15.4) rotate(-19.73)"/><rect class="cls-6" x="42.04" y="27.51" width="3.39" height="8.31" rx="0.75" ry="0.75" transform="translate(-8.12 16.63) rotate(-19.73)"/><rect class="cls-6" x="44.57" y="26.9" width="3.39" height="8.31" rx="0.75" ry="0.75" transform="translate(45.02 -24.65) rotate(54.84)"/><rect class="cls-6" x="57.21" y="34.61" width="2.55" height="6.26" rx="0.57" ry="0.57" transform="translate(-9.31 21.96) rotate(-19.73)"/><rect class="cls-6" x="59.71" y="36" width="2.55" height="6.26" rx="0.57" ry="0.57" transform="translate(-9.63 22.89) rotate(-19.73)"/><rect class="cls-6" x="61.61" y="35.54" width="2.55" height="6.26" rx="0.57" ry="0.57" transform="translate(58.28 -35.02) rotate(54.84)"/><path class="cls-6" d="M42.94,22a12.55,12.55,0,0,1-1,2.6,12.55,12.55,0,0,1-1-2.6,1,1,0,1,1,2,0Z"/><path class="cls-6" d="M54.78,28.56a7.66,7.66,0,0,1-1.7.07,7.66,7.66,0,0,1,1.21-1.2.62.62,0,0,1,.5,1.13Z"/><path class="cls-6" d="M68.82,34.14a7.66,7.66,0,0,1-1.7.07A7.66,7.66,0,0,1,68.33,33a.62.62,0,1,1,.5,1.13Z"/><path class="cls-6" d="M65.38,30.36a7.66,7.66,0,0,1-1.05,1.34A7.66,7.66,0,0,1,64.2,30a.62.62,0,0,1,1.18.36Z"/><path class="cls-6" d="M73.29,28.32A7.66,7.66,0,0,1,72.21,27a7.66,7.66,0,0,1,1.68.24.62.62,0,1,1-.61,1.08Z"/><rect class="cls-6" x="54.71" y="37.5" width="11.91" height="7.9"/><path class="cls-11" d="M66.85,46c-2,0-3.64,1.13-3.89,2.58h7.78C70.49,47.13,68.85,46,66.85,46Z"/><path class="cls-11" d="M26.12,12.9a2.7,2.7,0,0,0-2.83,1.88h5.66A2.7,2.7,0,0,0,26.12,12.9Z"/><path class="cls-11" d="M70.94,48.58a1.58,1.58,0,0,0-1.66,1.1H72.6A1.58,1.58,0,0,0,70.94,48.58Z"/><path class="cls-11" d="M19.58,17.61a1.58,1.58,0,0,0-1.66,1.1h3.32A1.58,1.58,0,0,0,19.58,17.61Z"/><path class="cls-11" d="M30.26,77.8a2.83,2.83,0,0,0-3,2h5.94A2.83,2.83,0,0,0,30.26,77.8Z"/><path class="cls-11" d="M67.52,51.25a1.58,1.58,0,0,0-1.66,1.1h3.32A1.58,1.58,0,0,0,67.52,51.25Z"/><polygon class="cls-1" points="69.18 78.78 70.73 68.46 72.28 78.78 69.18 78.78"/><polygon class="cls-1" points="71.5 76.39 73.05 66.07 74.6 76.39 71.5 76.39"/><polygon class="cls-1" points="73.54 77.97 75.09 67.65 76.64 77.97 73.54 77.97"/></svg>