<svg id="Layer_1" data-name="Layer 1" xmlns="http://www.w3.org/2000/svg" viewBox="0 0 100 100"><defs><style>.cls-1{fill:#714c48;}.cls-2{fill:#fac6b9;}.cls-3{fill:#fff;}.cls-4{fill:#3e3e3f;}</style></defs><title>sheep</title><path class="cls-1" d="M19.2,82.45v1a3,3,0,0,0,6.08,0v-1Z"/><path class="cls-2" d="M25.29,71.58a3,3,0,0,0-6.08,0V82.45h6.08Z"/><path class="cls-1" d="M59,82.45v1a3,3,0,0,0,6.08,0v-1Z"/><path class="cls-2" d="M65,71.58a3,3,0,0,0-6.08,0V82.45H65Z"/><path class="cls-2" d="M79.42,23.33a3.55,3.55,0,0,1-2.27-.83,18.51,18.51,0,0,1-2.9-3.59c-1.33-2.12-1.67-3.52-1-4.3a1.71,1.71,0,0,1,1.38-.53c2.1,0,6,2.14,7.08,3a3.54,3.54,0,0,1-2.28,6.25Z"/><path class="cls-3" d="M74.61,14.67c1.9,0,5.68,2,6.7,2.86a3,3,0,1,1-3.79,4.52c-1.25-1-4.88-5.82-3.84-7.07a1.17,1.17,0,0,1,.93-.32m0-1.18h0a2.26,2.26,0,0,0-1.83.74c-2,2.41,3.42,8.26,4,8.73a4.13,4.13,0,0,0,5.3-6.33c-1.14-1-5.15-3.14-7.46-3.14Z"/><path class="cls-3" d="M92.58,17.53a3,3,0,1,0,3.79,4.52c1.25-1,4.88-5.82,3.84-7.07S93.83,16.48,92.58,17.53Z"/><polygon class="cls-3" points="88.17 19.59 86.5 18.44 81.42 21.16 40.79 42.9 67.66 70.72 89.81 32.55 84.05 32.43 90.79 30.86 89.81 32.55 95.16 32.66 95.25 24.44 88.17 19.59"/><polygon class="cls-3" points="84.05 32.43 89.81 32.55 90.79 30.86 84.05 32.43"/><rect class="cls-3" x="3.8" y="39.13" width="77.56" height="29.4" rx="7.28" ry="7.28"/><rect class="cls-3" x="7.7" y="30.75" width="18.54" height="44.74" rx="4.59" ry="4.59"/><rect class="cls-3" x="24.77" y="30.75" width="18.54" height="44.74" rx="4.59" ry="4.59"/><rect class="cls-3" x="41.84" y="30.75" width="18.54" height="44.74" rx="4.59" ry="4.59"/><rect class="cls-3" x="58.92" y="30.75" width="18.54" height="44.74" rx="4.59" ry="4.59"/><rect class="cls-3" x="16.06" y="65.88" width="12.36" height="3.33" rx="0.82" ry="0.82"/><rect class="cls-3" x="16.06" y="69.21" width="12.36" height="3.33" rx="0.82" ry="0.82"/><rect class="cls-3" x="16.06" y="72.53" width="12.36" height="3.33" rx="0.82" ry="0.82"/><rect class="cls-3" x="16.06" y="75.86" width="12.36" height="3.33" rx="0.82" ry="0.82"/><rect class="cls-3" x="55.82" y="65.88" width="12.36" height="3.33" rx="0.82" ry="0.82"/><rect class="cls-3" x="55.82" y="69.21" width="12.36" height="3.33" rx="0.82" ry="0.82"/><rect class="cls-3" x="55.82" y="72.53" width="12.36" height="3.33" rx="0.82" ry="0.82"/><rect class="cls-3" x="55.82" y="75.86" width="12.36" height="3.33" rx="0.82" ry="0.82"/><rect class="cls-3" x="77.63" y="17.65" width="19.01" height="12.13" rx="3" ry="3"/><rect class="cls-2" x="86.81" y="21.39" width="11.71" height="18.36" rx="5.85" ry="5.85" transform="translate(-2.87 50.43) rotate(-30)"/><path class="cls-2" d="M97.13,22.45a7.29,7.29,0,0,1-7,7.1c-3.4,0-9.88-4.55-9.88-7.05s6.48-2,9.88-2S97.27,20,97.13,22.45Z"/><circle class="cls-4" cx="83.18" cy="22.94" r="1.01"/><path class="cls-4" d="M98.26,32.33s-.65-.85-3.1,0c0,0,2.33,1.88,2.33,2.43C97.49,34.76,99.11,33.32,98.26,32.33Z"/><rect class="cls-3" x="-1.08" y="42.42" width="15.45" height="7.8" rx="1.93" ry="1.93" transform="translate(-33.97 23.08) rotate(-52.06)"/></svg>