<svg id="Layer_1" data-name="Layer 1" xmlns="http://www.w3.org/2000/svg" viewBox="0 0 100 100"><defs><style>.cls-1{fill:#3e3e3f;}.cls-2{fill:#f37d3b;}.cls-3{fill:#ffc640;}.cls-4{fill:#fff;}</style></defs><title>explosion</title><circle class="cls-1" cx="60.63" cy="30.77" r="6.62" transform="translate(-5.16 13.62) rotate(-12.3)"/><circle class="cls-1" cx="65.35" cy="21.31" r="4.74" transform="translate(-3.04 14.4) rotate(-12.3)"/><circle class="cls-1" cx="66.63" cy="9.21" r="1.94" transform="translate(-0.43 14.4) rotate(-12.3)"/><circle class="cls-1" cx="55.27" cy="22.32" r="4.74" transform="matrix(0.98, -0.21, 0.21, 0.98, -3.49, 12.28)"/><circle class="cls-1" cx="57.28" cy="16.08" r="2.82" transform="translate(-2.11 12.57) rotate(-12.3)"/><circle class="cls-1" cx="53.92" cy="12.74" r="2.82" transform="translate(-1.48 11.77) rotate(-12.3)"/><circle class="cls-1" cx="37.87" cy="31.35" r="7.41" transform="translate(-5.81 8.78) rotate(-12.3)"/><circle class="cls-1" cx="27.63" cy="36.65" r="7.41" transform="translate(-7.17 6.72) rotate(-12.3)"/><polyline class="cls-2" points="24.6 68.97 49.18 0 68.76 55.4"/><polyline class="cls-2" points="43.97 65.5 68.63 25.69 73.41 62.97"/><polyline class="cls-2" points="25.85 72.3 26.88 25.48 49.93 55.16"/><circle class="cls-1" cx="22.88" cy="74.33" r="6.27"/><circle class="cls-1" cx="76.54" cy="72.51" r="3.54"/><path class="cls-3" d="M76.82,69.09a27.17,27.17,0,0,1-54.35,0c0-15,27.17-38.31,27.17-38.31S76.82,54.08,76.82,69.09Z"/><path class="cls-3" d="M82.37,52.35l-1.95-.27-2.24-.31-.67-.09H77l-1.19,0a12.74,12.74,0,0,0-2.8.07,22,22,0,0,0-6.67,1.65l-1.72.76c-.56.3-1.08.66-1.64,1a23.53,23.53,0,0,0-3.15,2.3A34.72,34.72,0,0,0,57,60.13a36.5,36.5,0,0,0-4.11,5.74A33.64,33.64,0,0,0,50,72.28a34,34,0,0,1,1.38-7.08,35.71,35.71,0,0,1,5.13-10.76,28.59,28.59,0,0,1,3-3.54c.56-.55,1.1-1.14,1.69-1.67L63,47.78a25.63,25.63,0,0,1,4-2.48A26.32,26.32,0,0,1,71,43.56a21,21,0,0,1,4-1.09,29.44,29.44,0,0,1,3.37-.61l2.25-.23,2-.2h0a5.5,5.5,0,0,1,1.1,10.94A5.75,5.75,0,0,1,82.37,52.35Z"/><path class="cls-4" d="M56.74,74.22a6.81,6.81,0,0,1-13.63,0c0-3.76,3.05-10.23,6.81-10.23S56.74,70.45,56.74,74.22Z"/><polyline class="cls-4" points="46.68 67.61 40.89 65.5 46.63 70.19 40.29 70.19 47.49 71.63"/><circle class="cls-3" cx="25.25" cy="55.4" r="8.64"/><circle class="cls-3" cx="14.62" cy="13.07" r="5.26"/><circle class="cls-3" cx="11.61" cy="77.43" r="3.89"/><circle class="cls-3" cx="84.41" cy="31.53" r="1.95"/><path class="cls-3" d="M11.38,31.92l2,.24,2.24.27a29.43,29.43,0,0,1,3.36.68,21,21,0,0,1,3.94,1.17,26.33,26.33,0,0,1,4,1.83,25.64,25.64,0,0,1,3.9,2.56l1.84,1.5c.58.54,1.1,1.14,1.65,1.7a28.59,28.59,0,0,1,2.9,3.61,38.71,38.71,0,0,1,2.21,3.78,39.06,39.06,0,0,1,2.68,7.08,34,34,0,0,1,1.23,7.11A33.63,33.63,0,0,0,40.48,57a36.5,36.5,0,0,0-4-5.83,34.71,34.71,0,0,0-2.7-2.78A23.52,23.52,0,0,0,30.7,46c-.55-.34-1.07-.71-1.62-1l-1.71-.79A19,19,0,0,0,24,43a18.94,18.94,0,0,0-3.25-.6,12.75,12.75,0,0,0-2.8-.13H16.2l-.67.08-2.24.26-2,.23a5.5,5.5,0,1,1,0-10.92Z"/><circle class="cls-1" cx="27.63" cy="84.44" r="8.39"/><circle class="cls-1" cx="39.91" cy="91.86" r="8.14"/><circle class="cls-1" cx="50.12" cy="89.94" r="3.49"/><circle class="cls-1" cx="50.12" cy="95.25" r="4.35" transform="translate(-52.67 63.33) rotate(-45)"/><circle class="cls-1" cx="37.89" cy="62.32" r="5.4" transform="translate(-32.97 45.05) rotate(-45)"/><circle class="cls-1" cx="50.72" cy="80.6" r="4.6"/><circle class="cls-1" cx="54.94" cy="84.22" r="2.65"/><circle class="cls-1" cx="36.02" cy="68.97" r="2.65"/><circle class="cls-1" cx="33.6" cy="56.46" r="1.6"/><circle class="cls-1" cx="37.87" cy="51.55" r="0.8"/><circle class="cls-1" cx="58.65" cy="91.92" r="5.86"/><circle class="cls-1" cx="64.97" cy="88.02" r="5.41"/><circle class="cls-1" cx="45.73" cy="7.63" r="2.31"/><circle class="cls-1" cx="75.38" cy="84.49" r="6.62"/><path class="cls-1" d="M69.87,60.34a6.62,6.62,0,0,0-6.62-6.62,6.55,6.55,0,0,0-3.18.85c3.94,3.05,6.11,7,6,11.72A6.6,6.6,0,0,0,69.87,60.34Z"/><path class="cls-3" d="M80.14,65.26a6.62,6.62,0,0,0-5.3-7.71,6.55,6.55,0,0,0-3.28.25c3.32,3.72,4.74,8,3.8,12.62A6.6,6.6,0,0,0,80.14,65.26Z"/><circle class="cls-1" cx="78.92" cy="78.02" r="3.54"/><polyline class="cls-4" points="47.49 66.32 52.29 66.32 49.98 13.39 47.49 67.16"/></svg>