<svg id="Layer_1" data-name="Layer 1" xmlns="http://www.w3.org/2000/svg" viewBox="0 0 100 100"><defs><style>.cls-1{fill:#714c48;}.cls-2{fill:#895e59;}.cls-3{fill:#5c3d39;}</style></defs><title>rope</title><path class="cls-1" d="M39.82,80.64c-28.08,0-28.68-4.13-29.1-7a5.6,5.6,0,0,1-.06-1c-1.5.78-3.1,1.56-4.83,2.32a4,4,0,0,1-3.22-7.36A98.61,98.61,0,0,0,13.18,62l1.64-1A7.21,7.21,0,0,1,12.89,55c1.11-5.51,7.53-5.88,16.42-6.38,10.3-.59,24.4-1.4,30.69-10,2.73-3.72,3.9-8.74,3.5-14.93a4,4,0,1,1,8-.53c.53,8.12-1.16,14.91-5,20.2-3.63,5-8.66,8-14.16,9.85,21.3,1.21,41.81,7.24,46.19,12.16A5.3,5.3,0,0,1,100,69.45c-.24,2.64-.89,9.67-50,11C46.23,80.59,42.86,80.64,39.82,80.64ZM24,72c3.25.34,7.43.53,12.11.58-1.59-.51-4-1.35-6.73-2.45C27.93,70.65,25.94,71.32,24,72Zm63.5-3.86a5.78,5.78,0,0,1-.62.87q1-.2,1.79-.41ZM44.25,66.45a72.33,72.33,0,0,0,29.92-.35A97.54,97.54,0,0,0,44.25,66.45Z"/><path class="cls-2" d="M5.83,75,2.61,67.64C3.82,67.11,5,66.57,6.05,66l3.62,7.17C8.45,73.8,7.18,74.4,5.83,75Z"/><path class="cls-2" d="M40.06,80.62c-2.82,0-5.53-.06-8.07-.15l.3-8q1.72.07,3.55.1-1.27-.4-2.55-.86l1.41-4L33.17,62c-1,.21-2,.46-3,.75l-2.3-7.69a45.89,45.89,0,0,1,5.27-1.24l-.36-5.45c3.06-.2,5.41-.43,7.62-.73l1.09,8c-1.69.23-3.35.4-4.85.53l.4,3.53q1.88-.42,3.8-.77L42.18,66l1,.23L41.36,74l-1.28-.3Zm8-.08-.18-8,2-.05.55-5a73.26,73.26,0,0,0,7.5.42l0,8-2,0,.2,4.42C53.44,80.38,50.75,80.47,48.1,80.53Zm-24.27-.6A36.38,36.38,0,0,1,15,78.25l2.85-7.5a11.93,11.93,0,0,0,1.64.46l-1.27-2.82-1,.58-.43.25-4-6.93L13.2,62c2.26-1.32,4.39-2.57,6.71-3.73l1,2,1.94-2.64a40.14,40.14,0,0,0,6.21,3.6L26.29,67l1.29,3.8c-.94.32-2.08.71-3.26,1.14l.31,0Zm40.31-.13-.55-8,2.32-.17-.39-4.11a66.36,66.36,0,0,0,7.39-1.11l1.66,7.86q-1.38.29-2.82.53l.42,4.35C69.58,79.4,66.89,79.62,64.14,79.81Zm16.07-1.58-1.08-8q1.57-.21,3-.44l-1.79-4-.15,0A3,3,0,0,0,81.12,68a6.52,6.52,0,0,0-1.48-.63l.52-1.53c-1.56-.43-3.19-.84-4.88-1.23l1.8-7.82c2.8.65,5.48,1.36,7.94,2.11l-.55,1.79c1.73.87,3.63,2.36,3.72,4.9a5.31,5.31,0,0,1-1.5,3.66l1.62,7.64C86,77.34,83.29,77.8,80.21,78.22Zm0-12.71c0,.06,0,.12,0,.18s0,0,0,.07l0-.15Zm17.07,8.21-3.19-4.63H92a2.56,2.56,0,0,0,.55,1.63,10.89,10.89,0,0,0-2.87-1.64L93,61.77c3.48,1.58,7,3.67,7,7.24l0,.43A5.76,5.76,0,0,1,97.25,73.72ZM92.7,67.11A2.55,2.55,0,0,0,92,68.73l2,.18ZM72.65,65.86c-2.35-.32-4.88-.54-7.53-.65l.11-2.56c-1.71-.26-3.43-.5-5.13-.7L61,54c2.68.32,5.39.71,8.06,1.17l-.38,2.23c1.73.13,3.41.31,5,.52Zm-22.77-.15-.49-4.6-1.67-.05c-1,0-2,0-2.86,0l-.12-8h.12c.91,0,1.94,0,3.05,0l1.69.05-1.92-6.86a30.1,30.1,0,0,0,6.48-2.58l3.9,7a36,36,0,0,1-5.82,2.55l.66,0-.25,4.15c1.52-.11,3.05-.2,4.58-.25l.26,8C55,65.26,52.39,65.44,49.87,65.71ZM20,57.79l-5.1-6.2c2.1-1.78,5.35-2.35,9.91-2.71l.63,8C21.38,57.21,20.3,57.63,20,57.79Zm45.27-13L59.21,39.6c.27-.32.54-.65.79-1a17.16,17.16,0,0,0,2.35-4.55l7.59,2.62a25.12,25.12,0,0,1-3.47,6.68C66.1,43.87,65.71,44.37,65.3,44.84Z"/><path class="cls-2" d="M71.58,27.58l-8-.31a34.45,34.45,0,0,0-.05-3.59l8-.52A42.71,42.71,0,0,1,71.58,27.58Z"/><ellipse class="cls-3" cx="66.72" cy="21.79" rx="4.05" ry="2.22" transform="translate(-3.45 20.08) rotate(-16.69)"/><ellipse class="cls-3" cx="2.35" cy="71.87" rx="2.22" ry="4.05" transform="translate(-15.75 2.28) rotate(-12.7)"/></svg>