<svg id="Layer_1" data-name="Layer 1" xmlns="http://www.w3.org/2000/svg" viewBox="0 0 100 100"><defs><style>.cls-1{fill:#805853;}</style></defs><title>bow</title><path class="cls-1" d="M75.72,96.89,78,99.13c1.42,1.42,4.07,1.07,5.91-.77s2.19-4.49.77-5.91l-.25-.25c-2.74-2.74-2.07-7.87,1.49-11.43C99.65,67,105,44.41,94.41,33.82L80.3,19.7,66.18,5.59C55.59-5,33,.35,19.24,14.12c-3.56,3.56-8.69,4.23-11.44,1.49l-.25-.25c-1.42-1.42-4.07-1.07-5.91.77S-.54,20.63.87,22l2.24,2.24C7.59,28.76,16,27.66,21.8,21.84l2.1-2.1C34.25,9.38,53.29,3.29,61.25,11.25l27.5,27.5c8,8,1.87,27-8.48,37.35l-2.1,2.1C72.34,84,71.24,92.41,75.72,96.89Z"/><rect class="cls-1" x="46.81" y="9.28" width="2.27" height="85.37" transform="translate(-22.7 49.12) rotate(-45)"/></svg>