<svg id="Layer_1" data-name="Layer 1" xmlns="http://www.w3.org/2000/svg" viewBox="0 0 100 100"><defs><style>.cls-1{fill:#fff;}.cls-2{fill:#9c9c9c;}.cls-3{fill:#6ab8d9;}.cls-4{fill:#5b9fbc;}.cls-5{fill:#bf9b77;}.cls-6{fill:#91775a;}</style></defs><title>engineer</title><path class="cls-1" d="M9.82,27.6A23.07,23.07,0,1,1,56,27.6"/><path class="cls-2" d="M15.3,24.36A1.41,1.41,0,0,1,13.89,23,13.08,13.08,0,0,1,19.76,12a1.41,1.41,0,1,1,1.56,2.35A10.26,10.26,0,0,0,16.71,23,1.41,1.41,0,0,1,15.3,24.36Z"/><path class="cls-2" d="M24.86,24.36A1.41,1.41,0,0,1,23.45,23c0-4.19.91-8.12,2.44-10.51A1.41,1.41,0,0,1,28.26,14c-1.23,1.93-2,5.37-2,9A1.41,1.41,0,0,1,24.86,24.36Z"/><path class="cls-2" d="M49.94,24.36A1.41,1.41,0,0,1,48.53,23a10.26,10.26,0,0,0-4.61-8.58A1.41,1.41,0,1,1,45.47,12,13.08,13.08,0,0,1,51.35,23,1.41,1.41,0,0,1,49.94,24.36Z"/><path class="cls-2" d="M40.38,24.36A1.41,1.41,0,0,1,39,23c0-3.62-.76-7.07-2-9a1.41,1.41,0,0,1,2.38-1.52c1.53,2.39,2.44,6.32,2.44,10.51A1.41,1.41,0,0,1,40.38,24.36Z"/><path class="cls-1" d="M63,32H10a3.18,3.18,0,0,1-3.17-3.17h0A3.18,3.18,0,0,1,10,25.67H54.11L63,27.6c1.74,0,3.17,3.17,3.17,3.17h0A5.47,5.47,0,0,1,63,32Z"/><path class="cls-2" d="M32.89,24.36A1.41,1.41,0,0,1,31.48,23V13.2a1.41,1.41,0,0,1,2.82,0V23A1.41,1.41,0,0,1,32.89,24.36Z"/><path class="cls-3" d="M62.07,48.47a4.29,4.29,0,0,0-4.27-4.27H15.2a4.29,4.29,0,0,0-4.27,4.27V91.06a4.29,4.29,0,0,0,4.27,4.27H48.82L62.07,82.09Z"/><path class="cls-4" d="M62.07,82.09h-9a4.29,4.29,0,0,0-4.27,4.27v9Z"/><rect class="cls-4" x="9.92" y="44.2" width="14.13" height="50.82" rx="3.1" ry="3.1"/><rect class="cls-3" x="8.55" y="42.05" width="14.13" height="54.32" rx="3.2" ry="3.2"/><circle class="cls-4" cx="15.62" cy="88.71" r="5.99"/><circle class="cls-3" cx="15.62" cy="88.71" r="4.84"/><circle class="cls-5" cx="15.62" cy="88.71" r="3.74"/><circle class="cls-6" cx="15.62" cy="88.71" r="2.39"/><path class="cls-1" d="M37.59,71.2l-.13-.63,0-.63c.44,0,.82,0,1.17-.07l.16,1.25A9.51,9.51,0,0,1,37.59,71.2Zm-1.48-.12a9.55,9.55,0,0,1-1.32-.31l.38-1.21a8.08,8.08,0,0,0,1.14.27Zm4-.23-.34-1.22a8,8,0,0,0,1.11-.4l.51,1.16A9.64,9.64,0,0,1,40.14,70.85Zm-6.61-.57a9.46,9.46,0,0,1-1.18-.67l.7-1.05a8.42,8.42,0,0,0,1,.58Zm9.08-.52-.67-1.07a8.28,8.28,0,0,0,.95-.7l.82,1A9.32,9.32,0,0,1,42.6,69.75Zm-11.33-1a9.48,9.48,0,0,1-.94-1l1-.81a8,8,0,0,0,.81.85ZM44.66,68l-1-.83a8.1,8.1,0,0,0,.71-.94l1.06.69A9.55,9.55,0,0,1,44.66,68ZM29.55,66.69a9.1,9.1,0,0,1-.62-1.21l1.16-.5a8,8,0,0,0,.54,1Zm16.58-1L45,65.2a8,8,0,0,0,.41-1.1l1.21.36A9.33,9.33,0,0,1,46.14,65.73ZM28.49,64.2a9.38,9.38,0,0,1-.25-1.34l1.26-.14a7.51,7.51,0,0,0,.22,1.15ZM46.9,63.14,45.65,63a8,8,0,0,0,.08-1.17H47A9.3,9.3,0,0,1,46.9,63.14ZM29.44,61.56l-1.26,0a9.2,9.2,0,0,1,.14-1.35l1.25.22A8.68,8.68,0,0,0,29.44,61.56Zm16.26-.49a8.62,8.62,0,0,0-.19-1.16l1.23-.29A9.7,9.7,0,0,1,47,61ZM29.84,59.25l-1.2-.39a9.11,9.11,0,0,1,.52-1.26l1.13.57A7.89,7.89,0,0,0,29.84,59.25Zm15.33-.45a8.14,8.14,0,0,0-.51-1.06l1.1-.63a9.17,9.17,0,0,1,.59,1.22ZM30.88,57.15l-1-.72a9.51,9.51,0,0,1,.85-1.05l.93.86A8.62,8.62,0,0,0,30.88,57.15ZM44,56.76a8.16,8.16,0,0,0-.79-.87l.88-.91A9.58,9.58,0,0,1,45,56ZM32.48,55.44l-.79-1a9.2,9.2,0,0,1,1.11-.77l.64,1.09A8.39,8.39,0,0,0,32.48,55.44Zm9.84-.29a8,8,0,0,0-1-.61l.58-1.13a9.45,9.45,0,0,1,1.16.71Zm-7.82-.9L34,53.07a9.35,9.35,0,0,1,1.29-.42l.31,1.23A8,8,0,0,0,34.49,54.25Zm5.74-.17a8.19,8.19,0,0,0-1.13-.3l.23-1.24a9.37,9.37,0,0,1,1.31.35Zm-3.48-.4-.13-1.26a9.32,9.32,0,0,1,1.35,0l-.06,1.26h-.34C37.31,53.64,37,53.65,36.76,53.68Z"/><path class="cls-1" d="M53.21,78.47H51.67V77.21h.91v.28h.63Zm-2.81,0H49.14V77.21H50.4Zm-2.53,0H46.61V77.21h1.27Zm-2.53,0H44.08V77.21h1.27Zm-2.53,0H41.54V77.21h1.27Zm-2.53,0H39V77.21h1.27Zm-2.53,0h-1V77H38v.87h-.24Zm15.46-2.26H51.94V75h1.27ZM38,75.71H36.72V74.44H38Zm15.23-2H51.94V72.42h1.27ZM38,73.17H36.72V71.91H38Zm15.23-2H51.94V69.89h1.27ZM38,70.64H36.72V69.38H38ZM58.67,69H57.4V67.76h1.27Zm-2.53,0H54.87V67.76h1.27Zm-2.53,0h-1v-.4h-.63v-.87h1.66ZM38,68.11H36.72V66.85H38Zm21.87-.44H58.59V66.41h1.27ZM38,65.58H36.72V64.31H38Zm21.87-.44H58.59V63.88h1.27ZM38,63H36.72V61.78H38Zm21.87-.44H58.59V61.35h1.27Zm0-2.53H58.59V58.82h1.27Z"/><path class="cls-1" d="M54,61.35a3.4,3.4,0,1,1,3.4-3.4A3.41,3.41,0,0,1,54,61.35Zm0-5.54a2.14,2.14,0,1,0,2.13,2.14A2.14,2.14,0,0,0,54,55.81Z"/><path class="cls-1" d="M32.76,81.4H26.55V74.24h6.21Zm-4.94-1.27H31.5V75.51H27.82Z"/><rect class="cls-1" x="47.08" y="46.12" width="12.14" height="1.5" rx="0.34" ry="0.34"/><rect class="cls-1" x="47.08" y="49.08" width="12.14" height="1.5" rx="0.34" ry="0.34"/><rect class="cls-2" x="71.83" width="5.23" height="100" rx="1.19" ry="1.19"/><rect class="cls-2" x="87.94" width="5.23" height="100" rx="1.19" ry="1.19"/><rect class="cls-2" x="72.04" y="10.19" width="21.12" height="2.48" transform="translate(16.11 61.75) rotate(-45)"/><rect class="cls-2" x="72.04" y="10.19" width="21.12" height="2.48" transform="translate(16.11 61.75) rotate(-45)"/><rect class="cls-2" x="81.36" y="0.87" width="2.48" height="21.12" transform="translate(16.11 61.75) rotate(-45)"/><rect class="cls-2" x="72.04" y="24.93" width="21.12" height="2.48" transform="translate(5.69 66.07) rotate(-45)"/><rect class="cls-2" x="72.04" y="24.93" width="21.12" height="2.48" transform="translate(5.69 66.07) rotate(-45)"/><rect class="cls-2" x="81.36" y="15.61" width="2.48" height="21.12" transform="translate(5.69 66.07) rotate(-45)"/><rect class="cls-2" x="72.04" y="39.67" width="21.12" height="2.48" transform="translate(-4.74 70.39) rotate(-45)"/><rect class="cls-2" x="72.04" y="39.67" width="21.12" height="2.48" transform="translate(-4.74 70.39) rotate(-45)"/><rect class="cls-2" x="81.36" y="30.35" width="2.48" height="21.12" transform="translate(-4.74 70.39) rotate(-45)"/><rect class="cls-2" x="72.04" y="54.41" width="21.12" height="2.48" transform="translate(-15.16 74.71) rotate(-45)"/><rect class="cls-2" x="72.04" y="54.41" width="21.12" height="2.48" transform="translate(-15.16 74.71) rotate(-45)"/><rect class="cls-2" x="81.36" y="45.1" width="2.48" height="21.12" transform="translate(-15.16 74.71) rotate(-45)"/><rect class="cls-2" x="72.04" y="69.15" width="21.12" height="2.48" transform="translate(-25.58 79.02) rotate(-45)"/><rect class="cls-2" x="72.04" y="69.15" width="21.12" height="2.48" transform="translate(-25.58 79.02) rotate(-45)"/><rect class="cls-2" x="81.36" y="59.84" width="2.48" height="21.12" transform="translate(-25.58 79.02) rotate(-45)"/><rect class="cls-2" x="72.04" y="83.89" width="21.12" height="2.48" transform="translate(-36.01 83.34) rotate(-45)"/><rect class="cls-2" x="72.04" y="83.89" width="21.12" height="2.48" transform="translate(-36.01 83.34) rotate(-45)"/><rect class="cls-2" x="81.36" y="74.58" width="2.48" height="21.12" transform="translate(-36.01 83.34) rotate(-45)"/></svg>