<svg id="Layer_1" data-name="Layer 1" xmlns="http://www.w3.org/2000/svg" viewBox="0 0 100 100"><defs><style>.cls-1{fill:#3e3e3f;}.cls-2{fill:#ffc63f;}.cls-3{fill:#fff;}.cls-4{fill:#ffc640;}</style></defs><title>galaxy</title><path class="cls-1" d="M85.71,0H14.29A14.33,14.33,0,0,0,0,14.29V85.71A14.33,14.33,0,0,0,14.29,100H85.71A14.33,14.33,0,0,0,100,85.71V14.29A14.33,14.33,0,0,0,85.71,0Z"/><path class="cls-2" d="M50.88,47.21a2.39,2.39,0,0,0,.6-1.78,2.28,2.28,0,0,0-.79-1.52,1,1,0,0,0-1.18.08c-.23.22,0,.06.07,0a.68.68,0,0,0,.17-.36c0-.3.09-.51-.69-1.1a2.84,2.84,0,0,0-2.32-.41,3,3,0,0,0-1.13.55A5.81,5.81,0,0,0,44.46,44a5.74,5.74,0,0,0-.74,3.57A5.68,5.68,0,0,0,45.49,51a8.8,8.8,0,0,0,8.78,2.12,9.08,9.08,0,0,0,4.16-2.65,12.83,12.83,0,0,0,2.82-4.67,13.38,13.38,0,0,0-1.15-10.9c-.24-.42-.53-.79-.79-1.2l-.92-1.12a20.76,20.76,0,0,0-2.28-2,18.16,18.16,0,0,0-17.8-2.41,17.56,17.56,0,0,0-5.44,3.33,23.41,23.41,0,0,0-4.3,5,24.86,24.86,0,0,0-.48,25.92C32.85,70.34,41.81,75.91,51.35,77a33.72,33.72,0,0,0,26.93-8.9,34.5,34.5,0,0,1-53.16-3.9,29.76,29.76,0,0,1-3.44-7.11,31.41,31.41,0,0,1-1.37-7.84,29.44,29.44,0,0,1,3.76-15.49A28.8,28.8,0,0,1,29,27.32a23.43,23.43,0,0,1,6.87-4.79A25,25,0,0,1,52.52,21a25.52,25.52,0,0,1,7.85,3.52,28.14,28.14,0,0,1,3.4,2.71c.52.54,1,1.08,1.54,1.65s.95,1.18,1.37,1.81a21.51,21.51,0,0,1-1.37,25.79,18.54,18.54,0,0,1-7.88,5.69,18.76,18.76,0,0,1-18.92-3.38A16.44,16.44,0,0,1,33,49.55a16.85,16.85,0,0,1,1.42-10.82A17.17,17.17,0,0,1,37.8,34.2,14.66,14.66,0,0,1,43,31a14.82,14.82,0,0,1,12,.9,14.47,14.47,0,0,1,4.87,4.2,13.38,13.38,0,0,1,1.35,13.31A13,13,0,0,1,56.56,55a12.3,12.3,0,0,1-14.92-1.08A11.39,11.39,0,0,1,41,37.37Z"/><path class="cls-2" d="M51.24,45.08a1.61,1.61,0,0,0,0-2.36,2.84,2.84,0,0,0-3.42-.36A4.3,4.3,0,0,0,46,46.16,4.81,4.81,0,0,0,48.54,50a6.27,6.27,0,0,0,5.09.55,6.34,6.34,0,0,0,2.29-1.31A9.13,9.13,0,0,0,57.7,47a8.93,8.93,0,0,0,.93-5.65,8.79,8.79,0,0,0-2.82-5.07,11.67,11.67,0,0,0-11.68-2.48c-4,1.28-7.13,5-8.46,9.2A15.75,15.75,0,0,0,37.33,55.8,17.14,17.14,0,0,0,42,60.68,20.11,20.11,0,0,0,61.7,63,22.26,22.26,0,0,0,72,53.75a26.12,26.12,0,0,0,0-27.21A32.72,32.72,0,0,0,48,11.93a34,34,0,0,0-27,9.4,34.36,34.36,0,0,1,27-10.14A33.82,33.82,0,0,1,73.34,25.75a28.72,28.72,0,0,1,3.21,6.9,30.26,30.26,0,0,1,1.2,7.54,28.08,28.08,0,0,1-3.8,14.71A27.29,27.29,0,0,1,69.21,61a21.76,21.76,0,0,1-6.46,4.37,23.17,23.17,0,0,1-15.43,1.24,23.47,23.47,0,0,1-7.17-3.33,20.38,20.38,0,0,1-5.65-5.65A19.08,19.08,0,0,1,36,34.74a15.87,15.87,0,0,1,6.82-4.82,15.91,15.91,0,0,1,16,3,13.39,13.39,0,0,1,4.42,7.55A13.68,13.68,0,0,1,62,49.24a14,14,0,0,1-2.72,3.61A11.39,11.39,0,0,1,46,54.55a11.06,11.06,0,0,1-3.66-3.19,9.77,9.77,0,0,1,2.42-13.72,8.54,8.54,0,0,1,10.32.79,7.48,7.48,0,0,1,.37,10.86Z"/><circle class="cls-3" cx="49.71" cy="45.58" r="6.89"/><circle class="cls-3" cx="93.56" cy="65.25" r="1.38" transform="translate(-20.2 73.63) rotate(-39.11)"/><circle class="cls-4" cx="96.27" cy="72.03" r="0.47" transform="translate(-23.86 76.86) rotate(-39.11)"/><circle class="cls-3" cx="87.09" cy="69.49" r="0.91" transform="translate(-24.32 70.51) rotate(-39.11)"/><circle class="cls-4" cx="91.12" cy="77.06" r="0.84" transform="translate(-28.19 74.74) rotate(-39.11)"/><circle class="cls-4" cx="86.1" cy="81.61" r="0.4" transform="translate(-32.19 72.59) rotate(-39.11)"/><circle class="cls-4" cx="80.63" cy="81.69" r="0.17" transform="translate(-33.46 69.16) rotate(-39.11)"/><circle class="cls-4" cx="78.38" cy="88.05" r="0.28" transform="translate(-37.98 69.17) rotate(-39.11)"/><circle class="cls-4" cx="54.4" cy="85.36" r="0.06" transform="translate(-41.66 53.44) rotate(-39.11)"/><circle class="cls-4" cx="48.9" cy="92.3" r="1.03" transform="translate(-47.27 51.53) rotate(-39.11)"/><circle class="cls-4" cx="45.31" cy="85.23" r="0.37" transform="translate(-43.61 47.68) rotate(-39.11)"/><circle class="cls-4" cx="39.05" cy="88.83" r="0.23" transform="translate(-47.29 44.53) rotate(-39.11)"/><circle class="cls-3" cx="32.99" cy="84.32" r="0.96" transform="translate(-45.8 39.7) rotate(-39.11)"/><circle class="cls-4" cx="24.8" cy="82.59" r="0.84" transform="translate(-46.54 34.15) rotate(-39.11)"/><circle class="cls-4" cx="17.9" cy="80.46" r="0.65" transform="translate(-46.74 29.32) rotate(-39.11)"/><circle class="cls-4" cx="19.2" cy="71.25" r="1.34" transform="translate(-40.64 28.08) rotate(-39.11)"/><circle class="cls-4" cx="10.8" cy="71.49" r="0.85" transform="translate(-42.67 22.83) rotate(-39.11)"/><circle class="cls-4" cx="10.53" cy="63.06" r="0.97" transform="translate(-37.42 20.77) rotate(-39.11)"/><circle class="cls-4" cx="8.01" cy="54.21" r="1.18" transform="translate(-32.4 17.2) rotate(-39.11)"/><circle class="cls-4" cx="17.86" cy="47.38" r="1.18" transform="translate(-25.89 21.88) rotate(-39.11)"/><circle class="cls-3" cx="5.86" cy="46.45" r="0.25" transform="translate(-27.99 14.1) rotate(-39.11)"/><circle class="cls-3" cx="9.56" cy="40.78" r="0.26" transform="translate(-23.58 15.16) rotate(-39.11)"/><circle class="cls-4" cx="9.48" cy="35.32" r="0.36" transform="translate(-20.16 13.89) rotate(-39.11)"/><circle class="cls-4" cx="13.51" cy="31.94" r="0.17" transform="translate(-17.12 15.68) rotate(-39.11)"/><circle class="cls-4" cx="17.36" cy="25.02" r="1.45" transform="translate(-11.89 16.56) rotate(-39.11)"/><circle class="cls-3" cx="22.29" cy="17.89" r="0.97" transform="translate(-6.29 18.07) rotate(-39.11)"/><circle class="cls-4" cx="27.75" cy="12.27" r="0.28" transform="translate(-1.53 20.25) rotate(-39.11)"/><circle class="cls-3" cx="38.51" cy="10.93" r="2.21" transform="translate(1.73 26.74) rotate(-39.11)"/><circle class="cls-4" cx="48.64" cy="11.37" r="0.42" transform="translate(3.72 33.23) rotate(-39.11)"/><circle class="cls-4" cx="55.1" cy="10.34" r="0.4" transform="translate(5.83 37.07) rotate(-39.11)"/><circle class="cls-3" cx="57.21" cy="17.96" r="0.8" transform="translate(1.49 40.11) rotate(-39.11)"/><circle class="cls-4" cx="65.64" cy="17.24" r="1.92" transform="translate(3.83 45.27) rotate(-39.11)"/><circle class="cls-4" cx="65.19" cy="26.15" r="0.31" transform="translate(-1.89 46.98) rotate(-39.11)"/><circle class="cls-3" cx="75.47" cy="21.65" r="0.41" transform="translate(3.25 52.46) rotate(-39.11)"/><circle class="cls-4" cx="74.61" cy="28.33" r="0.88" transform="translate(-1.15 53.41) rotate(-39.11)"/><circle class="cls-4" cx="81.55" cy="30.98" r="0.34" transform="translate(-1.27 58.38) rotate(-39.11)"/><circle class="cls-4" cx="78.82" cy="37.85" r="0.94" transform="translate(-6.21 58.2) rotate(-39.11)"/><circle class="cls-4" cx="79.13" cy="45.03" r="0.49" transform="translate(-10.67 60.01) rotate(-39.11)"/><circle class="cls-4" cx="71.12" cy="45.93" r="0.13" transform="translate(-13.04 55.15) rotate(-39.11)"/><circle class="cls-4" cx="75.11" cy="52.25" r="0.63" transform="translate(-16.13 59.08) rotate(-39.11)"/><circle class="cls-4" cx="65.82" cy="56.94" r="2.99" transform="translate(-21.17 54.27) rotate(-39.11)"/><circle class="cls-4" cx="56.84" cy="63.64" r="0.18" transform="translate(-27.41 50.11) rotate(-39.11)"/><circle class="cls-4" cx="49.05" cy="63.53" r="0.14" transform="translate(-29.09 45.18) rotate(-39.11)"/><circle class="cls-4" cx="44.22" cy="67.03" r="0.15" transform="translate(-32.38 42.91) rotate(-39.11)"/><circle class="cls-4" cx="37.22" cy="63.03" r="1.58" transform="translate(-31.42 37.6) rotate(-39.11)"/><circle class="cls-3" cx="29.68" cy="58.26" r="0.66" transform="translate(-30.1 31.77) rotate(-39.11)"/><circle class="cls-3" cx="37.22" cy="77.4" r="0.66" transform="translate(-40.48 40.82) rotate(-39.11)"/><circle class="cls-4" cx="25.18" cy="54.98" r="0.48" transform="translate(-29.04 28.2) rotate(-39.11)"/><circle class="cls-3" cx="28" cy="47.04" r="0.84" transform="translate(-23.4 28.2) rotate(-39.11)"/><circle class="cls-4" cx="26.05" cy="40.55" r="0.13" transform="translate(-19.74 25.52) rotate(-39.11)"/><circle class="cls-4" cx="31.13" cy="38.31" r="0.09" transform="translate(-17.19 28.22) rotate(-39.11)"/><circle class="cls-4" cx="31.33" cy="32.11" r="0.21" transform="translate(-13.23 26.95) rotate(-39.11)"/><circle class="cls-4" cx="37.64" cy="27" r="1.21" transform="translate(-8.59 29.79) rotate(-39.11)"/><circle class="cls-4" cx="45.61" cy="29.16" r="0.74" transform="translate(-8.17 35.3) rotate(-39.11)"/><circle class="cls-4" cx="50.84" cy="26.14" r="0.03" transform="translate(-5.1 37.92) rotate(-39.11)"/><circle class="cls-4" cx="53.93" cy="30.23" r="0.17" transform="translate(-6.99 40.79) rotate(-39.11)"/></svg>