<svg id="Layer_1" data-name="Layer 1" xmlns="http://www.w3.org/2000/svg" viewBox="0 0 100 100"><defs><style>.cls-1{fill:#7d7d7d;}.cls-2{fill:#09a582;}.cls-3{fill:#3e3e3f;}</style></defs><title>scissors</title><path class="cls-1" d="M42.65,75.51a184.5,184.5,0,0,1-.84-19.92c0-3.33.18-6.66.33-10s.54-6.67,1-10l1.05-10.17a32,32,0,0,1,3-9.88l1.2-2.33c.46-.76.94-1.52,1.44-2.26s1-1.48,1.54-2.19A16.85,16.85,0,0,1,53.1,6.64a36.77,36.77,0,0,1,4-3.78A28.07,28.07,0,0,1,62,0l1.12.86a46.38,46.38,0,0,1-.5,5.3c-.17,1.67-.33,3.33-.59,4.87s-.41,3.16-.71,4.66l-.86,4.55a43.48,43.48,0,0,1-2.84,8.81,91,91,0,0,0-3.5,8.88c-1,3-1.86,6.12-2.76,9.22s-1.79,6.22-2.59,9.37c-1.7,6.28-3.24,12.65-4.75,19.06Z"/><path class="cls-1" d="M24,55.54c6.41-1.51,12.78-3,19.06-4.75,3.15-.8,6.27-1.69,9.37-2.59s6.19-1.74,9.22-2.76a91,91,0,0,0,8.88-3.5,43.48,43.48,0,0,1,8.81-2.84l4.55-.86c1.5-.3,3.15-.42,4.66-.71s3.19-.41,4.87-.59a46.38,46.38,0,0,1,5.3-.5l.86,1.12a28.07,28.07,0,0,1-2.85,4.92,36.77,36.77,0,0,1-3.78,4,16.85,16.85,0,0,1-2.09,1.73c-.71.54-1.45,1-2.19,1.54s-1.5,1-2.26,1.44l-2.33,1.2a32,32,0,0,1-9.88,3L64,56.48c-3.34.43-6.69.68-10,1s-6.68.29-10,.33a184.5,184.5,0,0,1-19.92-.84Z"/><path class="cls-2" d="M4.39,71.8a13.61,13.61,0,1,1,19.25,0A13.63,13.63,0,0,1,4.39,71.8Zm16.4-16.4a9.58,9.58,0,1,0,0,13.55A9.59,9.59,0,0,0,20.79,55.4Z"/><path class="cls-2" d="M28.61,96a13.61,13.61,0,1,1,19.25,0A13.63,13.63,0,0,1,28.61,96ZM45,79.62a9.58,9.58,0,1,0,0,13.55A9.59,9.59,0,0,0,45,79.62Z"/><circle class="cls-3" cx="46.46" cy="53.15" r="2.02" transform="translate(-23.98 48.42) rotate(-45)"/></svg>