<svg id="Layer_1" data-name="Layer 1" xmlns="http://www.w3.org/2000/svg" viewBox="0 0 100 100"><defs><style>.cls-1{fill:#ffc640;}.cls-2{fill:#f9a83f;}</style></defs><title>wheat</title><path class="cls-1" d="M32.39,53.43c3.4,4.53,3.31,12,3.31,12a11.79,11.79,0,0,1-9-4.41c-3.4-4.53-3.31-12-3.31-12A11.79,11.79,0,0,1,32.39,53.43Z"/><path class="cls-1" d="M39,53.43c-3.4,4.53-3.31,12-3.31,12a11.79,11.79,0,0,0,9-4.41C48.09,56.48,48,49,48,49A11.79,11.79,0,0,0,39,53.43Z"/><path class="cls-1" d="M32.39,43.11c3.4,4.53,3.31,12,3.31,12a11.79,11.79,0,0,1-9-4.41c-3.4-4.53-3.31-12-3.31-12A11.79,11.79,0,0,1,32.39,43.11Z"/><path class="cls-1" d="M39,43.11c-3.4,4.53-3.31,12-3.31,12a11.79,11.79,0,0,0,9-4.41c3.4-4.53,3.31-12,3.31-12A11.79,11.79,0,0,0,39,43.11Z"/><path class="cls-1" d="M32.39,32.79c3.4,4.53,3.31,12,3.31,12a11.79,11.79,0,0,1-9-4.41c-3.4-4.53-3.31-12-3.31-12A11.79,11.79,0,0,1,32.39,32.79Z"/><path class="cls-1" d="M39,32.79c-3.4,4.53-3.31,12-3.31,12a11.79,11.79,0,0,0,9-4.41c3.4-4.53,3.31-12,3.31-12A11.79,11.79,0,0,0,39,32.79Z"/><path class="cls-1" d="M32.39,22.47c3.4,4.53,3.31,12,3.31,12a11.79,11.79,0,0,1-9-4.41c-3.4-4.53-3.31-12-3.31-12A11.79,11.79,0,0,1,32.39,22.47Z"/><path class="cls-1" d="M39,22.47c-3.4,4.53-3.31,12-3.31,12a11.79,11.79,0,0,0,9-4.41c3.4-4.53,3.31-12,3.31-12A11.79,11.79,0,0,0,39,22.47Z"/><path class="cls-1" d="M32.39,12.15c3.4,4.53,3.31,12,3.31,12a11.79,11.79,0,0,1-9-4.41c-3.4-4.53-3.31-12-3.31-12A11.79,11.79,0,0,1,32.39,12.15Z"/><path class="cls-1" d="M39,12.15c-3.4,4.53-3.31,12-3.31,12a11.79,11.79,0,0,0,9-4.41c3.4-4.53,3.31-12,3.31-12A11.79,11.79,0,0,0,39,12.15Z"/><path class="cls-1" d="M30.6,32.71A110.39,110.39,0,0,0,35.7,65.42a110.39,110.39,0,0,0,5.11-32.71A110.39,110.39,0,0,0,35.7,0,110.39,110.39,0,0,0,30.6,32.71Z"/><rect class="cls-1" x="33.9" y="58.65" width="3.61" height="40.33" rx="0.86" ry="0.86"/><rect class="cls-1" x="62.49" y="58.65" width="3.61" height="40.33" rx="0.86" ry="0.86"/><path class="cls-2" d="M33.85,15.68a3.57,3.57,0,0,0-.75-.56A3.58,3.58,0,0,1,28.2,20a3.6,3.6,0,1,0,5.66-4.34Z"/><path class="cls-2" d="M43,20.78a3.57,3.57,0,0,0,.56-.75,3.58,3.58,0,0,1-4.9-4.9A3.6,3.6,0,1,0,43,20.78Z"/><path class="cls-2" d="M33.85,25.58A3.57,3.57,0,0,0,33.1,25a3.58,3.58,0,0,1-4.9,4.9,3.6,3.6,0,1,0,5.66-4.34Z"/><path class="cls-2" d="M43,30.68a3.57,3.57,0,0,0,.56-.75,3.58,3.58,0,0,1-4.9-4.9A3.6,3.6,0,1,0,43,30.68Z"/><path class="cls-2" d="M33.85,35.48a3.57,3.57,0,0,0-.75-.56,3.58,3.58,0,0,1-4.9,4.9,3.6,3.6,0,1,0,5.66-4.34Z"/><path class="cls-2" d="M43,40.58a3.57,3.57,0,0,0,.56-.75,3.58,3.58,0,0,1-4.9-4.9A3.6,3.6,0,1,0,43,40.58Z"/><path class="cls-2" d="M33.85,45.38a3.57,3.57,0,0,0-.75-.56,3.58,3.58,0,0,1-4.9,4.9,3.6,3.6,0,1,0,5.66-4.34Z"/><path class="cls-2" d="M43,50.48a3.57,3.57,0,0,0,.56-.75,3.58,3.58,0,0,1-4.9-4.9A3.6,3.6,0,1,0,43,50.48Z"/><path class="cls-1" d="M61.65,62.56c2.71,3.62,2.64,9.58,2.64,9.58a9.42,9.42,0,0,1-7.19-3.53C54.4,65,54.47,59,54.47,59A9.42,9.42,0,0,1,61.65,62.56Z"/><path class="cls-1" d="M66.94,62.56c-2.71,3.62-2.64,9.58-2.64,9.58a9.42,9.42,0,0,0,7.19-3.53C74.2,65,74.13,59,74.13,59A9.42,9.42,0,0,0,66.94,62.56Z"/><path class="cls-1" d="M61.65,54.31c2.71,3.62,2.64,9.58,2.64,9.58a9.42,9.42,0,0,1-7.19-3.53c-2.71-3.62-2.64-9.58-2.64-9.58A9.42,9.42,0,0,1,61.65,54.31Z"/><path class="cls-1" d="M66.94,54.31c-2.71,3.62-2.64,9.58-2.64,9.58a9.42,9.42,0,0,0,7.19-3.53c2.71-3.62,2.64-9.58,2.64-9.58A9.42,9.42,0,0,0,66.94,54.31Z"/><path class="cls-1" d="M61.65,46.06c2.71,3.62,2.64,9.58,2.64,9.58a9.42,9.42,0,0,1-7.19-3.53c-2.71-3.62-2.64-9.58-2.64-9.58A9.42,9.42,0,0,1,61.65,46.06Z"/><path class="cls-1" d="M66.94,46.06c-2.71,3.62-2.64,9.58-2.64,9.58a9.42,9.42,0,0,0,7.19-3.53c2.71-3.62,2.64-9.58,2.64-9.58A9.42,9.42,0,0,0,66.94,46.06Z"/><path class="cls-1" d="M61.65,37.81c2.71,3.62,2.64,9.58,2.64,9.58a9.42,9.42,0,0,1-7.19-3.53c-2.71-3.62-2.64-9.58-2.64-9.58A9.42,9.42,0,0,1,61.65,37.81Z"/><path class="cls-1" d="M66.94,37.81c-2.71,3.62-2.64,9.58-2.64,9.58a9.42,9.42,0,0,0,7.19-3.53c2.71-3.62,2.64-9.58,2.64-9.58A9.42,9.42,0,0,0,66.94,37.81Z"/><path class="cls-1" d="M61.65,29.55c2.71,3.62,2.64,9.58,2.64,9.58a9.42,9.42,0,0,1-7.19-3.53C54.4,32,54.47,26,54.47,26A9.42,9.42,0,0,1,61.65,29.55Z"/><path class="cls-1" d="M66.94,29.55c-2.71,3.62-2.64,9.58-2.64,9.58a9.42,9.42,0,0,0,7.19-3.53C74.2,32,74.13,26,74.13,26A9.42,9.42,0,0,0,66.94,29.55Z"/><path class="cls-1" d="M60.22,46A88.26,88.26,0,0,0,64.3,72.14,88.26,88.26,0,0,0,68.38,46,88.26,88.26,0,0,0,64.3,19.84,88.26,88.26,0,0,0,60.22,46Z"/><path class="cls-2" d="M62.82,32.38a2.85,2.85,0,0,0-.6-.45,2.87,2.87,0,0,1-3.92,3.92,2.88,2.88,0,1,0,4.52-3.47Z"/><path class="cls-2" d="M70.14,36.46a2.85,2.85,0,0,0,.45-.6,2.87,2.87,0,0,1-3.92-3.92,2.88,2.88,0,1,0,3.47,4.52Z"/><path class="cls-2" d="M62.82,40.3a2.85,2.85,0,0,0-.6-.45,2.87,2.87,0,0,1-3.92,3.92,2.88,2.88,0,1,0,4.52-3.47Z"/><path class="cls-2" d="M70.14,44.37a2.85,2.85,0,0,0,.45-.6,2.87,2.87,0,0,1-3.92-3.92,2.88,2.88,0,1,0,3.47,4.52Z"/><path class="cls-2" d="M62.82,48.21a2.85,2.85,0,0,0-.6-.45,2.87,2.87,0,0,1-3.92,3.92,2.88,2.88,0,1,0,4.52-3.47Z"/><path class="cls-2" d="M70.14,52.29a2.85,2.85,0,0,0,.45-.6,2.87,2.87,0,0,1-3.92-3.92,2.88,2.88,0,1,0,3.47,4.52Z"/><path class="cls-2" d="M62.82,56.13a2.85,2.85,0,0,0-.6-.45A2.87,2.87,0,0,1,58.3,59.6a2.88,2.88,0,1,0,4.52-3.47Z"/><path class="cls-2" d="M70.14,60.2a2.85,2.85,0,0,0,.45-.6,2.87,2.87,0,0,1-3.92-3.92,2.88,2.88,0,1,0,3.47,4.52Z"/><path class="cls-1" d="M38.52,92.91a4.15,4.15,0,0,1-5.88,5.88C31,97.16,20.89,81.15,20.89,81.15S36.9,91.29,38.52,92.91Z"/><path class="cls-1" d="M38.76,98.78a4.15,4.15,0,1,1-5.88-5.88c1.62-1.62,17.63-11.76,17.63-11.76S40.38,97.16,38.76,98.78Z"/><path class="cls-1" d="M67.11,92.91a4.15,4.15,0,0,1-5.88,5.88c-1.62-1.62-11.76-17.63-11.76-17.63S65.49,91.29,67.11,92.91Z"/><path class="cls-1" d="M67.36,98.78a4.15,4.15,0,1,1-5.88-5.88c1.62-1.62,17.63-11.76,17.63-11.76S69,97.16,67.36,98.78Z"/></svg>