<svg id="Layer_1" data-name="Layer 1" xmlns="http://www.w3.org/2000/svg" viewBox="0 0 100 100"><defs><style>.cls-1{fill:#4e322e;}.cls-2{fill:#3ab599;}.cls-3{fill:#007359;}.cls-4{fill:#055240;}.cls-5{fill:#09a380;}.cls-6{fill:#13c099;}</style></defs><title>land</title><rect class="cls-1" x="66.04" y="36.23" width="0.56" height="2.25"/><path class="cls-2" d="M64.36,34.83a2,2,0,1,0,3.94,0c0-2.53-.88-5.34-2-5.34S64.36,32.29,64.36,34.83Z"/><path class="cls-3" d="M65,34.82a.21.21,0,1,0,.35-.24c-.16-.22-.41-.41-.5-.35S64.85,34.6,65,34.82Z"/><path class="cls-3" d="M65.35,32.8a.21.21,0,1,0,.34.25c.16-.22.27-.52.17-.59S65.52,32.58,65.35,32.8Z"/><path class="cls-3" d="M65.95,31a.21.21,0,1,0,.39-.17c-.11-.25-.32-.49-.42-.44S65.84,30.7,65.95,31Z"/><path class="cls-3" d="M66.44,35.87a.21.21,0,0,0,.35.24c.16-.22.25-.52.16-.59S66.6,35.65,66.44,35.87Z"/><path class="cls-3" d="M67.2,34.11a.21.21,0,1,0,.36-.21c-.14-.23-.37-.45-.47-.39S67.06,33.88,67.2,34.11Z"/><path class="cls-3" d="M66.89,32.24a.21.21,0,0,0,.38.19c.12-.24.18-.55.07-.61S67,32,66.89,32.24Z"/><rect class="cls-1" x="71.57" y="36.47" width="0.56" height="2.25"/><path class="cls-2" d="M69.88,35.06a2,2,0,1,0,3.94,0c0-2.53-.88-5.34-2-5.34S69.88,32.53,69.88,35.06Z"/><path class="cls-3" d="M70.53,35.06a.21.21,0,0,0,.35-.24c-.16-.22-.41-.41-.5-.35S70.38,34.83,70.53,35.06Z"/><path class="cls-3" d="M70.88,33a.21.21,0,1,0,.34.25c.16-.22.27-.52.17-.59S71,32.82,70.88,33Z"/><path class="cls-3" d="M71.47,31.19a.21.21,0,0,0,.39-.17c-.11-.25-.32-.49-.42-.44S71.36,30.94,71.47,31.19Z"/><path class="cls-3" d="M72,36.1a.21.21,0,0,0,.35.24c.16-.22.25-.52.16-.59S72.13,35.88,72,36.1Z"/><path class="cls-3" d="M72.72,34.35a.21.21,0,1,0,.36-.21c-.14-.23-.37-.45-.47-.39S72.58,34.11,72.72,34.35Z"/><path class="cls-3" d="M72.41,32.47a.21.21,0,1,0,.38.19c.12-.24.18-.55.07-.61S72.54,32.23,72.41,32.47Z"/><rect class="cls-1" x="77.09" y="37.76" width="0.56" height="2.25"/><path class="cls-2" d="M75.41,36.35a2,2,0,0,0,3.94,0c0-2.53-.88-5.34-2-5.34S75.41,33.82,75.41,36.35Z"/><path class="cls-3" d="M76.06,36.35a.21.21,0,0,0,.35-.24c-.16-.22-.41-.41-.5-.35S75.9,36.12,76.06,36.35Z"/><path class="cls-3" d="M76.4,34.33a.21.21,0,1,0,.34.25c.16-.22.27-.52.17-.59S76.56,34.11,76.4,34.33Z"/><path class="cls-3" d="M77,32.48a.21.21,0,0,0,.39-.17c-.11-.25-.32-.49-.42-.44S76.89,32.23,77,32.48Z"/><path class="cls-3" d="M77.49,37.39a.21.21,0,0,0,.35.24c.16-.22.25-.52.16-.59S77.65,37.17,77.49,37.39Z"/><path class="cls-3" d="M78.24,35.64a.21.21,0,0,0,.36-.21c-.14-.23-.37-.45-.47-.39S78.11,35.4,78.24,35.64Z"/><path class="cls-3" d="M77.94,33.76a.21.21,0,0,0,.38.19c.12-.24.18-.55.07-.61S78.06,33.52,77.94,33.76Z"/><ellipse class="cls-4" cx="50" cy="66.04" rx="50" ry="4.48"/><path class="cls-2" d="M94.2,65.08c-.13-15-9.5-27.12-27-27.12S30.46,56.35,30.46,65.08Z"/><path class="cls-5" d="M4.92,65.25c.17-12.36,16.91-21.13,29.52-22.36C58.2,40.58,91.75,58.06,91.75,65.25Z"/><ellipse class="cls-3" cx="49.55" cy="65.11" rx="44.64" ry="3.13"/><rect class="cls-1" x="21.43" y="50.46" width="1.14" height="4.57"/><path class="cls-6" d="M18,47.6a4,4,0,0,0,8,0c0-5.14-1.79-10.85-4-10.85S18,42.46,18,47.6Z"/><path class="cls-3" d="M19.32,47.59a.43.43,0,0,0,.7-.49c-.32-.45-.83-.84-1-.7S19,47.14,19.32,47.59Z"/><path class="cls-3" d="M20,43.49a.43.43,0,0,0,.69.51c.33-.44.54-1,.35-1.19S20.35,43,20,43.49Z"/><path class="cls-3" d="M21.23,39.73a.43.43,0,1,0,.79-.35c-.22-.5-.64-1-.86-.89S21,39.23,21.23,39.73Z"/><path class="cls-3" d="M22.24,49.72a.43.43,0,0,0,.7.49c.32-.45.51-1.06.32-1.2S22.56,49.27,22.24,49.72Z"/><path class="cls-3" d="M23.76,46.15a.43.43,0,0,0,.74-.44c-.28-.48-.76-.91-1-.79S23.48,45.68,23.76,46.15Z"/><path class="cls-3" d="M23.14,42.34a.43.43,0,0,0,.77.39c.25-.49.36-1.13.14-1.23S23.39,41.85,23.14,42.34Z"/><rect class="cls-1" x="32.14" y="46.79" width="1.14" height="4.57"/><path class="cls-6" d="M28.71,43.94a4,4,0,1,0,8,0c0-5.14-1.79-10.85-4-10.85S28.71,38.8,28.71,43.94Z"/><path class="cls-3" d="M30,43.93a.43.43,0,0,0,.7-.49c-.32-.45-.83-.84-1-.7S29.72,43.48,30,43.93Z"/><path class="cls-3" d="M30.74,39.82a.43.43,0,0,0,.69.51c.33-.44.54-1,.35-1.19S31.07,39.38,30.74,39.82Z"/><path class="cls-3" d="M31.95,36.07a.43.43,0,1,0,.79-.35c-.22-.5-.64-1-.86-.89S31.72,35.57,31.95,36.07Z"/><path class="cls-3" d="M33,46.05a.43.43,0,0,0,.7.49c.32-.45.51-1.06.32-1.2S33.27,45.6,33,46.05Z"/><path class="cls-3" d="M34.48,42.49a.43.43,0,0,0,.74-.44c-.28-.48-.76-.91-1-.79S34.2,42,34.48,42.49Z"/><path class="cls-3" d="M33.85,38.68a.43.43,0,1,0,.77.39c.25-.49.36-1.13.14-1.23S34.1,38.19,33.85,38.68Z"/><path class="cls-3" d="M94.19,65.11C94,54.48,88.39,45.89,63.84,45.89S4.92,58.93,4.92,65.11Z"/><path class="cls-5" d="M47.54,43c0-.51-.21-1-.72-1h0c-.06-.42-.28-.83-.69-.85a1.23,1.23,0,0,0-1.22.77l-.23,0c-.51,0-.8.43-.83.94a.93.93,0,0,0,.84,1h0l1.95.11h0A.93.93,0,0,0,47.54,43Z"/><path class="cls-3" d="M86.59,49.3a1.6,1.6,0,0,0-.88-2.16l-.07,0c.07-.79-.16-1.61-.89-1.83a2.29,2.29,0,0,0-2.53.89,1.88,1.88,0,0,0-.41-.18c-.92-.27-1.63.44-1.89,1.35A1.73,1.73,0,0,0,81,49.49h0l3.47,1h0A1.73,1.73,0,0,0,86.59,49.3Z"/><path class="cls-5" d="M44.41,42.58c0-.72-.37-1.37-1.08-1.37h-.06c-.11-.58-.45-1.13-1-1.13a1.72,1.72,0,0,0-1.64,1.17,1.41,1.41,0,0,0-.33,0c-.72,0-1.08.66-1.08,1.37a1.3,1.3,0,0,0,1.25,1.29h2.71A1.3,1.3,0,0,0,44.41,42.58Z"/><path class="cls-5" d="M55.24,44.94c0-.72-.37-1.37-1.08-1.37H54.1c-.11-.58-.45-1.13-1-1.13a1.72,1.72,0,0,0-1.64,1.17,1.41,1.41,0,0,0-.33,0c-.72,0-1.08.66-1.08,1.37a1.3,1.3,0,0,0,1.25,1.29H54A1.3,1.3,0,0,0,55.24,44.94Z"/><circle class="cls-5" cx="61.34" cy="50.55" r="1.18"/><circle class="cls-5" cx="70.73" cy="51.59" r="1.2"/><circle class="cls-5" cx="46.77" cy="51.56" r="1.1"/><circle class="cls-5" cx="87.33" cy="59.73" r="1.12"/><circle class="cls-5" cx="16.2" cy="61.14" r="0.85"/><circle class="cls-5" cx="29.58" cy="57.28" r="1.23"/><circle class="cls-5" cx="47.28" cy="61.14" r="0.85"/><circle class="cls-5" cx="60.16" cy="59.38" r="0.86"/><circle class="cls-5" cx="73.4" cy="62.57" r="1.01"/><circle class="cls-5" cx="82.16" cy="51.59" r="0.8"/></svg>