<svg id="Layer_1" data-name="Layer 1" xmlns="http://www.w3.org/2000/svg" viewBox="0 0 100 100"><defs><style>.cls-1{fill:#ffc640;}</style></defs><title>energy</title><polyline class="cls-1" points="33.81 52.69 44.77 52.69 29.99 79.74 72.48 43.42 55.2 43.42 68.9 25.64 50.78 25.64"/><path class="cls-1" d="M51.23,99.08a48.74,48.74,0,0,1-15-2.36,5.05,5.05,0,1,1,3.11-9.61,39.11,39.11,0,0,0,23.89,0,5.05,5.05,0,1,1,3.13,9.61A48.78,48.78,0,0,1,51.23,99.08Zm-35.33-18A5,5,0,0,1,11.82,79,48.41,48.41,0,0,1,2.46,50.41a5.05,5.05,0,0,1,5-5.06h0a5.05,5.05,0,0,1,5.05,5A38.37,38.37,0,0,0,20,73.08a5.05,5.05,0,0,1-4.08,8ZM86.61,81a5.05,5.05,0,0,1-4.08-8,38.37,38.37,0,0,0,7.37-22.71,5.13,5.13,0,0,1,5.05-5.14,5,5,0,0,1,5.05,5v.18A48.41,48.41,0,0,1,90.7,79,5,5,0,0,1,86.61,81ZM15.8,29.75a5.05,5.05,0,0,1-4.09-8A49.19,49.19,0,0,1,36,4a5.05,5.05,0,0,1,3.15,9.6,39,39,0,0,0-19.29,14.1A5,5,0,0,1,15.8,29.75Zm70.71-.22a5,5,0,0,1-4.08-2.07,39,39,0,0,0-19.37-14,5.05,5.05,0,0,1,3.09-9.62A49.17,49.17,0,0,1,90.58,21.5a5.05,5.05,0,0,1-4.07,8Z"/><path class="cls-1" d="M37.51,3.64v9.63a2.71,2.71,0,0,0,4.24,2.23l7-4.81a2.71,2.71,0,0,0,0-4.46l-7-4.81A2.71,2.71,0,0,0,37.51,3.64Z"/><path class="cls-1" d="M90.87,22l-7.77,5.68a2.71,2.71,0,0,0,.7,4.74l8,2.81a2.71,2.71,0,0,0,3.6-2.63l-.25-8.5A2.71,2.71,0,0,0,90.87,22Z"/><path class="cls-1" d="M89.24,81.22l-5.68-7.77a2.71,2.71,0,0,0-4.74.7l-2.81,8a2.71,2.71,0,0,0,2.63,3.6l8.5-.25A2.71,2.71,0,0,0,89.24,81.22Z"/><path class="cls-1" d="M34.41,95.88l4-8.77a2.71,2.71,0,0,0-2.94-3.78l-8.37,1.48a2.71,2.71,0,0,0-1.85,4.06l4.39,7.28A2.71,2.71,0,0,0,34.41,95.88Z"/><path class="cls-1" d="M2.56,49.57l9.61.54A2.71,2.71,0,0,0,14.64,46l-4.42-7.26a2.71,2.71,0,0,0-4.45-.25L.57,45.22A2.71,2.71,0,0,0,2.56,49.57Z"/></svg>