<svg id="Layer_1" data-name="Layer 1" xmlns="http://www.w3.org/2000/svg" viewBox="0 0 100 100"><defs><style>.cls-1{fill:#069274;}.cls-2{fill:#2b3514;}.cls-3{fill:#b2ae4f;}.cls-4{fill:#d5b949;}.cls-5{fill:#586337;}.cls-6{fill:#6d7a45;}.cls-7{fill:#faaf40;}.cls-8{fill:#895e59;}.cls-9{fill:#09a582;}.cls-10{fill:#089a7a;}</style></defs><title>swamp</title><ellipse class="cls-1" cx="66.37" cy="59.39" rx="32.52" ry="6.8"/><ellipse class="cls-1" cx="32.52" cy="60.73" rx="32.52" ry="8.45"/><ellipse class="cls-1" cx="62.12" cy="69.86" rx="37.88" ry="8.08"/><ellipse class="cls-1" cx="48.97" cy="53.34" rx="32.52" ry="6.8"/><path class="cls-2" d="M16.56,60.54l-.42,0c-2.19.19-4.09-2.08-4.23-5l-.31-6.48c-.14-3,1.54-5.54,3.72-5.73l.42,0c2.19-.19,4.09,2.08,4.23,5l.31,6.48C20.42,57.78,18.75,60.35,16.56,60.54Z"/><polyline class="cls-2" points="11.54 47.76 11.16 39.61 13.43 43.4 15.34 39.23 17.64 43.07 19.53 38.94 19.92 47.03"/><ellipse class="cls-3" cx="31.02" cy="59.77" rx="27.21" ry="6.43"/><ellipse class="cls-3" cx="52.94" cy="53.34" rx="23.05" ry="3.66"/><ellipse class="cls-3" cx="63.54" cy="68.06" rx="32.52" ry="6.8"/><path class="cls-4" d="M28.94,61.68a24.2,24.2,0,0,1-12.36,0,6.18,6.18,0,1,1,12.36,0Z"/><path class="cls-4" d="M66.61,66.9a11,11,0,0,1-5.88,0,3,3,0,1,1,5.88,0Z"/><path class="cls-1" d="M44.47,66c0,1.16-1.45,2.1-3.24,2.1S38,67.12,38,66s1.45-5,3.24-5S44.47,64.8,44.47,66Z"/><path class="cls-1" d="M48,66.78c0,.71-.89,1.29-2,1.29s-2-.58-2-1.29.89-3.06,2-3.06S48,66.07,48,66.78Z"/><path class="cls-1" d="M47.08,64.91c0,.71-.89,1.29-2,1.29s-2-.58-2-1.29.89-3.06,2-3.06S47.08,64.2,47.08,64.91Z"/><path class="cls-1" d="M50.17,65.12c0,.71-.89,1.29-2,1.29s-2-.58-2-1.29.89-3.06,2-3.06S50.17,64.41,50.17,65.12Z"/><path class="cls-1" d="M55.33,67.29c0,.71-2.17,1.29-4.85,1.29s-4.85-.58-4.85-1.29,2.17-3.06,4.85-3.06S55.33,66.58,55.33,67.29Z"/><polyline class="cls-2" points="24.87 43.53 20.35 41.8 22.99 40.52 22.47 38.02 23.91 36.24 22.16 33.28 26.65 35.01"/><path class="cls-2" d="M66.95,49.16,30.65,35.24c-2.11-.81-4.32.87-4.92,3.72l-.11.54c-.6,2.86.64,5.86,2.75,6.66l14.18,5.44H69.28A4.41,4.41,0,0,0,66.95,49.16Z"/><path class="cls-5" d="M26.62,39.8C26.1,42.28,25,44,24.1,43.68s-1.16-2.61-.64-5.08S25.1,34.39,26,34.72,27.13,37.33,26.62,39.8Z"/><path class="cls-6" d="M26.34,39.7c-.43,2-1.35,3.46-2.07,3.19s-1-2.15-.53-4.19,1.35-3.46,2.07-3.19S26.76,37.66,26.34,39.7Z"/><path class="cls-5" d="M26.1,39.74c-.36,1.71-1.13,2.9-1.74,2.67s-.8-1.8-.44-3.51,1.13-2.9,1.74-2.67S26.46,38,26.1,39.74Z"/><path class="cls-6" d="M25.74,39.58c-.29,1.4-.88,2.4-1.32,2.24s-.55-1.44-.26-2.84.88-2.4,1.32-2.24S26,38.18,25.74,39.58Z"/><path class="cls-5" d="M25.59,39.62c-.25,1.18-.74,2-1.11,1.88s-.46-1.21-.22-2.38.74-2,1.11-1.88S25.84,38.44,25.59,39.62Z"/><polyline class="cls-2" points="28.01 46.04 21.87 43.68 25.43 42.11 24.68 38.87 26.61 36.62 24.19 32.77 30.3 35.11"/><path class="cls-7" d="M60.58,59.09c-3.55-5.34-1.3-16.73-1.2-17.21l2.46.5c-.61,3-1.64,11.62.83,15.33Z"/><path class="cls-8" d="M61,43h0a3.72,3.72,0,0,1-3.16-4.24l2.35-13.62a3.84,3.84,0,0,1,4.42-3h0a3.72,3.72,0,0,1,3.16,4.24L65.38,40A3.84,3.84,0,0,1,61,43Z"/><path class="cls-7" d="M62.81,59.47c-1.83-5,1.59-14.14,1.73-14.53l1.9.72c0,.09-3.3,8.84-1.73,13.11Z"/><path class="cls-8" d="M65.62,46.1h0A3.24,3.24,0,0,1,63.9,42L67.75,31a2.89,2.89,0,0,1,3.78-1.85h0a3.24,3.24,0,0,1,1.72,4.06L69.4,44.25A2.89,2.89,0,0,1,65.62,46.1Z"/><path class="cls-9" d="M63.25,59.82l1.46-2.26-.18-4.19a5.67,5.67,0,0,0-1.5,1.4,5.3,5.3,0,0,0-.39.72l.17,3.89A2.3,2.3,0,0,0,63.25,59.82Z"/><path class="cls-9" d="M62.81,59.38l-.17-3.89A3.9,3.9,0,0,0,62.81,59.38Z"/><path class="cls-10" d="M65.43,56.45l-.15-3.56c-.26.16-.51.32-.75.49l.18,4.19Z"/><path class="cls-9" d="M66.62,54.61l-.1-2.42c-.41.21-.83.45-1.24.7l.15,3.56Z"/><path class="cls-10" d="M68.91,51.07s-1.11.45-2.39,1.11l.1,2.42Z"/><path class="cls-1" d="M67.73,58.29c1.18-1.82,1.18-7.21,1.18-7.21l-5.66,8.75C64.54,60.79,66.55,60.1,67.73,58.29Z"/><path class="cls-9" d="M61.24,59.78,59.9,57.65l-3.46-1.24a5.81,5.81,0,0,0,.63,1.88,4.81,4.81,0,0,0,.45.61L60.74,60A2,2,0,0,0,61.24,59.78Z"/><path class="cls-9" d="M60.74,60l-3.21-1.15A3.06,3.06,0,0,0,60.74,60Z"/><path class="cls-10" d="M59.24,56.6l-2.94-1.05c0,.29.09.58.14.86l3.46,1.24Z"/><path class="cls-9" d="M58.14,54.86l-2-.71c0,.45.08.93.15,1.4l2.94,1.05Z"/><path class="cls-10" d="M56,51.53s0,1.19.1,2.62l2,.71Z"/><path class="cls-1" d="M61.5,55.06C60.42,53.35,56,51.53,56,51.53l5.2,8.24C62.46,58.89,62.58,56.77,61.5,55.06Z"/><polyline class="cls-2" points="38.35 39.94 41.64 35.26 40 31.35 43.11 34.95 42.28 40.63"/><path class="cls-3" d="M46.2,52.47a7.1,7.1,0,0,1-4.7,0c0-1.76,1.05-3.19,2.35-3.19S46.2,50.71,46.2,52.47Z"/><path class="cls-3" d="M53.83,51.91a4.24,4.24,0,0,1-2.81,0c0-1.05.63-1.9,1.41-1.9S53.83,50.86,53.83,51.91Z"/><path class="cls-4" d="M47.76,48.34a10,10,0,0,1-5.6,1.5,10,10,0,0,1-5.6-1.5,6.77,6.77,0,0,0-1.63,4.37,30.23,30.23,0,0,0,14.47,0A6.77,6.77,0,0,0,47.76,48.34Z"/><ellipse class="cls-4" cx="36.61" cy="45.89" rx="0.56" ry="0.54"/><ellipse class="cls-4" cx="41.69" cy="43.33" rx="1.25" ry="1.21"/><ellipse class="cls-4" cx="44.74" cy="46.72" rx="0.3" ry="0.29"/><ellipse class="cls-4" cx="42.02" cy="47.71" rx="0.33" ry="0.32"/><ellipse class="cls-4" cx="52.64" cy="45.02" rx="0.92" ry="0.89"/><polygon class="cls-1" points="63.86 75.94 67.68 75.94 65.77 69.86 63.86 75.94"/><polygon class="cls-1" points="66.73 75.94 70.56 75.94 68.64 69.86 66.73 75.94"/><polygon class="cls-1" points="69.61 75.94 73.43 75.94 71.52 69.86 69.61 75.94"/><polyline class="cls-2" points="81.76 60.3 83.7 57.44 84.16 59.48 85.98 59.53 86.98 60.82 89.32 60.08 87.39 62.93"/><path class="cls-2" d="M86.58,65.66c.91-1.33.1-3.14-1.78-4l-.36-.17c-1.89-.88-4.17-.51-5.08.82l-3.48,5.12h9.51Z"/><path class="cls-5" d="M84.07,62.12c-1.63-.76-2.65-1.83-2.28-2.38s2-.38,3.64.38S88.08,62,87.7,62.5,85.7,62.88,84.07,62.12Z"/><path class="cls-6" d="M84.19,61.94c-1.34-.63-2.19-1.5-1.88-2s1.65-.31,3,.32,2.19,1.5,1.88,2S85.53,62.57,84.19,61.94Z"/><path class="cls-5" d="M84.2,61.77c-1.13-.53-1.83-1.26-1.57-1.64s1.38-.26,2.51.26S87,61.66,86.7,62,85.32,62.3,84.2,61.77Z"/><path class="cls-6" d="M84.37,61.54c-.93-.43-1.53-1-1.34-1.28s1.09-.15,2,.28,1.53,1,1.34,1.28S85.29,62,84.37,61.54Z"/><path class="cls-5" d="M84.36,61.44c-.78-.36-1.28-.84-1.12-1.07s.91-.12,1.69.24,1.28.84,1.12,1.07S85.14,61.8,84.36,61.44Z"/><polyline class="cls-2" points="79.51 62.07 82.15 58.19 82.66 60.92 85.03 60.93 86.28 62.63 89.35 61.58 86.73 65.44"/></svg>