<svg id="Layer_1" data-name="Layer 1" xmlns="http://www.w3.org/2000/svg" viewBox="0 0 100 100"><defs><style>.cls-1{fill:#6ab8d9;}.cls-2{fill:#8ac1db;}.cls-3{fill:#a2c9dc;}.cls-4{fill:#bcd2de;}.cls-5{fill:#fff;}.cls-6{fill:#ebf7fd;}.cls-7{fill:#a8d5eb;}</style></defs><title>sky</title><path class="cls-1" d="M85.72,6.22l0-.26H11.7l0,.19a4.93,4.93,0,0,0-7.5,4.35v60h89.1v-60A4.93,4.93,0,0,0,85.72,6.22Z"/><rect class="cls-2" x="4.24" y="68.37" width="89.1" height="8.22"/><rect class="cls-3" x="4.24" y="74.45" width="89.1" height="11.63"/><path class="cls-4" d="M4.24,84.06v5.6a4.92,4.92,0,0,0,4.92,4.92H88.41a4.92,4.92,0,0,0,4.92-4.92v-5.6Z"/><rect class="cls-5" y="40.7" width="44" height="12.9" rx="2.85" ry="2.85"/><circle class="cls-5" cx="13.33" cy="39.89" r="8.86"/><circle class="cls-5" cx="26.78" cy="40.7" r="5.78"/><rect class="cls-6" x="4.38" y="50.25" width="34.87" height="3.37" rx="0.75" ry="0.75"/><path class="cls-6" d="M7.34,49.22a3.56,3.56,0,0,1-1.69.47A3.56,3.56,0,0,1,4,49.22a3.56,3.56,0,0,1,1.69-.47A3.56,3.56,0,0,1,7.34,49.22Z"/><path class="cls-6" d="M13.81,49.22a3.56,3.56,0,0,1-1.69.47,3.56,3.56,0,0,1-1.69-.47,3.56,3.56,0,0,1,1.69-.47A3.56,3.56,0,0,1,13.81,49.22Z"/><path class="cls-6" d="M20.28,49.22a3.27,3.27,0,0,1-3.39,0,3.27,3.27,0,0,1,3.39,0Z"/><path class="cls-6" d="M26.74,49.22a3.27,3.27,0,0,1-3.39,0,3.27,3.27,0,0,1,3.39,0Z"/><path class="cls-6" d="M33.21,49.22a3.27,3.27,0,0,1-3.39,0,3.27,3.27,0,0,1,3.39,0Z"/><path class="cls-6" d="M39.68,49.22a3.27,3.27,0,0,1-3.39,0,3.27,3.27,0,0,1,3.39,0Z"/><path class="cls-7" d="M10.42,51.39a3.56,3.56,0,0,1-1.69.47A3.56,3.56,0,0,1,7,51.39a3.56,3.56,0,0,1,1.69-.47A3.56,3.56,0,0,1,10.42,51.39Z"/><path class="cls-7" d="M16.89,51.39a3.56,3.56,0,0,1-1.69.47,3.56,3.56,0,0,1-1.69-.47,3.56,3.56,0,0,1,1.69-.47A3.56,3.56,0,0,1,16.89,51.39Z"/><path class="cls-7" d="M23.36,51.39a3.27,3.27,0,0,1-3.39,0,3.27,3.27,0,0,1,3.39,0Z"/><path class="cls-7" d="M29.82,51.39a3.27,3.27,0,0,1-3.39,0,3.27,3.27,0,0,1,3.39,0Z"/><path class="cls-7" d="M36.29,51.39a3.27,3.27,0,0,1-3.39,0,3.27,3.27,0,0,1,3.39,0Z"/><rect class="cls-5" x="54.05" y="57.87" width="19.42" height="5.69" rx="1.26" ry="1.26" transform="translate(127.53 121.43) rotate(-180)"/><circle class="cls-5" cx="67.59" cy="57.51" r="3.91"/><circle class="cls-5" cx="61.66" cy="57.87" r="2.55"/><rect class="cls-6" x="56.15" y="62.08" width="15.39" height="1.49" rx="0.33" ry="0.33" transform="translate(127.7 125.65) rotate(180)"/><path class="cls-6" d="M70.23,61.63a1.45,1.45,0,0,0,1.5,0,1.45,1.45,0,0,0-1.5,0Z"/><path class="cls-6" d="M67.38,61.63a1.45,1.45,0,0,0,1.5,0,1.45,1.45,0,0,0-1.5,0Z"/><path class="cls-6" d="M64.53,61.63a1.45,1.45,0,0,0,1.5,0,1.45,1.45,0,0,0-1.5,0Z"/><path class="cls-6" d="M61.67,61.63a1.45,1.45,0,0,0,1.5,0,1.45,1.45,0,0,0-1.5,0Z"/><path class="cls-6" d="M58.82,61.63a1.45,1.45,0,0,0,1.5,0,1.45,1.45,0,0,0-1.5,0Z"/><path class="cls-6" d="M56,61.63a1.45,1.45,0,0,0,1.5,0,1.45,1.45,0,0,0-1.5,0Z"/><path class="cls-7" d="M68.88,62.59a1.45,1.45,0,0,0,1.5,0,1.45,1.45,0,0,0-1.5,0Z"/><path class="cls-7" d="M66,62.59a1.45,1.45,0,0,0,1.5,0,1.45,1.45,0,0,0-1.5,0Z"/><path class="cls-7" d="M63.17,62.59a1.45,1.45,0,0,0,1.5,0,1.45,1.45,0,0,0-1.5,0Z"/><path class="cls-7" d="M60.31,62.59a1.45,1.45,0,0,0,1.5,0,1.45,1.45,0,0,0-1.5,0Z"/><path class="cls-7" d="M57.46,62.59a1.45,1.45,0,0,0,1.5,0,1.45,1.45,0,0,0-1.5,0Z"/><rect class="cls-5" x="59.69" y="19.7" width="40.31" height="8.29" rx="1.83" ry="1.83"/><circle class="cls-5" cx="66.65" cy="18.79" r="5.7"/><circle class="cls-5" cx="74.7" cy="19.34" r="3.72"/><circle class="cls-5" cx="86.29" cy="20.77" r="3.72"/><rect class="cls-6" x="62.54" y="25.83" width="34.4" height="2.17" rx="0.48" ry="0.48"/><path class="cls-6" d="M76.43,25.17a2.11,2.11,0,0,1-2.18,0,2.11,2.11,0,0,1,2.18,0Z"/><path class="cls-6" d="M80.59,25.17a2.11,2.11,0,0,1-2.18,0,2.11,2.11,0,0,1,2.18,0Z"/><path class="cls-6" d="M84.75,25.17a2.11,2.11,0,0,1-2.18,0,2.11,2.11,0,0,1,2.18,0Z"/><path class="cls-6" d="M88.91,25.17a2.11,2.11,0,0,1-2.18,0,2.11,2.11,0,0,1,2.18,0Z"/><path class="cls-6" d="M93.06,25.17a2.11,2.11,0,0,1-2.18,0,2.11,2.11,0,0,1,2.18,0Z"/><path class="cls-6" d="M97.22,25.17a2.11,2.11,0,0,1-2.18,0,2.11,2.11,0,0,1,2.18,0Z"/><path class="cls-7" d="M78.41,26.57a2.11,2.11,0,0,1-2.18,0,2.11,2.11,0,0,1,2.18,0Z"/><path class="cls-6" d="M72.28,25.17a2.11,2.11,0,0,1-2.18,0,2.11,2.11,0,0,1,2.18,0Z"/><path class="cls-7" d="M74.26,26.57a2.11,2.11,0,0,1-2.18,0,2.11,2.11,0,0,1,2.18,0Z"/><path class="cls-6" d="M68.12,25.17a2.11,2.11,0,0,1-2.18,0,2.11,2.11,0,0,1,2.18,0Z"/><path class="cls-7" d="M70.1,26.57a2.11,2.11,0,0,1-2.18,0,2.11,2.11,0,0,1,2.18,0Z"/><path class="cls-6" d="M64,25.17a2.11,2.11,0,0,1-2.18,0,2.11,2.11,0,0,1,2.18,0Z"/><path class="cls-7" d="M65.94,26.57a2.11,2.11,0,0,1-2.18,0,2.11,2.11,0,0,1,2.18,0Z"/><path class="cls-7" d="M82.57,26.57a2.11,2.11,0,0,1-2.18,0,2.11,2.11,0,0,1,2.18,0Z"/><path class="cls-7" d="M86.73,26.57a2.11,2.11,0,0,1-2.18,0,2.11,2.11,0,0,1,2.18,0Z"/><path class="cls-7" d="M90.89,26.57a2.11,2.11,0,0,1-2.18,0,2.11,2.11,0,0,1,2.18,0Z"/><path class="cls-7" d="M95,26.57a2.11,2.11,0,0,1-2.18,0,2.11,2.11,0,0,1,2.18,0Z"/><rect class="cls-1" x="8.99" y="5.41" width="79.92" height="2.44"/></svg>