<svg id="Layer_1" data-name="Layer 1" xmlns="http://www.w3.org/2000/svg" viewBox="0 0 100 100"><defs><style>.cls-1{fill:#a35323;}.cls-2{fill:#b95f2b;}.cls-3{fill:#b15b28;}</style></defs><title>brick</title><rect class="cls-1" y="33.89" width="38.19" height="31.97"/><rect class="cls-2" x="27.23" y="33.89" width="72.77" height="31.97"/><circle class="cls-1" cx="35.36" cy="40.42" r="1.55"/><circle class="cls-1" cx="40.91" cy="49.58" r="1.55"/><circle class="cls-1" cx="65.92" cy="49.58" r="1.55"/><circle class="cls-1" cx="90.92" cy="49.58" r="1.55"/><circle class="cls-1" cx="47.55" cy="40.42" r="1.55"/><circle class="cls-1" cx="71.94" cy="40.42" r="1.55"/><circle class="cls-1" cx="59.04" cy="40.42" r="1.55"/><circle class="cls-1" cx="84.14" cy="40.42" r="1.55"/><circle class="cls-1" cx="96.33" cy="40.42" r="1.55"/><path class="cls-3" d="M53.9,36.83c-.37,1.75-.86,3.45-1.38,5.14l-.15-.7c1.07.89,2.13,1.78,3.15,2.71l.94.85-1.2.59c-1,.48-2,.89-3,1.34l.13-.07c-1.4.89-2.8,1.77-4.24,2.59l.4-.73c0,1.18-.11,2.36-.19,3.54l-.15-.43c1.08,1.55,2.14,3.12,3.08,4.78-1.46-1.24-2.8-2.57-4.12-3.93l-.13-.14,0-.29c-.08-1.18-.16-2.36-.19-3.54v-.44l.42-.29c1.36-.95,2.76-1.84,4.16-2.72l.07,0,.06,0c1-.41,2-.84,3-1.21l-.26,1.43c-1-1-1.91-2-2.84-3l-.33-.36.17-.34C52.13,39.91,53,38.34,53.9,36.83Z"/><path class="cls-3" d="M56.76,51.51A7.73,7.73,0,0,1,56,49.32l.32.6a12,12,0,0,1-2.56-1.51l.3.13a11.65,11.65,0,0,1-1.91-.75l-.76-.36.29-.46a7.85,7.85,0,0,1,1.16-1.5A7.87,7.87,0,0,1,53,47.36l-.47-.83a11.66,11.66,0,0,1,2,.21l.12,0,.19.11a12,12,0,0,1,2.34,1.83l.37.36,0,.24A7.73,7.73,0,0,1,56.76,51.51Z"/><path class="cls-3" d="M39.22,66.11a21.21,21.21,0,0,1-.73-3.83l.32.6a36.41,36.41,0,0,1-4.39-2.76l.3.13a34.83,34.83,0,0,1-3.38-1.1l-.74-.28.27-.55a21.12,21.12,0,0,1,1.56-2.76,21.11,21.11,0,0,1-.32,3.15l-.47-.83a34.87,34.87,0,0,1,3.51.57l.14,0,.17.1a36.45,36.45,0,0,1,4.17,3.08L40,62l0,.3A21.18,21.18,0,0,1,39.22,66.11Z"/><path class="cls-3" d="M81.95,35.11c-.79,1.63-1.69,3.18-2.61,4.71l.1-.2c-.52,2.44-1.13,4.85-1.81,7.25l-.06.21-.16.17c-2.09,2.24-4.24,4.42-6.52,6.48l0-.85C71.92,54,73,55.2,73.94,56.46c-1.35-.84-2.63-1.75-3.88-2.69l-.44-.33.4-.51c1.89-2.42,3.92-4.72,6-7l-.22.38c.71-2.38,1.49-4.75,2.37-7.08l.06-.15,0,0C79.46,37.71,80.64,36.37,81.95,35.11Z"/><path class="cls-3" d="M77.35,44.47a73.42,73.42,0,0,1,5.8,5.2l.55.54-.63.57a129.16,129.16,0,0,1-10.51,8.63l.2-.25a74.57,74.57,0,0,1-4.28,6.7,74.51,74.51,0,0,1,2.89-7.4l0-.11.15-.14A129.2,129.2,0,0,1,82.1,49.59L82,50.7A73.36,73.36,0,0,1,77.35,44.47Z"/></svg>