<svg id="Layer_1" data-name="Layer 1" xmlns="http://www.w3.org/2000/svg" viewBox="0 0 100 100"><defs><style>.cls-1{fill:#fff;}</style></defs><title>snow</title><path class="cls-1" d="M7.84,29.95l11.08,6.4-8.15,2.19a3.48,3.48,0,1,0,1.8,6.72l14.3-3.83a3.74,3.74,0,0,0,.5-.2l15.65,9h.09l.09.06L27.93,59.13a3.43,3.43,0,0,0-.92-.46l-14.3-3.83a3.48,3.48,0,0,0-1.8,6.73l8.74,2.34L8.19,70.53a3.48,3.48,0,1,0,3.49,6l11.07-6.39-2.18,8.15a3.48,3.48,0,1,0,6.73,1.8l3.83-14.3a2.66,2.66,0,0,0,0-.5l15.63-9V73.73a3.35,3.35,0,0,0-.85.57L35.47,84.77a3.48,3.48,0,1,0,4.93,4.92l6.4-6.4V96.52a3.48,3.48,0,1,0,7,0V83.72l6,6a3.49,3.49,0,0,0,4.2.56,3.62,3.62,0,0,0,.72-.56,3.48,3.48,0,0,0,0-4.92L54.18,74.3a3.32,3.32,0,0,0-.42-.28V56.4L69,65.21a3.66,3.66,0,0,0,0,.51L72.87,80a3.48,3.48,0,0,0,4.26,2.46,3.43,3.43,0,0,0,.84-.35,3.49,3.49,0,0,0,1.62-3.92l-2.19-8.15,11.08,6.4a3.48,3.48,0,0,0,3.48-6L80.52,63.82l8.74-2.34a3.45,3.45,0,0,0,.84-.35,3.48,3.48,0,0,0-2.64-6.38l-14.3,3.83a3.36,3.36,0,0,0-.92.46l-15.1-8.72.1-.06h-.08l15.52-9a3.79,3.79,0,0,0,.45.23l14.3,3.83a3.48,3.48,0,0,0,1.8-6.73l-8.14-2.18L92.16,30a3.48,3.48,0,0,0-3.49-6L77.23,30.62l2.34-8.74a3.48,3.48,0,1,0-6.73-1.8L69,34.37a3.35,3.35,0,0,0-.06,1L53.67,44.22V26a3.35,3.35,0,0,0,.42-.32L64.56,15.24a3.48,3.48,0,1,0-4.93-4.93l-6,6V3.48a3.48,3.48,0,0,0-7,0V16.71l-6.4-6.4a3.48,3.48,0,1,0-4.92,4.93L45.85,25.7a3.46,3.46,0,0,0,.86.61v18l-15.61-9a3.47,3.47,0,0,0-.1-1L27.16,20a3.48,3.48,0,1,0-6.72,1.8l2.34,8.74L11.32,23.91a3.48,3.48,0,1,0-3.48,6Z"/></svg>