<svg id="Layer_1" data-name="Layer 1" xmlns="http://www.w3.org/2000/svg" viewBox="0 0 100 100"><defs><style>.cls-1{fill:#121212;}.cls-2{fill:#3e3e3f;}</style></defs><title>coal</title><rect class="cls-1" x="13.53" y="42.45" width="16.95" height="23.47" rx="3.36" ry="3.36" transform="translate(-33.18 73.53) rotate(-87.21)"/><rect class="cls-1" x="32.67" y="29.9" width="8.45" height="11.69" rx="1.67" ry="1.67" transform="translate(-14.47 36.56) rotate(-45)"/><rect class="cls-1" x="81.99" y="48.59" width="13.09" height="18.12" rx="2.59" ry="2.59" transform="translate(26.64 143.27) rotate(-87.21)"/><rect class="cls-1" x="74.7" y="36.48" width="13.09" height="18.12" rx="2.59" ry="2.59" transform="translate(-11.62 38.37) rotate(-24.85)"/><path class="cls-2" d="M46,29.95a5.4,5.4,0,0,0-1.9,2.46,5.46,5.46,0,0,0,3.15,7l3.91,1.49a5.46,5.46,0,0,0,7-3.15,5.4,5.4,0,0,0,.22-3.11,19.44,19.44,0,0,1-6.55-1.45A19.44,19.44,0,0,1,46,29.95Z"/><path class="cls-2" d="M55,30.76,51.1,29.27a5.45,5.45,0,0,0-5.12.68,19.44,19.44,0,0,0,5.86,3.28,19.44,19.44,0,0,0,6.55,1.45A5.45,5.45,0,0,0,55,30.76Z"/><path class="cls-2" d="M62.46,21.27a7,7,0,0,0-3.55-2,7.11,7.11,0,0,0-8.42,5.44l-1.15,5.33a7.11,7.11,0,0,0,5.44,8.42,7,7,0,0,0,4-.33,25.31,25.31,0,0,1,.57-8.72A25.31,25.31,0,0,1,62.46,21.27Z"/><path class="cls-2" d="M63.21,33.07l1.15-5.33a7.09,7.09,0,0,0-1.9-6.46,25.31,25.31,0,0,0-3.06,8.19,25.31,25.31,0,0,0-.57,8.72A7.09,7.09,0,0,0,63.21,33.07Z"/><path class="cls-2" d="M68.44,23.54a6.54,6.54,0,0,0-3.13,2.11,6.61,6.61,0,0,0,.95,9.28l3.93,3.2a6.61,6.61,0,0,0,9.28-.95,6.54,6.54,0,0,0,1.43-3.49,23.54,23.54,0,0,1-7-4.16A23.54,23.54,0,0,1,68.44,23.54Z"/><path class="cls-2" d="M78.52,27.9l-3.93-3.2a6.59,6.59,0,0,0-6.15-1.16,23.54,23.54,0,0,0,5.48,6,23.54,23.54,0,0,0,7,4.16A6.59,6.59,0,0,0,78.52,27.9Z"/><path class="cls-2" d="M52.47,39.2a11.33,11.33,0,0,0-2.67,6A11.47,11.47,0,0,0,59.7,58l8.72,1.11a11.47,11.47,0,0,0,12.79-9.89,11.33,11.33,0,0,0-1.08-6.45c-3.26.83-8.39,1-14.09.27S55.42,40.83,52.47,39.2Z"/><path class="cls-2" d="M71.32,36.39l-8.72-1.11A11.44,11.44,0,0,0,52.47,39.2C55.42,40.83,60.35,42.27,66,43s10.83.57,14.09-.27A11.44,11.44,0,0,0,71.32,36.39Z"/><path class="cls-2" d="M28.57,37.88a9.48,9.48,0,0,0-3.44,4.25,9.59,9.59,0,0,0,5.24,12.47l6.81,2.78a9.59,9.59,0,0,0,12.47-5.24,9.48,9.48,0,0,0,.51-5.44,34.13,34.13,0,0,1-11.44-2.82A34.13,34.13,0,0,1,28.57,37.88Z"/><path class="cls-2" d="M44.41,39.67,37.6,36.89a9.56,9.56,0,0,0-9,1,34.13,34.13,0,0,0,10.15,6,34.13,34.13,0,0,0,11.44,2.82A9.56,9.56,0,0,0,44.41,39.67Z"/><rect class="cls-2" x="41.29" y="48.43" width="18.53" height="25.65" rx="3.67" ry="3.67" transform="translate(129.96 62.63) rotate(130.52)"/><rect class="cls-2" x="61.87" y="44.7" width="25" height="34.61" rx="4.95" ry="4.95" transform="translate(78.4 158.75) rotate(-132.21)"/><rect class="cls-2" x="79.67" y="53.8" width="16.95" height="23.47" rx="3.36" ry="3.36" transform="translate(18.4 150.39) rotate(-87.21)"/><path class="cls-2" d="M14.15,57.33a12.39,12.39,0,0,0-2.07,6.84,12.54,12.54,0,0,0,12.5,12.5h9.61a12.54,12.54,0,0,0,12.5-12.5,12.39,12.39,0,0,0-2.07-6.84c-3.42,1.36-9,2.24-15.24,2.24S17.57,58.69,14.15,57.33Z"/><path class="cls-2" d="M34.19,51.68H24.58a12.5,12.5,0,0,0-10.43,5.66c3.42,1.36,9,2.24,15.24,2.24s11.82-.89,15.24-2.24A12.5,12.5,0,0,0,34.19,51.68Z"/><circle class="cls-2" cx="29.52" cy="39.61" r="2.01"/><circle class="cls-2" cx="32.13" cy="42.02" r="2.01"/><circle class="cls-2" cx="35" cy="43.54" r="2.01"/><path class="cls-2" d="M49.19,34.93,49,34.6a6.34,6.34,0,0,0-8.71-2,6.22,6.22,0,0,0-2.15,2.32C41.44,36.53,45.48,36.1,49.19,34.93Z"/><path class="cls-2" d="M49.19,34.93c-3.71,1.16-7.75,1.6-11.06,0a6.31,6.31,0,0,0,.14,6.39l2.58,4.12a6.32,6.32,0,0,0,10.71-6.7Z"/><circle class="cls-2" cx="39.01" cy="35.4" r="1.01"/><circle class="cls-2" cx="40.99" cy="35.7" r="1.01"/><circle class="cls-2" cx="42.98" cy="35.91" r="1.01"/><circle class="cls-2" cx="45.01" cy="35.75" r="1.01"/><circle class="cls-2" cx="46.77" cy="35.5" r="1.01"/><circle class="cls-2" cx="48.26" cy="35.4" r="1.01"/><path class="cls-2" d="M13.83,63l.27-.28A6.34,6.34,0,0,0,14,53.81a6.22,6.22,0,0,0-2.76-1.54C10.43,55.88,11.82,59.7,13.83,63Z"/><path class="cls-2" d="M13.83,63c-2-3.32-3.4-7.15-2.61-10.75A6.31,6.31,0,0,0,5,53.94L1.66,57.42a6.32,6.32,0,0,0,9.06,8.81Z"/><circle class="cls-2" cx="10.96" cy="53.25" r="1.01" transform="translate(-12.36 4.14) rotate(-13.77)"/><circle class="cls-2" cx="11.14" cy="55.25" r="1.01" transform="translate(-12.83 4.24) rotate(-13.77)"/><circle class="cls-2" cx="11.41" cy="57.22" r="1.01" transform="translate(-13.29 4.36) rotate(-13.77)"/><circle class="cls-2" cx="12.04" cy="59.15" r="1.01" transform="translate(-13.74 4.57) rotate(-13.77)"/><circle class="cls-2" cx="12.71" cy="60.81" r="1.01" transform="translate(-14.11 4.77) rotate(-13.77)"/><circle class="cls-2" cx="13.16" cy="62.23" r="1.01" transform="translate(-14.44 4.92) rotate(-13.77)"/><rect class="cls-1" x="40.79" y="40.38" width="9.32" height="12.9" rx="1.84" ry="1.84" transform="translate(22.06 107.75) rotate(-114.85)"/><path class="cls-2" d="M45.52,44.8A4.91,4.91,0,0,0,43,43.42a5,5,0,0,0-5.88,3.8L36.36,51a5,5,0,0,0,3.8,5.88A4.91,4.91,0,0,0,43,56.61a17.68,17.68,0,0,1,.4-6.09A17.68,17.68,0,0,1,45.52,44.8Z"/><path class="cls-2" d="M46,53l.8-3.73a5,5,0,0,0-1.33-4.51,17.68,17.68,0,0,0-2.14,5.72,17.68,17.68,0,0,0-.4,6.09A5,5,0,0,0,46,53Z"/><rect class="cls-1" x="67.4" y="53.11" width="12.18" height="16.87" rx="2.41" ry="2.41" transform="translate(37.74 -27.4) rotate(28.16)"/><path class="cls-2" d="M75,63.73a6.42,6.42,0,0,0,3.67-.52,6.5,6.5,0,0,0,3.15-8.6l-2.1-4.52a6.5,6.5,0,0,0-8.6-3.15,6.42,6.42,0,0,0-2.76,2.46,23.12,23.12,0,0,1,4.37,6.68A23.12,23.12,0,0,1,75,63.73Z"/><path class="cls-2" d="M68,55.54l2.1,4.52A6.48,6.48,0,0,0,75,63.73a23.12,23.12,0,0,0-2.27-7.65,23.12,23.12,0,0,0-4.37-6.68A6.48,6.48,0,0,0,68,55.54Z"/><rect class="cls-1" x="33.12" y="63.91" width="12.48" height="17.28" rx="2.47" ry="2.47" transform="translate(-38.19 100.8) rotate(-81.53)"/></svg>