<svg id="Layer_1" data-name="Layer 1" xmlns="http://www.w3.org/2000/svg" viewBox="0 0 100 100"><defs><style>.cls-1{fill:#fff;}.cls-2{fill:#fffacd;}</style></defs><title>wool</title><circle class="cls-1" cx="19.74" cy="66.32" r="13.61"/><circle class="cls-1" cx="29.39" cy="49.18" r="13.61"/><circle class="cls-1" cx="19.74" cy="37.67" r="13.61"/><circle class="cls-1" cx="36.42" cy="66.94" r="13.61"/><circle class="cls-1" cx="46.96" cy="49.18" r="13.61"/><circle class="cls-1" cx="34.61" cy="32.14" r="13.61"/><circle class="cls-1" cx="48.22" cy="18.53" r="13.61"/><circle class="cls-1" cx="54.96" cy="33.1" r="13.61"/><circle class="cls-1" cx="68.56" cy="36.68" r="13.61"/><circle class="cls-1" cx="66.02" cy="50.29" r="13.61"/><circle class="cls-1" cx="56.61" cy="66.94" r="13.61"/><circle class="cls-1" cx="77.05" cy="74" r="13.61"/><circle class="cls-1" cx="48.22" cy="81.47" r="13.61"/><circle class="cls-1" cx="33.35" cy="79.93" r="13.61"/><circle class="cls-1" cx="75.44" cy="53.62" r="13.61"/><circle class="cls-1" cx="60.57" cy="77.51" r="13.61"/><circle class="cls-1" cx="86.39" cy="36.68" r="13.61"/><circle class="cls-1" cx="86.39" cy="62.01" r="13.61"/><circle class="cls-1" cx="68.56" cy="24.06" r="13.61"/><path class="cls-1" d="M69.65,14.32A22.16,22.16,0,0,1,71.41,11a13.79,13.79,0,0,1,2.44-3A6.07,6.07,0,0,1,75.6,6.9a3.52,3.52,0,0,1,2.12-.18,3.73,3.73,0,0,1,1.67.93A7.31,7.31,0,0,1,80.51,9a4.4,4.4,0,0,0-2.9-1,2.65,2.65,0,0,0-1.84,1.65,11.05,11.05,0,0,0-.9,2.82,17.73,17.73,0,0,0-.34,3,2.56,2.56,0,1,1-4.92-1Z"/><path class="cls-1" d="M8.77,60.75a17.73,17.73,0,0,0-2.29-2,11.05,11.05,0,0,0-2.58-1.45,2.65,2.65,0,0,0-2.47,0A4.4,4.4,0,0,0,0,60.08a7.31,7.31,0,0,1-.08-1.74,3.73,3.73,0,0,1,.59-1.82,3.52,3.52,0,0,1,1.68-1.31,6.07,6.07,0,0,1,2-.37,13.79,13.79,0,0,1,3.8.51,22.16,22.16,0,0,1,3.57,1.26l.1,0a2.56,2.56,0,0,1-2.12,4.65A2.59,2.59,0,0,1,8.77,60.75Z"/><path class="cls-2" d="M34.05,43.11a3.91,3.91,0,0,1,1.57.33c0-.11,0-.22,0-.33a3.93,3.93,0,1,0-5.5,3.6A3.92,3.92,0,0,1,34.05,43.11Z"/><path class="cls-2" d="M74,66.22a3.91,3.91,0,0,1-.33,1.57c.11,0,.22,0,.33,0a3.93,3.93,0,1,0-3.6-5.5A3.92,3.92,0,0,1,74,66.22Z"/><path class="cls-2" d="M69.43,41.77a7.08,7.08,0,0,1-.6,2.85c.2,0,.4.06.6.06a7.12,7.12,0,1,0-6.52-10A7.1,7.1,0,0,1,69.43,41.77Z"/><path class="cls-2" d="M58.6,64.2a7.08,7.08,0,0,1,2.85.6c0-.2.06-.4.06-.6a7.12,7.12,0,1,0-10,6.52A7.1,7.1,0,0,1,58.6,64.2Z"/></svg>