<svg id="Layer_1" data-name="Layer 1" xmlns="http://www.w3.org/2000/svg" viewBox="0 0 100 100"><defs><style>.cls-1{fill:#09a582;}.cls-2{fill:#fff;}.cls-3{fill:#fffacd;}</style></defs><title>cotton</title><path class="cls-1" d="M49.65,60.44c0,3.74-7.3,6.78-16.32,6.78S1,60.44,1,60.44s23.37-6.78,32.38-6.78S49.65,56.7,49.65,60.44Z"/><path class="cls-1" d="M45.67,60.68c-1.3,3.51-9.2,3.82-17.65.7S0,43.8,0,43.8s24.27,1.74,32.72,4.87S47,57.17,45.67,60.68Z"/><path class="cls-1" d="M50.35,60.44c0,3.74,7.3,6.78,16.32,6.78S99,60.44,99,60.44s-23.37-6.78-32.38-6.78S50.35,56.7,50.35,60.44Z"/><path class="cls-1" d="M54.33,60.68c1.3,3.51,9.2,3.82,17.65.7S100,43.8,100,43.8s-24.27,1.74-32.72,4.87S53,57.17,54.33,60.68Z"/><circle class="cls-2" cx="26.89" cy="47.19" r="9.48"/><circle class="cls-2" cx="33.62" cy="35.25" r="9.48"/><circle class="cls-2" cx="26.89" cy="27.23" r="9.48"/><circle class="cls-2" cx="38.51" cy="47.62" r="9.48"/><circle class="cls-2" cx="45.85" cy="35.25" r="9.48"/><circle class="cls-2" cx="37.25" cy="23.38" r="9.48"/><circle class="cls-2" cx="46.73" cy="13.9" r="9.48"/><circle class="cls-2" cx="51.42" cy="24.05" r="9.48"/><circle class="cls-2" cx="60.9" cy="26.54" r="9.48"/><circle class="cls-2" cx="59.13" cy="36.02" r="9.48"/><circle class="cls-2" cx="52.58" cy="47.62" r="9.48"/><circle class="cls-2" cx="66.81" cy="52.54" r="9.48"/><circle class="cls-2" cx="46.73" cy="57.74" r="9.48"/><circle class="cls-2" cx="36.37" cy="56.67" r="9.48"/><circle class="cls-2" cx="65.69" cy="38.34" r="9.48"/><circle class="cls-2" cx="55.33" cy="54.98" r="9.48"/><circle class="cls-2" cx="73.32" cy="26.54" r="9.48"/><circle class="cls-2" cx="73.32" cy="44.19" r="9.48"/><circle class="cls-2" cx="60.9" cy="17.75" r="9.48"/><path class="cls-2" d="M58.78,10.31a15.11,15.11,0,0,1,2.07-2.54,14.25,14.25,0,0,1,2.6-2.14,6.68,6.68,0,0,1,1.79-.79,5.34,5.34,0,0,1,1.07-.11,4.44,4.44,0,0,1,1,.21,3.56,3.56,0,0,1,1.88,2.31c-.82-.24-1.73-.39-2.08,0s-.09.8-.09,1.36a15.72,15.72,0,0,0,.28,1.87,6.74,6.74,0,0,0,.6,1.88,6.29,6.29,0,1,1-10.56.17Z"/><path class="cls-2" d="M17.59,45.75A6.74,6.74,0,0,0,16.75,44a15.73,15.73,0,0,0-1.07-1.57c-.38-.42-.52-.84-1-.94s-1.11.66-1.55,1.39a3.56,3.56,0,0,1-.19-3,4.41,4.41,0,0,1,.6-.85,5.32,5.32,0,0,1,.86-.64,6.72,6.72,0,0,1,1.85-.64,14.28,14.28,0,0,1,3.37-.2,15.1,15.1,0,0,1,3.24.45l2.57.69a6.29,6.29,0,1,1-7.85,7.06Z"/><path class="cls-3" d="M36.86,31a2.72,2.72,0,0,1,1.1.23c0-.08,0-.15,0-.23a2.74,2.74,0,1,0-3.83,2.5A2.73,2.73,0,0,1,36.86,31Z"/><path class="cls-3" d="M64.7,47.12a2.72,2.72,0,0,1-.23,1.1l.23,0a2.74,2.74,0,1,0-2.5-3.83A2.73,2.73,0,0,1,64.7,47.12Z"/><path class="cls-3" d="M61.51,30.09a4.93,4.93,0,0,1-.42,2c.14,0,.28,0,.42,0A5,5,0,1,0,57,25.17,4.94,4.94,0,0,1,61.51,30.09Z"/><path class="cls-3" d="M54,45.71a4.93,4.93,0,0,1,2,.42c0-.14,0-.28,0-.42A5,5,0,1,0,49,50.25,4.94,4.94,0,0,1,54,45.71Z"/><path class="cls-1" d="M64.82,65.67c0,2-7,3.65-15.6,3.65s-15.6-1.63-15.6-3.65.8-21.87.8-21.87S64.82,63.65,64.82,65.67Z"/><rect class="cls-1" x="44.67" y="62.02" width="7.91" height="33.56" rx="1.73" ry="1.73"/></svg>