<svg id="Layer_1" data-name="Layer 1" xmlns="http://www.w3.org/2000/svg" viewBox="0 0 100 100"><defs><style>.cls-1{fill:#069274;}.cls-2{fill:#09a582;}.cls-3{fill:#089a7a;}</style></defs><title>tobacco</title><path class="cls-1" d="M44.66,86.45a14,14,0,0,1-2.3-.18L43.24,81c2.7.45,6.21-.64,7.34-1.1l2,5A23.13,23.13,0,0,1,44.66,86.45Z"/><path class="cls-2" d="M47.64,83.59l-11.75,0L24.42,73.47a31.75,31.75,0,0,1,9.4-2.13,22.17,22.17,0,0,1,3.48.26L47.94,81A9,9,0,0,1,47.64,83.59Z"/><path class="cls-2" d="M47.94,81,37.3,71.6C43.63,72.57,47.82,76.29,47.94,81Z"/><path class="cls-3" d="M30.1,83.66,20.35,75c1.37-.56,2.74-1.08,4.08-1.54L35.89,83.64Z"/><path class="cls-2" d="M20.52,83.7l-6.62-5.87c2.07-1,4.26-1.93,6.44-2.82l9.75,8.65Z"/><path class="cls-3" d="M2.16,83.77s5.26-2.93,11.75-5.94l6.62,5.87Z"/><path class="cls-1" d="M27.23,96C17.78,96,2.16,83.77,2.16,83.77l45.48-.18C45.82,90.4,36.68,95.95,27.23,96Z"/><path class="cls-1" d="M48.81,100l-4.58-2.29c5.89-11.76,7.65-22.7,5.22-32.5a50.72,50.72,0,0,0-2.59-7.45,49.12,49.12,0,0,1-3.54-11.59A51.78,51.78,0,0,1,46.86,18l4.74,1.92a46.75,46.75,0,0,0-3.23,25.46A44.33,44.33,0,0,0,51.6,55.82,55.43,55.43,0,0,1,54.42,64C57.16,75,55.27,87.12,48.81,100Z"/><path class="cls-2" d="M49.69,21.19l-1.36-5.47-8.25-5a10,10,0,0,0-.34,4.45,8.23,8.23,0,0,0,.59,1.61L48,21.42A8.23,8.23,0,0,0,49.69,21.19Z"/><path class="cls-2" d="M48,21.42,40.33,16.8A8.22,8.22,0,0,0,48,21.42Z"/><path class="cls-3" d="M47.66,13l-7-4.23c-.22.66-.41,1.31-.57,2l8.25,5Z"/><path class="cls-2" d="M46.56,8.56,41.79,5.68c-.41,1-.81,2.05-1.15,3.1l7,4.23Z"/><path class="cls-3" d="M44.44,0s-1.37,2.55-2.64,5.68l4.76,2.87Z"/><path class="cls-1" d="M55.68,11.24C54.59,6.84,44.44,0,44.44,0l5.25,21.19A8.21,8.21,0,0,0,55.68,11.24Z"/><path class="cls-2" d="M48.7,21.92,52,17.35,50.5,7.83a10,10,0,0,0-3.62,2.61A8.23,8.23,0,0,0,46,11.93l1.41,8.83A8.23,8.23,0,0,0,48.7,21.92Z"/><path class="cls-2" d="M47.43,20.77,46,11.93A8.22,8.22,0,0,0,47.43,20.77Z"/><path class="cls-3" d="M53.65,15.1,52.36,7c-.64.26-1.27.54-1.86.83L52,17.35Z"/><path class="cls-2" d="M56.34,11.38l-.88-5.49c-1,.33-2.09.7-3.11,1.12l1.29,8.1Z"/><path class="cls-3" d="M61.52,4.25s-2.83.6-6.05,1.64l.88,5.49Z"/><path class="cls-1" d="M60.17,20.09c2.66-3.67,1.35-15.84,1.35-15.84L48.7,21.92A8.21,8.21,0,0,0,60.17,20.09Z"/><path class="cls-1" d="M47.88,50.7a11.61,11.61,0,0,1-1.39-.08l.62-5.08A7.64,7.64,0,0,0,52,44.41l3.14,4A12,12,0,0,1,47.88,50.7Z"/><path class="cls-2" d="M50,48.08l8.59-4,5.52-15.24c-3-.15-5.65.06-7.46.9a13.84,13.84,0,0,0-2.47,1.49L49.11,45.36A13.84,13.84,0,0,0,50,48.08Z"/><path class="cls-2" d="M49.11,45.36l5.12-14.14A13.82,13.82,0,0,0,49.11,45.36Z"/><path class="cls-3" d="M62.87,42.08l4.69-13c-1.16-.14-2.3-.24-3.41-.3L58.63,44.06Z"/><path class="cls-2" d="M69.86,38.8,73,30c-1.78-.35-3.65-.66-5.49-.89l-4.69,13Z"/><path class="cls-3" d="M83.29,32.51S78.63,31.09,73,30l-3.18,8.8Z"/><path class="cls-1" d="M68.41,54.73c6.91-3.24,14.88-22.22,14.88-22.22L50,48.08A13.81,13.81,0,0,0,68.41,54.73Z"/><path class="cls-1" d="M59.58,72.69a20.4,20.4,0,0,1-7.39-1.49L54,67.12a15.68,15.68,0,0,0,6.54,1.08l.38,4.43C60.45,72.67,60,72.69,59.58,72.69Z"/><path class="cls-2" d="M56.28,70.22,67,70.7l14-7a27.74,27.74,0,0,0-7.87-1.92,26.76,26.76,0,0,0-3.27.06l-13,6.51A5.94,5.94,0,0,0,56.28,70.22Z"/><path class="cls-2" d="M56.88,68.33l13-6.51C63.73,62.29,58.62,64.86,56.88,68.33Z"/><path class="cls-3" d="M72.31,70.94,84.2,65c-1.07-.46-2.14-.89-3.2-1.29l-14,7Z"/><path class="cls-2" d="M81.06,71.34l8.07-4C87.57,66.5,85.9,65.71,84.2,65l-11.89,6Z"/><path class="cls-3" d="M97.84,72.1S94,69.75,89.13,67.29l-8.07,4Z"/><path class="cls-1" d="M70.71,80.08c8.64.39,27.13-8,27.13-8L56.28,70.22C55.62,75.28,62.08,79.69,70.71,80.08Z"/><path class="cls-2" d="M50,82.79l10.3.18L74.17,69.6c-2.68-1.71-5.29-2.88-7.45-2.92a14.23,14.23,0,0,0-3.15.31L50.67,79.4A18.6,18.6,0,0,0,50,82.79Z"/><path class="cls-2" d="M50.67,79.4,63.57,67C57.64,68.22,52.57,73.1,50.67,79.4Z"/><path class="cls-3" d="M65.36,83.06,77.17,71.69c-1-.75-2-1.45-3-2.09L60.28,83Z"/><path class="cls-2" d="M73.75,83.21l8-7.72c-1.45-1.3-3-2.6-4.6-3.8L65.36,83.06Z"/><path class="cls-3" d="M89.85,83.5a112.38,112.38,0,0,0-8.08-8l-8,7.72Z"/><path class="cls-1" d="M63.24,99.44c8.28.15,26.61-15.94,26.61-15.94L50,82.79C49,91.84,55,99.29,63.24,99.44Z"/><path class="cls-1" d="M44.56,58.16a12.78,12.78,0,0,1-3.9-.56L42,53.46a11.94,11.94,0,0,0,5.72,0l1.16,4.19A17.72,17.72,0,0,1,44.56,58.16Z"/><path class="cls-2" d="M45.15,56.08l-9.3-1.35-9-9.75a22.79,22.79,0,0,1,7.46-.65,17.9,17.9,0,0,1,2.75.62L45.41,54A7.33,7.33,0,0,1,45.15,56.08Z"/><path class="cls-2" d="M45.41,54,37.08,45C42.08,46.51,45.36,50.08,45.41,54Z"/><path class="cls-3" d="M31.27,54.07l-7.64-8.3c1.09-.3,2.18-.56,3.24-.79l9,9.75Z"/><path class="cls-2" d="M23.7,53l-5.18-5.63c1.64-.55,3.38-1.09,5.12-1.57l7.64,8.3Z"/><path class="cls-3" d="M9.16,50.86s4.19-1.8,9.35-3.52L23.7,53Z"/><path class="cls-1" d="M28.89,63.91c-7.48-1.09-19.73-13-19.73-13l36,5.22C43.65,61.49,36.37,65,28.89,63.91Z"/><path class="cls-1" d="M43.73,70.46l-.34-4.81a19.38,19.38,0,0,0,7.13-2.4L53,67.39A24,24,0,0,1,43.73,70.46Z"/><path class="cls-2" d="M48.24,67.07,36.87,69.46,23.24,63.83a35.21,35.21,0,0,1,8.57-3.54,27.08,27.08,0,0,1,3.43-.49L47.9,65A5.9,5.9,0,0,1,48.24,67.07Z"/><path class="cls-2" d="M47.9,65,35.24,59.79C41.62,59.29,46.6,61.34,47.9,65Z"/><path class="cls-3" d="M31.27,70.64l-11.6-4.79c1.19-.71,2.39-1.39,3.56-2l13.64,5.63Z"/><path class="cls-2" d="M22,72.59l-7.87-3.25c1.76-1.16,3.64-2.36,5.54-3.49l11.6,4.79Z"/><path class="cls-3" d="M4.24,76.33s4.37-3.34,9.9-7L22,72.59Z"/><path class="cls-1" d="M31.56,80.82c-9.14,1.92-27.33-4.5-27.33-4.5l44-9.25C48.17,72.74,40.7,78.9,31.56,80.82Z"/><path class="cls-2" d="M43.1,39.72,36.87,36.8l-4-11.06a12.13,12.13,0,0,1,5.41.65,10,10,0,0,1,1.79,1.08l3.71,10.26A10,10,0,0,1,43.1,39.72Z"/><path class="cls-2" d="M43.78,37.74,40.07,27.48A10,10,0,0,1,43.78,37.74Z"/><path class="cls-3" d="M33.8,35.36,30.4,26c.84-.1,1.67-.17,2.47-.21l4,11.06Z"/><path class="cls-2" d="M28.73,33,26.42,26.6c1.29-.25,2.65-.48,4-.64l3.4,9.4Z"/><path class="cls-3" d="M19,28.42s3.38-1,7.43-1.82L28.73,33Z"/><path class="cls-1" d="M29.78,44.54C24.77,42.19,19,28.42,19,28.42L43.1,39.72A10,10,0,0,1,29.78,44.54Z"/></svg>