<svg id="Layer_1" data-name="Layer 1" xmlns="http://www.w3.org/2000/svg" viewBox="0 0 100 100"><defs><style>.cls-1{fill:#ffc640;}.cls-2{fill:#171717;}</style></defs><title>human</title><path class="cls-1" d="M50,100a50,50,0,1,1,50-50A50.06,50.06,0,0,1,50,100ZM50,6.12A43.88,43.88,0,1,0,93.88,50,43.93,43.93,0,0,0,50,6.12Z"/><circle class="cls-1" cx="49.89" cy="24.2" r="18.62"/><path class="cls-1" d="M66.36,51c0-8.06-7.43-14.66-16.52-14.66S33.33,43,33.33,51V73.09h33Z"/><rect class="cls-1" x="33.33" y="67.75" width="11.54" height="25.44" rx="2.61" ry="2.61"/><path class="cls-1" d="M45.65,54.61a6.69,6.69,0,0,0-4.71,1.9l-1,1,1.41,1.41.71-.71h0l.07-.07h.09l0,0h.07a4.66,4.66,0,0,1,3.3-1.32v-2ZM36.44,61l-3.54,3.54L34.32,66l3.54-3.54L36.44,61Zm-7.07,7.07-3.54,3.54L27.25,73l1.21-1.21h0l2.29-2.29-1.41-1.41ZM22.3,75.15l-1.2,1.2a6.66,6.66,0,0,0-1.93,4.21l2,.15a4.65,4.65,0,0,1,1.22-2.81h0l0,0h.12l1.18-1.18L22.3,75.15Zm1,9.82-1.09,1.68a6.69,6.69,0,0,0,6.8.27l-1-1.76a4.67,4.67,0,0,1-1.82.54H23.92a4.63,4.63,0,0,1-.64-.35Zm12-6.73-.27.27h0l-.12.12h-.05l0,0h0l-3,3,1.41,1.41,3.54-3.54-1.41-1.41Zm7.07-7.07-3.54,3.54,1.41,1.41,3.54-3.54-1.41-1.41Zm7-7.1-.07.09h0q-.14.18-.31.34h0l-3.08,3.08L47.26,69l3.11-3.11a6.71,6.71,0,0,0,.57-.65l-1.58-1.22Zm-3.19-9.44-.15,2a4.82,4.82,0,0,1,1.77.48h1.34v0h0v0h0v0h0v0h.33a4.63,4.63,0,0,1,.31.59l1.83-.81a6.53,6.53,0,0,0-5.59-3.9Z"/><path class="cls-1" d="M54.15,54.57A6.65,6.65,0,0,0,48.3,58l1.76,1a4.63,4.63,0,0,1,.46-.69h0l0,0h.3a4.63,4.63,0,0,1,3.3-1.36v-2Zm-3.92,9.19-1.68,1.09a6.69,6.69,0,0,0,.89,1.1l2.83,2.83,1.41-1.41-2.82-2.82h0a4.67,4.67,0,0,1-.59-.74Zm7,7.14-1.41,1.41,3.54,3.54,1.41-1.41-3.18-3.18h0l0,0h0l-.31-.31ZM64.29,78l-1.41,1.41,3.54,3.54,1.41-1.41-.59-.59h0l0,0h0L64.29,78Zm7.14,7-1.09,1.67a6.69,6.69,0,0,0,6.8.29l-.94-1.76a4.66,4.66,0,0,1-1.5.5H73.48A4.66,4.66,0,0,1,71.43,85Zm6.35-9.54-1.41,1.41.89.89h.29l.1.12h.07a4.66,4.66,0,0,1,.93,2.83h2a6.62,6.62,0,0,0-1.95-4.76l-.92-.92ZM70.7,68.35l-1.41,1.41,3.54,3.54,1.41-1.41L70.7,68.35Zm-7.07-7.07L62.22,62.7l3.1,3.1h0l.05.05h0l0,0h0l0,0h0l0,0h0l0,0h0l0,0h.09l.05.05h0l.11.11,1.41-1.41-3.54-3.54Zm-8.91-6.69-.17,2a4.62,4.62,0,0,1,2.58,1.05h0l0,0h0l0,0h0l0,0h0l0,0h.21l1.22,1.22,1.41-1.41-1.23-1.23a6.65,6.65,0,0,0-4.14-1.92Z"/><rect class="cls-1" x="23.59" y="25.43" width="11.54" height="46.34" rx="2.61" ry="2.61" transform="translate(77.96 19.24) rotate(90)"/><path class="cls-1" d="M18.43,21.22a6.66,6.66,0,0,0-5.85,3.47l1.76,1,.18-.3h.62a4.65,4.65,0,0,1,3.3-1.36v-2Zm-3.92,9.19L12.83,31.5a6.69,6.69,0,0,0,.89,1.1l2.83,2.83L18,34l-2.83-2.83h-.29a4.64,4.64,0,0,1-.34-.46Zm7,7.14L20.09,39l3.54,3.54L25,41.09l-1.37-1.37L21.5,37.55Zm7.07,7.07L27.16,46l3.54,3.54,1.41-1.41-1.84-1.84h0l0,0h0l0,0h0l0,0h0l0,0h0l-1.6-1.6Zm7.07,7.07-1.41,1.41,3.54,3.54,1.41-1.41-.77-.77-2.77-2.77Zm11.72,2.54a4.63,4.63,0,0,1-.82,1.34h-1a4.65,4.65,0,0,1-2,.7l.23,2a6.68,6.68,0,0,0,3.94-1.9A6.62,6.62,0,0,0,49.22,55l-1.86-.74Zm-2.83-9.67L43.12,46l3.22,3.22h.13l0,0h0l0,0h.12l1.54-1.27q-.2-.24-.43-.47l-3.22-3.22Zm-7.07-7.07L36,38.9l3.54,3.54L41,41l-3.54-3.54Zm-7.07-7.07L29,31.83l1.46,1.46,0,0,0,0,2,2,1.41-1.41-3.54-3.54Zm-7.07-7.07-1.41,1.41.2.2h0l3.32,3.32,1.41-1.41-3.54-3.54Z"/><path class="cls-1" d="M80.82,21.22a6.62,6.62,0,0,0-4.71,2l-.94.94,1.41,1.41.94-.94a4.65,4.65,0,0,1,3.3-1.36v-2Zm-9.19,6.43-3.54,3.54L69.5,32.6,73,29.06l-1.41-1.41Zm-7.07,7.07L61,38.26l1.41,1.41L65,37.08h.07l0,0h0l0,0h0l0,0h0l.82-.82-1.41-1.41Zm-7.07,7.07-3.54,3.54,1.41,1.41,3.54-3.54-1.41-1.41Zm-7.26,7.76a6.7,6.7,0,0,0,.55,6.79l1.63-1.16a4.61,4.61,0,0,1-.41-.7h0v0h0v0h0v0h0v0h-.36v0h0v0h0v0h0v0h0v0h0v0h0v0h0v0h0v0h0v0h0v0h0v0h0v0h0v0h0v0h0v0h.09v0h0a4.61,4.61,0,0,1,.23-.55l-1.8-.88Zm10.62,4.9-1.33,1.33h-1.1a4.66,4.66,0,0,1-1.66.52l.23,2a6.69,6.69,0,0,0,3.94-1.9l1.33-1.33-1.41-1.41Zm7.07-7.07-3.54,3.54,1.41,1.41,3.54-3.54-1.41-1.41ZM75,40.32l-3,3h0l0,0h0l0,0h0l-.43.43,1.41,1.41,3.54-3.54L75,40.32Zm7.07-7.07-3.54,3.54,1.41,1.41,3.54-3.54-1.41-1.41Zm3.72-9.82-1.49,1.34a4.65,4.65,0,0,1,.43.55h0l0,0h0v0h.17a4.69,4.69,0,0,1,.39,3.44h-.1l1.89.66a6.67,6.67,0,0,0-1.33-6.67Z"/><rect class="cls-1" x="64.87" y="25.43" width="11.54" height="46.34" rx="2.61" ry="2.61" transform="translate(119.24 -22.04) rotate(90)"/><rect class="cls-1" x="54.82" y="67.75" width="11.54" height="25.44" rx="2.61" ry="2.61"/><circle class="cls-2" cx="38.18" cy="20.45" r="1.67"/><circle class="cls-2" cx="62.26" cy="20.45" r="1.67"/></svg>