<svg id="Layer_1" data-name="Layer 1" xmlns="http://www.w3.org/2000/svg" viewBox="0 0 100 100"><defs><style>.cls-1{fill:#ffc640;}.cls-2{fill:#bcd2de;}.cls-3{fill:#a9ccdd;}.cls-4{fill:#ffdb91;}.cls-5{fill:#6ab8d9;}.cls-6{fill:#09a582;}.cls-7{fill:#f37d3b;}.cls-8{fill:#f05c38;}</style></defs><title>prism</title><rect class="cls-1" y="39.81" width="49.96" height="9.48"/><polygon class="cls-2" points="0 73.74 36.32 87.03 72.64 73.74 36.32 12.97 0 73.74"/><polyline class="cls-3" points="36.32 12.97 0 73.74 36.32 87.03"/><polyline class="cls-4" points="49.96 39.81 20.28 39.81 14.61 49.29 49.96 49.29 49.96 39.81"/><path class="cls-5" d="M93.54,74.67,37.83,49.52a11.81,11.81,0,0,0,.67-1.9L97.67,62.94A72.91,72.91,0,0,1,93.54,74.67Z"/><path class="cls-6" d="M97.67,62.94,38.5,47.62a11.72,11.72,0,0,0,.33-2L99.74,50.8A73,73,0,0,1,97.67,62.94Z"/><path class="cls-1" d="M99.74,50.8,38.83,45.66a11.84,11.84,0,0,0,0-2l60.91-5.14A72.94,72.94,0,0,1,99.74,50.8Z"/><path class="cls-7" d="M99.74,38.53,38.83,43.67a11.8,11.8,0,0,0-.33-2L97.67,26.39A72.89,72.89,0,0,1,99.74,38.53Z"/><path class="cls-8" d="M97.67,26.39,38.5,41.71a11.77,11.77,0,0,0-.67-1.9L93.54,14.66A72.91,72.91,0,0,1,97.67,26.39Z"/></svg>