<svg id="Layer_1" data-name="Layer 1" xmlns="http://www.w3.org/2000/svg" viewBox="0 0 100 100"><defs><style>.cls-1{fill:#6ab8d9;}.cls-2{fill:#f37d3b;}.cls-3{fill:#ffc640;}.cls-4{fill:#09a380;}.cls-5{fill:#f2797a;}</style></defs><title>science</title><path class="cls-1" d="M48.92,0C36.66,0,27.42,21.5,27.42,50s9.25,50,21.51,50S70.43,78.5,70.43,50,61.18,0,48.92,0Zm0,95.24c-4,0-8.14-4.54-11.32-12.45-3.5-8.72-5.43-20.36-5.43-32.78s1.93-24.07,5.43-32.78C40.79,9.3,44.91,4.76,48.92,4.76S57.06,9.3,60.24,17.22c3.5,8.72,5.43,20.36,5.43,32.78s-1.93,24.07-5.43,32.78C57.06,90.7,52.94,95.24,48.92,95.24Z"/><circle class="cls-2" cx="48.92" cy="50" r="9.37"/><circle class="cls-3" cx="58.29" cy="91.98" r="6.43" transform="translate(-45.5 59.04) rotate(-40.03)"/><path class="cls-1" d="M46.66,75.43q-2.74-1.34-5.49-2.86-2.19.87-4.33,1.58c.4,1.58.83,3.11,1.31,4.57C40.94,77.8,43.79,76.7,46.66,75.43Z"/><path class="cls-1" d="M57.64,64.3C55.45,65.64,53.24,66.88,51,68q2.77,1.33,5.49,2.44c1.2-.68,2.4-1.38,3.6-2.11.8-.49,1.58-1,2.36-1.48q.48-3,.79-6.25C61.45,61.89,59.58,63.12,57.64,64.3Z"/><path class="cls-1" d="M36.35,79.31c-.48-1.46-.92-3-1.32-4.57-1.58.49-3.14.92-4.66,1.27q.6,2.38,1.31,4.58Q34,80,36.35,79.31Z"/><path class="cls-1" d="M51.14,24.59q2.74,1.34,5.48,2.86c1.48-.59,2.94-1.12,4.38-1.6-.4-1.58-.83-3.11-1.31-4.57C56.89,22.21,54,23.31,51.14,24.59Z"/><path class="cls-1" d="M32.54,40.81q.26-3.21.69-6.29C31.42,35.74,29.66,37,28,38.26c-.2,2.08-.35,4.22-.44,6.41Q29.92,42.71,32.54,40.81Z"/><path class="cls-1" d="M43.45,71.64q2.74,1.47,5.47,2.76,2.73-1.29,5.48-2.76-2.72-1.16-5.48-2.53Q46.17,70.48,43.45,71.64Z"/><path class="cls-1" d="M48.89,25.62q-2.73,1.29-5.48,2.76,2.72,1.16,5.48,2.53,2.75-1.37,5.47-2.53Q51.62,26.91,48.89,25.62Z"/><path class="cls-1" d="M40.21,35.7q3.27-2,6.57-3.72Q44,30.66,41.29,29.55c-1.19.67-2.38,1.36-3.57,2.09q-1.2.73-2.36,1.48-.48,3-.79,6.25C36.39,38.11,38.27,36.88,40.21,35.7Z"/><path class="cls-1" d="M72.28,53.67q-.1,3.34-.36,6.53c2.25-1.77,4.35-3.56,6.28-5.36q-1.55-1.75-3.32-3.49C74,52.12,73.17,52.9,72.28,53.67Z"/><path class="cls-1" d="M28.57,76.4q-.88.18-1.75.32a39.38,39.38,0,0,1-6.44.58c-5,0-8.58-1.29-10.09-3.76C8.21,70.12,9.94,64.24,15,57.4c.62-.83,1.29-1.67,2-2.5q-1.76-1.73-3.32-3.45-1.32,1.55-2.49,3.1C4.81,63.15,3,70.78,6.23,76c2.41,3.95,7.33,6,14.23,6a43.68,43.68,0,0,0,7.14-.64q1.13-.19,2.29-.43Q29.18,78.79,28.57,76.4Z"/><path class="cls-1" d="M76.24,50q1.77,1.74,3.33,3.5,1.76-1.72,3.31-3.44-1.58-1.76-3.35-3.5Q78,48.32,76.24,50Z"/><path class="cls-1" d="M65.31,59.19q-.26,3.22-.69,6.3c1.82-1.22,3.58-2.46,5.26-3.71.2-2.1.36-4.24.45-6.45Q67.93,57.29,65.31,59.19Z"/><path class="cls-1" d="M91.62,24c-2.42-4-7.36-6-14.22-6a43.71,43.71,0,0,0-7.16.64q-1.13.19-2.29.43.72,2.2,1.32,4.59.88-.18,1.75-.32a39.27,39.27,0,0,1,6.4-.58c5.12,0,8.62,1.3,10.12,3.76,2.09,3.43.36,9.31-4.74,16.14-.63.85-1.32,1.7-2,2.55q1.78,1.74,3.37,3.51C92.25,39.2,95.35,30.11,91.62,24Z"/><path class="cls-1" d="M61.5,20.69c.48,1.46.92,3,1.32,4.57,1.58-.49,3.14-.92,4.66-1.27q-.6-2.38-1.31-4.58Q63.88,20,61.5,20.69Z"/><path class="cls-1" d="M25.57,46.33q.1-3.31.36-6.48c-2.23,1.77-4.33,3.58-6.28,5.41Q21.19,47,22.93,48.7C23.78,47.9,24.67,47.11,25.57,46.33Z"/><path class="cls-1" d="M21.57,50q-1.74-1.71-3.28-3.44c-1.18,1.16-2.31,2.33-3.36,3.5q1.55,1.72,3.32,3.44Q19.8,51.75,21.57,50Z"/><path class="cls-1" d="M35,25.26c.4-1.58.84-3.11,1.32-4.57-1.58-.49-3.14-.92-4.67-1.28Q31,21.6,30.37,24C31.89,24.34,33.45,24.77,35,25.26Z"/><path class="cls-1" d="M86.62,54.55a82,82,0,0,0-14.7-14.71q.26,3.16.36,6.48A72.12,72.12,0,0,1,82.81,57.4c5.1,6.83,6.83,12.72,4.74,16.14C86,76,82.49,77.31,77.47,77.31A39.39,39.39,0,0,1,71,76.73l-1.75-.32Q68.67,78.78,68,81c.77.16,1.54.31,2.29.43a43.68,43.68,0,0,0,7.14.64c6.9,0,11.83-2.09,14.23-6C94.82,70.78,93,63.15,86.62,54.55Z"/><path class="cls-1" d="M33.23,65.49q-.43-3.07-.69-6.29-2.61-1.89-5-3.87c.09,2.2.24,4.34.45,6.43Q30.49,63.65,33.23,65.49Z"/><path class="cls-1" d="M40.21,64.3q-2.9-1.77-5.63-3.66.3,3.2.79,6.25,1.16.74,2.36,1.48a109.07,109.07,0,0,0,22,10.37c.48-1.46.92-3,1.31-4.58A104.4,104.4,0,0,1,40.21,64.3Z"/><path class="cls-1" d="M60.12,31.64a109.05,109.05,0,0,0-22-10.37c-.48,1.46-.92,3-1.31,4.58A104.39,104.39,0,0,1,57.64,35.7q2.9,1.77,5.63,3.66-.3-3.2-.79-6.24Q61.31,32.37,60.12,31.64Z"/><path class="cls-1" d="M25.57,53.68A72.12,72.12,0,0,1,15,42.6c-5.1-6.83-6.83-12.72-4.74-16.14,1.5-2.46,5-3.76,10.12-3.76a39.27,39.27,0,0,1,6.4.58l1.75.32q.61-2.38,1.32-4.58c-.77-.16-1.54-.31-2.29-.43a43.69,43.69,0,0,0-7.16-.64C13.6,17.94,8.65,20,6.23,24,1,32.6,9.25,47.07,25.93,60.2Q25.67,57,25.57,53.68Z"/><path class="cls-1" d="M64.62,34.52q.43,3.06.69,6.28,2.61,1.89,5,3.87c-.09-2.19-.24-4.32-.44-6.41Q67.34,36.34,64.62,34.52Z"/><path class="cls-1" d="M62.82,74.74c-.4,1.58-.84,3.11-1.32,4.57,1.58.49,3.14.92,4.67,1.28q.71-2.19,1.31-4.58C66,75.66,64.4,75.23,62.82,74.74Z"/><circle class="cls-4" cx="88.91" cy="37.62" r="6.43"/><circle class="cls-5" cx="16.54" cy="21.27" r="6.43" transform="translate(-9.8 15.62) rotate(-40.03)"/></svg>