<svg id="Layer_1" data-name="Layer 1" xmlns="http://www.w3.org/2000/svg" viewBox="0 0 100 100"><defs><style>.cls-1{fill:#e2b68a;}.cls-2{fill:#a68667;}.cls-3{fill:#fff;}.cls-4{fill:#f37d3b;}</style></defs><title>flour</title><path class="cls-1" d="M25.35,25.05c-2.23,2.23-11.18,3.09-11.18,3.09S15,19.2,17.27,17a5.72,5.72,0,1,1,8.08,8.08Z"/><path class="cls-1" d="M85.82,20.17c0,3.16-5.72,10.09-5.72,10.09s-5.72-6.93-5.72-10.09a5.72,5.72,0,0,1,11.43,0Z"/><path class="cls-1" d="M62.12,98.36H38c-13.62,0-27.26-10.4-25.64-23.1,1.64-16.47,7.08-32.93,6.89-49.4-.55-12.71,7.87-13.48,20.11-13.48H60.75c11.63,0,22.77.77,24.62,13.48,1.78,16.47-2.07,32.93-2.13,49.4C83,88,75.6,98.36,62.12,98.36Z"/><path class="cls-1" d="M22.65,96.91C20.42,99.14,11.47,100,11.47,100s.86-8.94,3.09-11.18a5.72,5.72,0,0,1,8.08,8.08Z"/><path class="cls-1" d="M75.35,96.91C77.58,99.14,86.53,100,86.53,100s-.86-8.94-3.09-11.18a5.72,5.72,0,0,0-8.08,8.08Z"/><rect class="cls-2" x="67.05" y="15.43" width="1.93" height="2.89"/><path class="cls-2" d="M69,83.19H67.05V77.79H69Zm0-10.81H67.05V67H69Zm0-10.81H67.05V56.16H69Zm0-10.81H67.05V45.35H69Zm0-10.81H67.05V34.54H69Zm0-10.81H67.05V23.73H69Z"/><rect class="cls-2" x="67.05" y="88.6" width="1.93" height="2.89"/><ellipse class="cls-3" cx="50.1" cy="15.37" rx="26.29" ry="4.51"/><path class="cls-3" d="M39.49,9.71C43.28,7.37,47.85,4.11,50,.91A2,2,0,0,1,53.2.79,39.49,39.49,0,0,0,64,10.59a2,2,0,0,1-1.11,3.64l-22.49-.87A2,2,0,0,1,39.49,9.71Z"/><path class="cls-3" d="M56.67,9.76s12.55,4.44,21.14,5.15L65.55,16.76,54,16.12"/><path class="cls-3" d="M34.69,9.95a22.82,22.82,0,0,0,12.26-.73,2.51,2.51,0,0,1,3.35,2.37v3.17a2.52,2.52,0,0,1-2.85,2.49L34,15.45a2.52,2.52,0,0,1-2-1.62l-.2-.55A2.52,2.52,0,0,1,34.69,9.95Z"/><path class="cls-3" d="M56.65,9.31c-.23,0-.47,0-.7,0a9.94,9.94,0,0,1-3.41-.6,3.57,3.57,0,0,0-3.82.85,12.34,12.34,0,0,1-8.88,3.76,12.3,12.3,0,0,1-6.35-1.75,3.55,3.55,0,0,0-5.35,2.18,3.23,3.23,0,0,0-.1.66c0,1.76,4.36,3.31,11,4.23,1.33.18,2.74.34,4.24.47l2.29.17c2.34.15,4.83.23,7.42.23h0a92.6,92.6,0,0,0,17.63-1.49,29,29,0,0,0,4.29-1.17A9.73,9.73,0,0,0,76.8,16a2.63,2.63,0,0,0,1-1l-1.37,0C67.34,14.95,59.61,12.6,56.65,9.31Z"/><path class="cls-3" d="M32.85,10.92s-6.49,2.46-8.53,2.65c0,0,5.12,3.43,10.21,4.31"/><circle class="cls-3" cx="32.82" cy="20.34" r="1.17"/><circle class="cls-3" cx="40.85" cy="20.2" r="0.66"/><circle class="cls-3" cx="45.99" cy="21.29" r="0.43"/><circle class="cls-3" cx="28.11" cy="15.48" r="1.08"/><circle class="cls-3" cx="40.56" cy="8.89" r="0.37"/><circle class="cls-3" cx="43.07" cy="7.73" r="0.8"/><circle class="cls-3" cx="46.38" cy="5.81" r="1.31"/><circle class="cls-3" cx="44.77" cy="6.58" r="0.53"/><circle class="cls-3" cx="49.09" cy="3.57" r="2.06"/><circle class="cls-3" cx="55.77" cy="4.75" r="1.18"/><circle class="cls-3" cx="58.38" cy="6.8" r="0.49"/><circle class="cls-3" cx="33.48" cy="9.89" r="0.4"/><circle class="cls-3" cx="35.42" cy="10.21" r="0.72"/><circle class="cls-3" cx="27.97" cy="12.89" r="0.76"/><circle class="cls-3" cx="42.4" cy="8" r="0.89"/><circle class="cls-3" cx="42.52" cy="7.13" r="0.55"/><circle class="cls-3" cx="61.24" cy="8.59" r="0.9"/><circle class="cls-3" cx="63.47" cy="9.77" r="0.51"/><circle class="cls-3" cx="67.59" cy="12.89" r="0.76"/><circle class="cls-3" cx="70.15" cy="13.56" r="0.39"/><circle class="cls-3" cx="63.23" cy="19.02" r="1.49"/><circle class="cls-3" cx="66.46" cy="19.55" r="0.38"/><circle class="cls-3" cx="64.94" cy="18.45" r="0.57"/><circle class="cls-3" cx="70.58" cy="19.78" r="0.43"/><circle class="cls-3" cx="38.1" cy="19.98" r="1.74"/><circle class="cls-3" cx="40.68" cy="20.48" r="2.61"/><circle class="cls-3" cx="39.29" cy="22.81" r="2.31"/><circle class="cls-3" cx="36.25" cy="19.79" r="2.26"/><circle class="cls-3" cx="36.9" cy="26.79" r="0.53"/><circle class="cls-3" cx="41.41" cy="28.9" r="1.57"/><circle class="cls-3" cx="40.68" cy="25.62" r="1.7"/><circle class="cls-3" cx="44.22" cy="25.57" r="0.93"/><circle class="cls-3" cx="41.82" cy="23.99" r="1.63"/><circle class="cls-3" cx="41.37" cy="26.31" r="1.67"/><circle class="cls-3" cx="44.31" cy="29.04" r="0.45"/><rect class="cls-4" x="32.99" y="55.63" width="1.88" height="20.98" rx="0.44" ry="0.44" transform="translate(7.01 -3.15) rotate(5.93)"/><path class="cls-4" d="M33.43,57.57a9.51,9.51,0,0,1,.85,5.1,4.9,4.9,0,0,1-3.53-2.21,9.51,9.51,0,0,1-.85-5.1A4.9,4.9,0,0,1,33.43,57.57Z"/><path class="cls-4" d="M36.17,57.85a9.51,9.51,0,0,0-1.88,4.82,4.9,4.9,0,0,0,3.91-1.44,9.51,9.51,0,0,0,1.88-4.82A4.9,4.9,0,0,0,36.17,57.85Z"/><path class="cls-4" d="M33.88,53.3a9.51,9.51,0,0,1,.85,5.1,4.9,4.9,0,0,1-3.53-2.21,9.51,9.51,0,0,1-.85-5.1A4.9,4.9,0,0,1,33.88,53.3Z"/><path class="cls-4" d="M36.61,53.58a9.51,9.51,0,0,0-1.88,4.82A4.9,4.9,0,0,0,38.64,57a9.51,9.51,0,0,0,1.88-4.82A4.9,4.9,0,0,0,36.61,53.58Z"/><path class="cls-4" d="M34.32,49a9.51,9.51,0,0,1,.85,5.1,4.9,4.9,0,0,1-3.53-2.21,9.51,9.51,0,0,1-.85-5.1A4.9,4.9,0,0,1,34.32,49Z"/><path class="cls-4" d="M37.06,49.31a9.51,9.51,0,0,0-1.88,4.82,4.9,4.9,0,0,0,3.91-1.44A9.51,9.51,0,0,0,41,47.87,4.9,4.9,0,0,0,37.06,49.31Z"/><path class="cls-4" d="M34.76,44.76a9.51,9.51,0,0,1,.85,5.1,4.9,4.9,0,0,1-3.53-2.21,9.51,9.51,0,0,1-.85-5.1A4.9,4.9,0,0,1,34.76,44.76Z"/><path class="cls-4" d="M37.5,45a9.51,9.51,0,0,0-1.88,4.82,4.9,4.9,0,0,0,3.91-1.44,9.51,9.51,0,0,0,1.88-4.82A4.9,4.9,0,0,0,37.5,45Z"/><path class="cls-4" d="M35.21,40.49a9.51,9.51,0,0,1,.85,5.1,4.9,4.9,0,0,1-3.53-2.21,9.51,9.51,0,0,1-.85-5.1A4.9,4.9,0,0,1,35.21,40.49Z"/><path class="cls-4" d="M37.94,40.77a9.51,9.51,0,0,0-1.88,4.82A4.9,4.9,0,0,0,40,44.15a9.51,9.51,0,0,0,1.88-4.82A4.9,4.9,0,0,0,37.94,40.77Z"/><path class="cls-4" d="M33.58,48.92a45.92,45.92,0,0,0,.71,13.75A45.92,45.92,0,0,0,37.8,49.36,45.92,45.92,0,0,0,37.1,35.6,45.92,45.92,0,0,0,33.58,48.92Z"/><path class="cls-4" d="M35.66,42a1.48,1.48,0,0,0-.29-.26,1.49,1.49,0,0,1-2.24,1.82A1.5,1.5,0,1,0,35.66,42Z"/><path class="cls-4" d="M39.23,44.51a1.48,1.48,0,0,0,.26-.29A1.49,1.49,0,0,1,37.67,42a1.5,1.5,0,1,0,1.55,2.53Z"/><path class="cls-4" d="M35.23,46.11a1.48,1.48,0,0,0-.29-.26,1.49,1.49,0,0,1-2.24,1.82,1.5,1.5,0,1,0,2.53-1.55Z"/><path class="cls-4" d="M38.8,48.61a1.48,1.48,0,0,0,.26-.29,1.49,1.49,0,0,1-1.82-2.24,1.5,1.5,0,1,0,1.55,2.53Z"/><path class="cls-4" d="M34.81,50.21a1.48,1.48,0,0,0-.29-.26,1.49,1.49,0,0,1-2.24,1.82,1.5,1.5,0,1,0,2.53-1.55Z"/><path class="cls-4" d="M38.38,52.71a1.48,1.48,0,0,0,.26-.29,1.49,1.49,0,0,1-1.82-2.24,1.5,1.5,0,1,0,1.55,2.53Z"/><path class="cls-4" d="M34.38,54.3a1.48,1.48,0,0,0-.29-.26,1.49,1.49,0,0,1-2.24,1.82,1.5,1.5,0,1,0,2.53-1.55Z"/><path class="cls-4" d="M38,56.8a1.48,1.48,0,0,0,.26-.29,1.49,1.49,0,0,1-1.82-2.24A1.5,1.5,0,1,0,38,56.8Z"/><path class="cls-4" d="M34.63,73.56a2.16,2.16,0,1,1-3.36,2.72c-.75-.93-5.14-9.76-5.14-9.76S33.88,72.64,34.63,73.56Z"/><path class="cls-4" d="M34.44,76.62a2.16,2.16,0,1,1-2.72-3.36c.93-.75,9.76-5.14,9.76-5.14S35.37,75.87,34.44,76.62Z"/></svg>