<svg id="Layer_1" data-name="Layer 1" xmlns="http://www.w3.org/2000/svg" viewBox="0 0 100 100"><defs><style>.cls-1{fill:#5a9eba;}.cls-2{fill:#9dc8dc;}.cls-3{fill:#447d93;}.cls-4{fill:#6ab8d9;}.cls-5{fill:#ebf7fd;}</style></defs><title>ocean</title><path class="cls-1" d="M81.93,26.6V40.83L48.78,38l20.1-17.41A7.89,7.89,0,0,1,81.93,26.6Z"/><path class="cls-1" d="M59.66,22.69V45.24L26.52,34.14l20.1-17.41A7.89,7.89,0,0,1,59.66,22.69Z"/><path class="cls-1" d="M34.59,26.68V40.91L1.44,47.58l20.1-26.87A7.89,7.89,0,0,1,34.59,26.68Z"/><circle class="cls-2" cx="28.22" cy="20.33" r="3.61" transform="translate(-6.09 26.01) rotate(-45.17)"/><circle class="cls-2" cx="28.11" cy="25.3" r="2.46" transform="translate(-9.65 27.4) rotate(-45.17)"/><circle class="cls-2" cx="32.19" cy="22.84" r="3.2" transform="translate(-6.71 29.57) rotate(-45.17)"/><circle class="cls-2" cx="32.72" cy="18.93" r="2.78" transform="translate(-3.77 28.79) rotate(-45.17)"/><circle class="cls-2" cx="24.73" cy="19.62" r="2.59" transform="translate(-6.62 23.33) rotate(-45.17)"/><circle class="cls-2" cx="22.18" cy="20.65" r="2.63" transform="translate(-8.1 21.82) rotate(-45.17)"/><circle class="cls-2" cx="20.7" cy="22.37" r="2.79" transform="translate(-9.76 21.28) rotate(-45.17)"/><circle class="cls-2" cx="18.57" cy="24.5" r="2.47" transform="translate(-11.9 20.4) rotate(-45.17)"/><circle class="cls-2" cx="18.11" cy="27.53" r="1.59" transform="translate(-14.18 20.97) rotate(-45.17)"/><circle class="cls-2" cx="32.46" cy="27.63" r="1.59" transform="translate(-10.02 31.17) rotate(-45.17)"/><circle class="cls-2" cx="17.85" cy="30.04" r="1.22" transform="translate(-16.04 21.53) rotate(-45.17)"/><circle class="cls-2" cx="31.45" cy="29.86" r="1.22" transform="translate(-11.9 31.12) rotate(-45.17)"/><circle class="cls-2" cx="33.3" cy="26.26" r="1.22" transform="translate(-8.8 31.37) rotate(-45.17)"/><circle class="cls-2" cx="53.6" cy="16.35" r="3.61" transform="translate(4.22 42.84) rotate(-45.17)"/><circle class="cls-2" cx="53.48" cy="21.32" r="2.46" transform="translate(0.66 44.22) rotate(-45.17)"/><circle class="cls-2" cx="57.56" cy="18.86" r="3.2" transform="translate(3.61 46.39) rotate(-45.17)"/><circle class="cls-2" cx="58.1" cy="14.95" r="2.78" transform="translate(6.54 45.62) rotate(-45.17)"/><circle class="cls-2" cx="50.11" cy="15.64" r="2.59" transform="translate(3.69 40.16) rotate(-45.17)"/><circle class="cls-2" cx="47.56" cy="16.66" r="2.63" transform="translate(2.21 38.65) rotate(-45.17)"/><circle class="cls-2" cx="46.07" cy="18.38" r="2.79" transform="translate(0.56 38.1) rotate(-45.17)"/><circle class="cls-2" cx="43.95" cy="20.52" r="2.47" transform="translate(-1.59 37.22) rotate(-45.17)"/><circle class="cls-2" cx="43.49" cy="23.55" r="1.59" transform="translate(-3.87 37.79) rotate(-45.17)"/><circle class="cls-2" cx="57.83" cy="23.64" r="1.59" transform="translate(0.29 48) rotate(-45.17)"/><circle class="cls-2" cx="43.23" cy="26.06" r="1.22" transform="translate(-5.73 38.35) rotate(-45.17)"/><circle class="cls-2" cx="56.83" cy="25.88" r="1.22" transform="translate(-1.59 47.94) rotate(-45.17)"/><circle class="cls-2" cx="58.68" cy="22.28" r="1.22" transform="translate(1.51 48.19) rotate(-45.17)"/><circle class="cls-2" cx="76.17" cy="20.25" r="3.61" transform="translate(8.11 60) rotate(-45.17)"/><circle class="cls-2" cx="76.06" cy="25.22" r="2.46" transform="translate(4.56 61.38) rotate(-45.17)"/><circle class="cls-2" cx="80.14" cy="22.76" r="3.2" transform="translate(7.5 63.55) rotate(-45.17)"/><circle class="cls-2" cx="80.67" cy="18.85" r="2.78" transform="translate(10.43 62.78) rotate(-45.17)"/><circle class="cls-2" cx="72.69" cy="19.54" r="2.59" transform="translate(7.59 57.32) rotate(-45.17)"/><circle class="cls-2" cx="70.13" cy="20.56" r="2.63" transform="translate(6.11 55.81) rotate(-45.17)"/><circle class="cls-2" cx="68.65" cy="22.28" r="2.79" transform="translate(4.45 55.26) rotate(-45.17)"/><circle class="cls-2" cx="66.52" cy="24.42" r="2.47" transform="translate(2.31 54.39) rotate(-45.17)"/><circle class="cls-2" cx="66.06" cy="27.45" r="1.59" transform="translate(0.02 54.95) rotate(-45.17)"/><circle class="cls-2" cx="80.41" cy="27.55" r="1.59" transform="translate(4.19 65.16) rotate(-45.17)"/><circle class="cls-2" cx="65.81" cy="29.96" r="1.22" transform="translate(-1.83 55.51) rotate(-45.17)"/><circle class="cls-2" cx="79.4" cy="29.78" r="1.22" transform="translate(2.31 65.1) rotate(-45.17)"/><circle class="cls-2" cx="81.25" cy="26.18" r="1.22" transform="translate(5.4 65.35) rotate(-45.17)"/><rect class="cls-1" y="64.34" width="97.65" height="15.46"/><path class="cls-3" d="M0,78.8v4.81a4.22,4.22,0,0,0,4.22,4.22h89.2a4.22,4.22,0,0,0,4.22-4.22V78.8Z"/><path class="cls-4" d="M93.09,43.49V32.92A7.89,7.89,0,0,0,80,27L66.84,38.39V32.92a7.89,7.89,0,0,0-13.05-6L40.59,38.39V32.92a7.89,7.89,0,0,0-13.05-6l-19.61,17H6.4l0,.16A4.23,4.23,0,0,0,0,47.69V65.34H97.65V47.69A4.2,4.2,0,0,0,93.09,43.49Z"/><circle class="cls-5" cx="41.57" cy="28.45" r="3.61"/><circle class="cls-5" cx="37.96" cy="31.87" r="2.46"/><circle class="cls-5" cx="42.58" cy="33.03" r="3.2"/><circle class="cls-5" cx="45.73" cy="30.66" r="2.78"/><circle class="cls-5" cx="39.61" cy="25.48" r="2.59"/><circle class="cls-5" cx="37.09" cy="24.39" r="2.63"/><circle class="cls-5" cx="34.82" cy="24.55" r="2.79"/><circle class="cls-5" cx="31.8" cy="24.55" r="2.47"/><circle class="cls-5" cx="29.33" cy="26.36" r="1.59"/><circle class="cls-5" cx="39.38" cy="36.6" r="1.59"/><circle class="cls-5" cx="27.37" cy="27.94" r="1.22"/><circle class="cls-5" cx="38.76" cy="38.32" r="1.22"/><circle class="cls-5" cx="40.94" cy="36.23" r="1.22"/><circle class="cls-5" cx="67.31" cy="28.45" r="3.61"/><circle class="cls-5" cx="63.71" cy="31.87" r="2.46"/><circle class="cls-5" cx="68.32" cy="33.03" r="3.2"/><circle class="cls-5" cx="71.48" cy="30.66" r="2.78"/><circle class="cls-5" cx="65.35" cy="25.48" r="2.59"/><circle class="cls-5" cx="62.83" cy="24.39" r="2.63"/><circle class="cls-5" cx="60.56" cy="24.55" r="2.79"/><circle class="cls-5" cx="57.55" cy="24.55" r="2.47"/><circle class="cls-5" cx="55.08" cy="26.36" r="1.59"/><circle class="cls-5" cx="65.12" cy="36.6" r="1.59"/><circle class="cls-5" cx="53.12" cy="27.94" r="1.22"/><circle class="cls-5" cx="61.61" cy="32.62" r="1.22"/><circle class="cls-5" cx="66.68" cy="36.23" r="1.22"/><circle class="cls-5" cx="93.06" cy="28.45" r="3.61"/><circle class="cls-5" cx="89.99" cy="27.02" r="2.46"/><circle class="cls-5" cx="92.41" cy="23.44" r="1.78"/><circle class="cls-5" cx="94.07" cy="33.03" r="3.2"/><circle class="cls-5" cx="97.22" cy="30.66" r="2.78"/><circle class="cls-5" cx="91.1" cy="25.48" r="2.59"/><circle class="cls-5" cx="88.57" cy="24.39" r="2.63"/><circle class="cls-5" cx="86.31" cy="24.55" r="2.79"/><circle class="cls-5" cx="83.29" cy="24.55" r="2.47"/><circle class="cls-5" cx="80.82" cy="26.36" r="1.59"/><circle class="cls-5" cx="90.87" cy="36.6" r="1.59"/><circle class="cls-5" cx="78.86" cy="27.94" r="1.22"/><circle class="cls-5" cx="88.57" cy="37.46" r="1.22"/><circle class="cls-5" cx="92.43" cy="36.23" r="1.22"/></svg>