<svg id="Layer_1" data-name="Layer 1" xmlns="http://www.w3.org/2000/svg" viewBox="0 0 100 100"><defs><style>.cls-1{fill:#6ab8d9;}.cls-2{fill:#ebf7fd;}.cls-3{fill:#6ab7d9;}.cls-4{fill:#f37d3b;}.cls-5{fill:#ffc640;}.cls-6{fill:#fff588;}.cls-7{fill:#171717;}.cls-8{fill:#faad3f;}.cls-9{fill:#bc6842;}</style></defs><title>firefighter</title><path class="cls-1" d="M85.61,28.26a3,3,0,0,1-3-3v-15a1.34,1.34,0,1,0-2.68,0,3,3,0,1,1-6,0,7.33,7.33,0,1,1,14.67,0v15A3,3,0,0,1,85.61,28.26Z"/><path class="cls-1" d="M85.61,28.26a3,3,0,0,1-3-3v-15a7.33,7.33,0,1,1,14.67,0,3,3,0,0,1-6,0,1.34,1.34,0,1,0-2.68,0v15A3,3,0,0,1,85.61,28.26Z"/><rect class="cls-2" x="84.78" y="8.93" width="1.95" height="16.82" rx="0.42" ry="0.42"/><path class="cls-3" d="M95.87,15.83a.54.54,0,1,1-1.07,0,3.64,3.64,0,0,1,.54-1.08A3.64,3.64,0,0,1,95.87,15.83Z"/><path class="cls-2" d="M94.59,18.34a1.17,1.17,0,0,1-2.34,0A8,8,0,0,1,93.42,16,8,8,0,0,1,94.59,18.34Z"/><path class="cls-2" d="M76.93,16.6a.69.69,0,1,1-1.38,0,4.67,4.67,0,0,1,.69-1.39A4.67,4.67,0,0,1,76.93,16.6Z"/><path class="cls-4" d="M5.76,36.75C5.76,24,16.06,6.8,28.78,6.8s23,17.23,23,29.95"/><rect class="cls-4" y="34.41" width="57.69" height="6.13" rx="1.33" ry="1.33"/><circle class="cls-5" cx="46.56" cy="28.09" r="7.23"/><rect class="cls-5" x="39.32" y="16.33" width="4.83" height="14.18" rx="1.04" ry="1.04"/><rect class="cls-5" x="44.15" y="16.33" width="4.83" height="14.18" rx="1.04" ry="1.04"/><rect class="cls-5" x="48.98" y="16.33" width="4.83" height="14.18" rx="1.04" ry="1.04"/><rect class="cls-6" x="75.45" y="71.47" width="8.19" height="40.91" rx="1.77" ry="1.77" transform="translate(-12.38 171.47) rotate(-90)"/><rect class="cls-6" x="75.45" y="63.73" width="8.19" height="40.91" rx="1.77" ry="1.77" transform="translate(-4.64 163.73) rotate(-90)"/><rect class="cls-6" x="75.45" y="55.54" width="8.19" height="40.91" rx="1.77" ry="1.77" transform="translate(3.55 155.54) rotate(-90)"/><path class="cls-6" d="M81.62,78.06a4.1,4.1,0,0,0,8.2,0V34.52h-8.2Z"/><path class="cls-1" d="M89.81,34.52V28a4.1,4.1,0,0,0-8.2,0v6.52Z"/><rect class="cls-7" x="78.12" y="22.32" width="15.18" height="4.81" rx="1.04" ry="1.04" transform="translate(171.43 49.46) rotate(-180)"/><rect class="cls-7" x="80.72" y="26.17" width="9.99" height="3.92" transform="translate(171.43 56.25) rotate(180)"/><path class="cls-5" d="M41.84,54.18s3.1,8.75-20.31,14.56l12.23,7.68.83.52C49,69.2,41.84,54.18,41.84,54.18Z"/><circle class="cls-7" cx="14.35" cy="66.47" r="2.65" transform="translate(-25.2 11.15) rotate(-23.38)"/><path class="cls-8" d="M10.68,74.55c1,2.31,7.2,1.85,13.86-1a23.42,23.42,0,0,0,10.33-9.18C17,63.63,17.76,57.85,17.76,57.85S9.68,72.25,10.68,74.55Z"/><path class="cls-4" d="M16.06,55.9a1.93,1.93,0,0,1-3.85,0c0-1.06,1.93-3.9,1.93-3.9S16.06,54.84,16.06,55.9Z"/><path class="cls-4" d="M12.21,70.81a1.09,1.09,0,1,1-2.17,0,7.38,7.38,0,0,1,1.09-2.2A7.38,7.38,0,0,1,12.21,70.81Z"/><path class="cls-8" d="M48.36,68.09a3,3,0,1,1-6.08,0c0-1.68,3-6.14,3-6.14S48.36,66.42,48.36,68.09Z"/><circle class="cls-7" cx="18.71" cy="65.31" r="2.65"/><circle class="cls-7" cx="13.53" cy="67.68" r="1.45"/><circle class="cls-7" cx="20.97" cy="62.46" r="1.76"/><circle class="cls-7" cx="25.21" cy="59.34" r="3.32"/><circle class="cls-7" cx="26.74" cy="56.23" r="0.98"/><circle class="cls-7" cx="24.25" cy="53.89" r="1.51"/><circle class="cls-7" cx="37.99" cy="58.54" r="1.51"/><circle class="cls-7" cx="18.82" cy="51.25" r="0.48"/><circle class="cls-7" cx="40.66" cy="54.92" r="0.48"/><circle class="cls-7" cx="37.51" cy="56.86" r="0.48"/><circle class="cls-7" cx="18.65" cy="59.23" r="0.96" transform="translate(-9.65 3.96) rotate(-9.63)"/><circle class="cls-7" cx="21.89" cy="55.66" r="0.67" transform="translate(-9.01 4.45) rotate(-9.63)"/><path class="cls-8" d="M36.76,53.36a1.38,1.38,0,0,1-2.77,0,9.39,9.39,0,0,1,1.38-2.8A9.39,9.39,0,0,1,36.76,53.36Z"/><path class="cls-5" d="M35.16,67.47s7.28,5.76-9.46,23.13H41.12C49.18,76.4,35.16,67.47,35.16,67.47Z"/><path class="cls-4" d="M47.44,78A19.06,19.06,0,1,1,9.32,78c0-8.55,6.25-8.68,11.43-14.81,6.16-7.28,4.85-16.49,4.85-16.49S47.44,67.49,47.44,78Z"/><path class="cls-5" d="M26.19,83.65c0,.19.38-.07.6-.19s.5-.34.75-.53A15.41,15.41,0,0,0,29,81.6a16.62,16.62,0,0,0,2.51-3.34,18.37,18.37,0,0,0,2.41-8.95,21.95,21.95,0,0,1,4.34,9.78A25.05,25.05,0,0,1,38.61,85,27.09,27.09,0,0,1,38.27,88c-.1.52-.19,1-.33,1.58a8.9,8.9,0,0,1-.63,1.84,6.8,6.8,0,1,1-11.13-7.81Z"/><path class="cls-9" d="M30.56,90.56a20.85,20.85,0,0,0,2.19-2.5,22.06,22.06,0,0,0,1.88-2.89A11.35,11.35,0,0,0,36.2,78.4,12.7,12.7,0,0,1,37.28,86a25.45,25.45,0,0,1-.78,3.88,25.87,25.87,0,0,1-1.37,3.85l-.06.13a2.84,2.84,0,0,1-5.16-2.37A2.9,2.9,0,0,1,30.56,90.56Z"/><path class="cls-5" d="M28.38,85.14a3.53,3.53,0,1,1-7.05,0c0-1.95,3.53-7.13,3.53-7.13S28.38,83.19,28.38,85.14Z"/><path class="cls-5" d="M18.74,78.65a1.76,1.76,0,0,1-3.53,0c0-1,1.76-3.56,1.76-3.56S18.74,77.67,18.74,78.65Z"/></svg>