<svg id="Layer_1" data-name="Layer 1" xmlns="http://www.w3.org/2000/svg" viewBox="0 0 100 100"><defs><style>.cls-1{fill:#7d7d7d;}.cls-2{fill:#b3b3b3;}</style></defs><title>tool</title><path class="cls-1" d="M100,26.27,96.74,15,84.05,28.05l-9.3-2.34L72.13,16.5,84.79,3.44,73.32.6,58.49,16l2.75,9.51c-.22.18-.44.37-.64.58L25.69,61,14.82,58.32,0,73.73,3.26,85,15.95,71.95l9.3,2.34,2.62,9.22L15.21,96.56,26.68,99.4,41.51,84,38.6,73.93,73.51,39l.16-.18,11.5,2.85Zm-63.33,41A3.23,3.23,0,1,1,38,64.69,3.22,3.22,0,0,1,36.67,67.26Z"/><rect class="cls-2" x="33.68" y="44.86" width="36.43" height="5.65" rx="1.31" ry="1.31" transform="translate(-18.52 50.66) rotate(-45)"/></svg>