<svg id="Layer_1" data-name="Layer 1" xmlns="http://www.w3.org/2000/svg" viewBox="0 0 100 100"><defs><style>.cls-1{fill:#a6a8ab;}.cls-2{fill:#f05c38;}.cls-3{fill:#d0d2d3;}</style></defs><title>hammer</title><path class="cls-1" d="M55.87,27.49,3.07,86.59a5.15,5.15,0,0,0-.17,7.32L5.28,96.3a5.14,5.14,0,0,0,7.32-.17L69.54,32.55Z"/><path class="cls-2" d="M46.59,56.74l-8.3-8a2.42,2.42,0,0,0-3.49.13L2,85.57a7,7,0,0,0-2,5.06,6,6,0,0,0,1.7,4.14l.17.17,2.38,2.38a6.57,6.57,0,0,0,9.42-.23l33-37A2.42,2.42,0,0,0,46.59,56.74Z"/><path class="cls-3" d="M55.88,27.56c3.92-3.92,4.43-10,.34-14.14-8-8-12.6-7.15-21.63-7.15C48.22.3,58.1-1.06,68,3.54c4.26,1.87,6,3.58,9.37,7l6.13,6.13a10.54,10.54,0,0,1,2.9,5.62c.51,3.24-.34,3.92,1.87,6.3a1.65,1.65,0,0,0,2.38,0,1.65,1.65,0,0,1,2.38,0l6,6a3.29,3.29,0,0,1,0,4.77L86.88,51.4a3.29,3.29,0,0,1-4.77,0l-5.62-5.79a1.65,1.65,0,0,1,0-2.38,1.85,1.85,0,0,0,0-2.55c-2.38-2.38-3.07-1.53-6.3-1.87a10,10,0,0,1-5.62-2.9l-8.69-8.35"/></svg>