<svg id="Layer_1" data-name="Layer 1" xmlns="http://www.w3.org/2000/svg" viewBox="0 0 100 100"><defs><style>.cls-1{fill:#05b58a;}.cls-2{fill:#fcca97;}.cls-3{opacity:0.24;}.cls-4{fill:#885e59;}.cls-5{fill:#9dc7db;}.cls-6{fill:#6ab7d8;}.cls-7{fill:#c3ced4;}.cls-8{fill:#babcbe;}.cls-9{fill:#eaf6fd;}.cls-10{fill:#7d7d7d;}.cls-11{fill:#3f3f40;}.cls-12{fill:#171717;}.cls-13{fill:#ffc540;}.cls-14{fill:#f05c37;}</style></defs><title>fairy tale</title><path class="cls-1" d="M46.68,72.73H1.76A1.68,1.68,0,0,1,.14,70.3L14.89,28.44A2.28,2.28,0,0,1,17,27.27H47.73c.93,0,1.69.52,1.68,1.17L49.16,70.3A2.48,2.48,0,0,1,46.68,72.73Z"/><path class="cls-1" d="M98.24,72.73H53.32a2.48,2.48,0,0,1-2.48-2.43l-.25-41.86c0-.65.75-1.17,1.68-1.17H83a2.28,2.28,0,0,1,2.1,1.17L99.86,70.3A1.68,1.68,0,0,1,98.24,72.73Z"/><path class="cls-1" d="M53.39,28.46l1.42,41.81A2.42,2.42,0,0,1,54.18,72a2.27,2.27,0,0,1-1.64.73,5.78,5.78,0,0,0-5.24,0A2.32,2.32,0,0,1,45,70.27l1.46-41.81c0-.65.76-1.18,1.65-1.18a5.58,5.58,0,0,0,3.58,0,2.08,2.08,0,0,1,1.14.34A1.1,1.1,0,0,1,53.39,28.46Z"/><path class="cls-2" d="M50.09,29.63l0,34.62a2.42,2.42,0,0,1-.19.93,2.27,2.27,0,0,1-2.06,1.43H7.17a1.63,1.63,0,0,1-1.49-2.36L16.89,29.63a2.21,2.21,0,0,1,2-1.28H48.45a1.7,1.7,0,0,1,1.5.77A1,1,0,0,1,50.09,29.63Z"/><path class="cls-2" d="M83,29.63,94.18,64.25a1.64,1.64,0,0,1-1.49,2.36H52a2.26,2.26,0,0,1-2.06-1.43,2.42,2.42,0,0,1-.19-.93l.06-34.62a1,1,0,0,1,.14-.52,1.7,1.7,0,0,1,1.5-.77H81A2.21,2.21,0,0,1,83,29.63Z"/><g class="cls-3"><path class="cls-4" d="M51.93,28.35l.73,38.26H52a2.26,2.26,0,0,1-2.06-1.43,2.27,2.27,0,0,1-2.06,1.43H47.4l.72-38.26h.34a1.7,1.7,0,0,1,1.5.77,1.7,1.7,0,0,1,1.5-.77Z"/></g><path class="cls-1" d="M70.32,52c-.18.84-1.47,1.24-3.06,1a5.49,5.49,0,0,1-2.75.65,6.84,6.84,0,0,1-1.93-.27,2,2,0,0,1-1.19.34c-.85,0-1.57-.38-1.61-.85a.4.4,0,0,1,0-.1c-1.14.16-2,0-2.26-.39a.71.71,0,0,1,.11-.74,2.47,2.47,0,0,1,.36-.42c-1.39-.4-2.36-1.22-2.4-2.15s.63-1.51,1.66-1.92a1,1,0,0,1-.11-.4c-.05-.85,1-1.55,2.48-1.68A2.46,2.46,0,0,1,61.85,44a3,3,0,0,1,2.69,1.54,1.69,1.69,0,0,1,.54-.09,2.13,2.13,0,0,1,2,1.79v.05l.2.1a2.15,2.15,0,0,1,1.6.39c.6.51.59,1.41.07,2.32a3.29,3.29,0,0,1,1.19,1.16A1.16,1.16,0,0,1,70.32,52Z"/><polygon class="cls-5" points="80.29 54.38 63.7 54.38 63.44 37.84 74.83 37.84 80.29 54.38"/><path class="cls-5" d="M64.76,40H62.65A1.41,1.41,0,0,1,61.17,39l-.24-2.4c-.06-.55.49-1,1.21-1h2a1.41,1.41,0,0,1,1.45,1L66,39C66.05,39.54,65.51,40,64.76,40Z"/><path class="cls-5" d="M70.57,40H68.45A1.5,1.5,0,0,1,66.93,39l-.36-2.4c-.08-.55.44-1,1.16-1h2a1.5,1.5,0,0,1,1.51,1l.47,2.4C71.84,39.54,71.32,40,70.57,40Z"/><path class="cls-5" d="M76.37,40H74.26A1.6,1.6,0,0,1,72.68,39l-.49-2.4c-.11-.55.39-1,1.11-1h2a1.6,1.6,0,0,1,1.56,1l.59,2.4C77.62,39.54,77.12,40,76.37,40Z"/><path class="cls-6" d="M73.41,47.61H67.85c-.51-3.4.29-6,1.74-6S72.74,44.2,73.41,47.61Z"/><path class="cls-1" d="M89.72,56.83c0,.91-1.33,1.34-3,1.11a5,5,0,0,1-2.75.71,7.31,7.31,0,0,1-2-.29,1.76,1.76,0,0,1-1.19.37c-.89,0-1.69-.41-1.81-.92a.46.46,0,0,1,0-.11c-1.16.18-2.09,0-2.41-.42a.77.77,0,0,1,0-.8,2.14,2.14,0,0,1,.3-.45c-1.5-.43-2.64-1.31-2.83-2.32s.41-1.62,1.42-2.06a1.32,1.32,0,0,1-.17-.43c-.19-.92.82-1.67,2.31-1.8a2.13,2.13,0,0,1,2.12-1.26,3.66,3.66,0,0,1,3,1.65,1.57,1.57,0,0,1,.55-.09,2.7,2.7,0,0,1,2.4,1.93l0,.06.23.11a2.4,2.4,0,0,1,1.72.42,2.05,2.05,0,0,1,.44,2.5A4.34,4.34,0,0,1,89.45,56,1.43,1.43,0,0,1,89.72,56.83Z"/><path class="cls-1" d="M78.91,56.9l0,.1a.57.57,0,0,1,0,.07c.06.53-.56,1-1.56,1.23v.05c.12.56-.5,1-1.38,1a2.07,2.07,0,0,1-1.63-.68,7.15,7.15,0,0,1-1.17.09c-1.64,0-3.09-.5-3.5-1.16a.75.75,0,0,1-.11-.28.49.49,0,0,1,0-.07c-.88-.18-1.51-.55-1.57-1a.58.58,0,0,1,.25-.52c-.4-.18-.64-.4-.67-.64-.07-.47.75-.87,2-1a.66.66,0,0,1-.06-.19c-.08-.51.53-.93,1.37-.93H71a1.41,1.41,0,0,1,1.12-.46,1.85,1.85,0,0,1,1.54.75,2.73,2.73,0,0,1,.54-.3,4,4,0,0,1,3.62.29,1.06,1.06,0,0,1,.47,1c1.19.18,2.14.7,2.28,1.32S80,56.71,78.91,56.9Z"/><polyline class="cls-7" points="39.32 45.57 36.4 56.67 35.24 45.57"/><polyline class="cls-7" points="37.07 55.22 36.23 58.4 35.88 55.22"/><path class="cls-7" d="M36.32,54.82h.52a.53.53,0,0,0,.54-.44h0a.42.42,0,0,0-.45-.44h-.52a.54.54,0,0,0-.54.44h0A.41.41,0,0,0,36.32,54.82Z"/><path class="cls-7" d="M36.26,55.42h.52a.54.54,0,0,0,.54-.44h0a.42.42,0,0,0-.45-.44h-.52a.54.54,0,0,0-.55.44h0A.42.42,0,0,0,36.26,55.42Z"/><polygon class="cls-7" points="26.4 46.44 30.09 47.59 24.48 54.67 23.54 53.83 26.4 46.44"/><polyline class="cls-7" points="24.87 54.75 24.9 57.89 23.67 55.09"/><path class="cls-7" d="M24,54.59l.52-.15a.53.53,0,0,0,.42-.55h0a.43.43,0,0,0-.57-.27l-.52.15a.54.54,0,0,0-.42.55h0A.43.43,0,0,0,24,54.59Z"/><path class="cls-7" d="M24.11,55.15l.52-.15a.54.54,0,0,0,.42-.56h0a.43.43,0,0,0-.57-.27l-.52.15a.54.54,0,0,0-.43.56h0A.43.43,0,0,0,24.11,55.15Z"/><path class="cls-8" d="M22.79,47.33a3.25,3.25,0,0,0,0-.84,3.68,3.68,0,0,0-.16-.8,3,3,0,0,0-.36-.75,2.4,2.4,0,0,0-.66-.66,2.5,2.5,0,0,0-1.14-.39,3.71,3.71,0,0,0-1.41.15l-.33.11-.31.13-.54.27a6.11,6.11,0,0,0-1,.71,4.46,4.46,0,0,0-.84.94,3.92,3.92,0,0,0-.47,1,6.22,6.22,0,0,0-.19.88,5.11,5.11,0,0,1-.12.62,1.41,1.41,0,0,1-.06.16l0,0,0,0,0,0v0A.16.16,0,0,1,15,49a.63.63,0,0,1-.28,0,1.17,1.17,0,0,1-.59-.32.63.63,0,0,1-.17-.27.37.37,0,0,1,.12-.36.74.74,0,0,0-.26.14.83.83,0,0,0-.19.23,1,1,0,0,0-.11.51,1.21,1.21,0,0,0,.42.86,1.34,1.34,0,0,0,.56.28,1.77,1.77,0,0,0,.88,0l.23-.08.22-.1.2-.11.18-.13a2.52,2.52,0,0,0,.57-.59,4.27,4.27,0,0,0,.49-1c.1-.28.18-.53.28-.75a2.7,2.7,0,0,1,.74-1,4.24,4.24,0,0,1,.58-.42l.34-.2.15-.07.14-.06a1.73,1.73,0,0,1,.49-.13,1.31,1.31,0,0,1,.54.06,3.32,3.32,0,0,1,1.17.74A14.22,14.22,0,0,1,22.79,47.33Z"/><path class="cls-8" d="M36.61,35.44l-1.08,8.7-5.31,1,2.58-7.1S34,35,36.61,35.44Z"/><path class="cls-9" d="M28.27,51.42a24.71,24.71,0,0,0,9.61-1.63l-3.06-5.58.07,0c-.14.06-3.65,1.36-9.94.38a4.93,4.93,0,0,0-5,2.5c-.83,1.76.14,3.5,2.21,3.84A37.56,37.56,0,0,0,28.27,51.42Z"/><path class="cls-9" d="M30.84,52.07l.09,0H31l.09,0,.16,0,.14,0,.13,0,.52.09.52.06.27,0,.28,0a10.6,10.6,0,0,0,2.56-.19l.37-.08.38-.1L36.6,52l.2-.07.4-.14.19-.08.2-.09.39-.19a7.33,7.33,0,0,0,.75-.44,6.74,6.74,0,0,0,2.1-2.15A5.48,5.48,0,0,0,41.53,47q0-.19.06-.38c0-.12,0-.22,0-.34V46c0-.1,0-.2,0-.29a7.2,7.2,0,0,0-.14-1.06l-.12-.45c0-.07,0-.15-.06-.22l-.07-.21-.14-.41L40.91,43c-.05-.12-.1-.25-.16-.37l-.17-.35c-.11-.23-.23-.45-.36-.67L40,41.27,39.85,41c-.13-.2-.25-.41-.38-.6l-.39-.58c-.23-.31-.45-.61-.64-.9a8,8,0,0,1-.46-.8,2.26,2.26,0,0,0-.14-.26c0-.05-.08-.05-.19,0l0,0-.05,0-.06,0-.06,0-.07,0h-.16c-.11,0-.06-.08.06-.11a1.93,1.93,0,0,1,.49-.06,5.46,5.46,0,0,1,.64,0,12.62,12.62,0,0,1,1.4.21c.48.1,1,.22,1.43.35,1,.26,1.92.57,2.86.92a26.6,26.6,0,0,0-2.14-1.76c-.38-.28-.76-.55-1.17-.8A11.87,11.87,0,0,0,39.44,36a7.32,7.32,0,0,0-.79-.31,5.44,5.44,0,0,0-1-.23l-.15,0h-.68l-.19,0-.21,0-.21,0a3.75,3.75,0,0,0-.45.13l-.23.09-.22.11-.21.12-.2.13-.18.14-.17.15-.15.15-.07.08-.06.07a3.42,3.42,0,0,0-.38.57l-.07.13,0,.07,0,.06a4.68,4.68,0,0,0-.29.92A8.24,8.24,0,0,0,33.3,40c0,.5,0,1,.05,1.44V42c0,.2,0,.4,0,.59v.3l0,.29c0,.19,0,.39-.05.57l0,.28c0,.09,0,.18,0,.27l-.05.26-.07.24L33,45l0,.11-.08.21-.1.17,0,0,0,0-.05.05,0,0h-.09l0,0s0-.22.1-.46a1.43,1.43,0,0,1,.14-.22l.09-.12.11-.13.12-.12.14-.13.16-.12.17-.12c.11-.08.24-.14.36-.21l.18-.09.09,0,.08,0,.17-.07.09,0,.08,0,.15,0,.14,0c.37-.09.6-.12.75-.15h.11l.1,0h.31l.07,0a6.74,6.74,0,0,0-7.45,2.41A4,4,0,0,0,30.84,52.07Z"/><path class="cls-9" d="M32.84,43.55s2.58,1-7.41,1.09l1,3.87,11.63-1.14"/><path class="cls-10" d="M43.49,37.35a1.29,1.29,0,0,1,.89,1.9l0,.07a2.23,2.23,0,0,1-2.54.78l-.61-.21,2-2.65Z"/><path class="cls-9" d="M36.79,36.78l0-.07a2.3,2.3,0,0,1,2.5-.74l3.83,1.27-2,2.65-3.62-1.24A1.22,1.22,0,0,1,36.79,36.78Z"/><path class="cls-9" d="M36.63,35.51c0,.27.23.49.59.49a.67.67,0,0,0,.7-.49A8.12,8.12,0,0,0,37.46,34,10.42,10.42,0,0,0,36.63,35.51Z"/><path class="cls-10" d="M43.3,37.6c0,.31.29.56.7.56a.7.7,0,0,0,.76-.56c0-.31-.3-.56-.7-.56A.71.71,0,0,0,43.3,37.6Z"/><path class="cls-11" d="M35.38,37.13c0,.09.08.17.2.17a.23.23,0,0,0,.24-.17c0-.09-.08-.17-.2-.17A.23.23,0,0,0,35.38,37.13Z"/><path class="cls-12" d="M44,37.6c0,.09.09.17.21.17a.21.21,0,0,0,.23-.17c0-.09-.09-.17-.21-.17A.21.21,0,0,0,44,37.6Z"/><path class="cls-10" d="M42.22,38.16c0,.31.29.57.7.57a.72.72,0,0,0,.77-.57c0-.31-.29-.56-.7-.56A.72.72,0,0,0,42.22,38.16Z"/><path class="cls-12" d="M43,38.16c0,.09.09.17.21.17a.22.22,0,0,0,.23-.17c0-.09-.09-.17-.21-.17A.22.22,0,0,0,43,38.16Z"/><path class="cls-8" d="M36.21,35.38a6,6,0,0,1,3.07.31l-2.16.66A3.66,3.66,0,0,0,35.23,36s-1.38.9-1.42.91c-.75.28.56-.75.56-.75Z"/><path class="cls-9" d="M34.84,36c0,.27.22.49.58.49a.69.69,0,0,0,.71-.49,8.1,8.1,0,0,0-.44-1.56A10.74,10.74,0,0,0,34.84,36Z"/><polyline class="cls-9" points="35.38 45.36 32.09 56.42 31.31 45.36"/><polyline class="cls-9" points="32.82 54.97 31.87 58.14 31.63 54.97"/><path class="cls-9" d="M32.09,54.57h.52a.56.56,0,0,0,.56-.44h0a.4.4,0,0,0-.44-.43h-.52a.56.56,0,0,0-.56.43h0A.4.4,0,0,0,32.09,54.57Z"/><path class="cls-9" d="M32,55.16h.52a.56.56,0,0,0,.56-.44h0a.4.4,0,0,0-.44-.44h-.52a.56.56,0,0,0-.56.44h0A.4.4,0,0,0,32,55.16Z"/><polygon class="cls-12" points="37.84 58.94 34.77 58.94 36.5 57.09 37.84 58.94"/><polygon class="cls-12" points="33.27 58.94 30.2 58.94 31.99 57.09 33.27 58.94"/><polygon class="cls-12" points="26.01 58.94 22.94 58.94 24.84 57.09 26.01 58.94"/><polygon class="cls-9" points="22.4 46.44 26.05 47.59 20.2 54.67 19.29 53.83 22.4 46.44"/><polyline class="cls-9" points="20.59 54.75 20.52 57.89 19.38 55.09"/><path class="cls-9" d="M19.74,54.59l.53-.15a.55.55,0,0,0,.44-.55h0a.41.41,0,0,0-.56-.27l-.52.15a.56.56,0,0,0-.44.55h0A.41.41,0,0,0,19.74,54.59Z"/><path class="cls-9" d="M19.82,55.15l.53-.15a.56.56,0,0,0,.44-.56h0a.42.42,0,0,0-.57-.27l-.52.15a.56.56,0,0,0-.44.56h0A.41.41,0,0,0,19.82,55.15Z"/><polygon class="cls-12" points="21.59 58.94 18.52 58.94 20.48 57.09 21.59 58.94"/><path class="cls-13" d="M23,45.89c0,.13.07.24.23.24a.35.35,0,0,0,.34-.24c0-.13-.08-.23-.23-.23A.35.35,0,0,0,23,45.89Z"/><path class="cls-14" d="M21.15,46.91c0,.21.11.37.36.37a.55.55,0,0,0,.54-.37c0-.2-.11-.37-.36-.37A.55.55,0,0,0,21.15,46.91Z"/><path class="cls-6" d="M23.64,46.91c0,.08,0,.14.14.14a.2.2,0,0,0,.2-.14c0-.08,0-.14-.14-.14A.21.21,0,0,0,23.64,46.91Z"/><path class="cls-9" d="M37.17,35.51l1.08.61a.29.29,0,0,0,.37,0h0c.07-.09,0-.22-.11-.29l-1-.56a.43.43,0,0,0-.41,0h0C37,35.31,37,35.43,37.17,35.51Z"/><path class="cls-9" d="M37.52,35.24l1,.56a.28.28,0,0,0,.35,0h0a.19.19,0,0,0-.09-.28L37.86,35a.41.41,0,0,0-.39,0h0C37.37,35.06,37.39,35.17,37.52,35.24Z"/><path class="cls-9" d="M37.86,35l.91.51a.26.26,0,0,0,.33,0h0a.18.18,0,0,0-.07-.27l-.83-.46a.39.39,0,0,0-.37,0h0C37.74,34.81,37.75,34.91,37.86,35Z"/><path class="cls-9" d="M38.21,34.72l.83.46a.24.24,0,0,0,.31-.05h0a.17.17,0,0,0-.05-.26l-.74-.41a.37.37,0,0,0-.35,0h0A.12.12,0,0,0,38.21,34.72Z"/><path class="cls-9" d="M38.55,34.46l.74.41a.23.23,0,0,0,.29-.07h0a.16.16,0,0,0,0-.24l-.66-.36a.35.35,0,0,0-.33,0h0C38.46,34.31,38.46,34.4,38.55,34.46Z"/><path class="cls-9" d="M38.89,34.2l.66.36a.22.22,0,0,0,.27-.08h0c.06-.09.06-.19,0-.23l-.57-.32a.34.34,0,0,0-.31.05h0C38.82,34.06,38.81,34.15,38.89,34.2Z"/><path class="cls-9" d="M39.23,33.94l.57.32a.21.21,0,0,0,.25-.09h0c.06-.09.07-.19,0-.22l-.49-.27a.33.33,0,0,0-.29.06h0C39.18,33.81,39.16,33.9,39.23,33.94Z"/><path class="cls-9" d="M39.57,33.68l.49.27c.06,0,.16,0,.23-.1h0c.06-.09.07-.18,0-.21l-.4-.22a.33.33,0,0,0-.27.07h0C39.54,33.56,39.51,33.65,39.57,33.68Z"/><path class="cls-9" d="M39.91,33.43l.4.22c.05,0,.15,0,.21-.11h0c.06-.09.08-.17,0-.2l-.32-.17s-.15,0-.25.08h0C39.89,33.32,39.85,33.4,39.91,33.43Z"/><path class="cls-9" d="M40.24,33.17l.32.17s.13,0,.19-.12h0c.06-.09.09-.17.06-.18l-.23-.13s-.13,0-.23.09h0C40.25,33.08,40.2,33.15,40.24,33.17Z"/><path class="cls-9" d="M37,35.49c-.12.13.11.39.52.58s.83.23,1,.09-.12-.4-.52-.58S37.08,35.36,37,35.49Z"/><polyline class="cls-9" points="40.78 33.08 41.03 32.63 40.45 32.99"/><polyline class="cls-8" points="36.67 35.53 38.86 36 38.31 36.45 36.54 35.99"/></svg>