<svg id="Layer_1" data-name="Layer 1" xmlns="http://www.w3.org/2000/svg" viewBox="0 0 100 100"><defs><style>.cls-1{fill:#f05c38;}.cls-2{fill:#f37d3b;}.cls-3{fill:#ffc640;}.cls-4{fill:#09a582;}.cls-5{fill:#6ab8d9;}.cls-6{fill:#069172;}.cls-7{fill:#ac8c6b;}.cls-8{fill:#bf9b77;}.cls-9{fill:#aa7562;}</style></defs><title>story</title><path class="cls-1" d="M75.24,49.24c0-33-49.43-33-49.43,0H21.61c0-38.55,57.82-38.55,57.82,0Z"/><path class="cls-2" d="M71,49.24c0-27.37-41-27.37-41,0H25.8c0-33,49.43-33,49.43,0Z"/><path class="cls-3" d="M66.85,49.24c0-21.78-32.66-21.78-32.66,0H30c0-27.37,41-27.37,41,0Z"/><path class="cls-4" d="M62.66,49.24c0-16.19-24.28-16.19-24.28,0H34.19c0-21.78,32.66-21.78,32.66,0Z"/><path class="cls-5" d="M58.47,49.24c0-10.6-15.89-10.6-15.89,0H38.38c0-16.19,24.28-16.19,24.28,0Z"/><rect class="cls-4" x="43.95" y="52.95" width="11.68" height="26.72" rx="2.19" ry="2.19"/><polyline class="cls-4" points="50.52 77.25 98.57 77.25 76.42 55.09 50.52 55.09"/><polyline class="cls-4" points="49.25 77.25 1.2 77.25 23.36 55.09 49.25 55.09"/><polyline class="cls-6" points="50.6 74.01 96.27 74.01 75.21 52.95 50.6 52.95"/><polyline class="cls-6" points="49.4 74.01 3.73 74.01 24.79 52.95 49.4 52.95"/><path class="cls-6" d="M44,58.78V73.36a4.47,4.47,0,0,0,4.45,4.45h2.78a4.47,4.47,0,0,0,4.45-4.45V58.78Z"/><path class="cls-7" d="M82.61,55.15,100,76.34s-20.65.91-27.36-5.07-22.64,6-22.64,6V56S58.51,44.46,82.61,55.15Z"/><path class="cls-8" d="M82.61,53.77,100,75s-20.65.91-27.36-5.07-22.64,6-22.64,6V54.67S58.51,43.08,82.61,53.77Z"/><path class="cls-7" d="M17.39,55.15,0,76.34s20.65.91,27.36-5.07,22.64,6,22.64,6V56S41.49,44.46,17.39,55.15Z"/><path class="cls-8" d="M17.39,53.77,0,75s20.65.91,27.36-5.07,22.64,6,22.64,6V54.67S41.49,43.08,17.39,53.77Z"/><path class="cls-7" d="M82.61,52.29,100,73.49s-20.65.91-27.36-5.07-22.64,6-22.64,6V53.2S58.51,41.6,82.61,52.29Z"/><path class="cls-7" d="M17.39,52.29,0,73.49s20.65.91,27.36-5.07,22.64,6,22.64,6V53.2S41.49,41.6,17.39,52.29Z"/><path class="cls-8" d="M82.61,50.44,100,71.63s-20.65.91-27.36-5.07-22.64,6-22.64,6V51.34S58.51,39.75,82.61,50.44Z"/><path class="cls-8" d="M17.39,50.44,0,71.63s20.65.91,27.36-5.07,22.64,6,22.64,6V51.34S41.49,39.75,17.39,50.44Z"/><rect class="cls-7" x="49.8" y="51.46" width="0.72" height="20.71" rx="0.18" ry="0.18"/><path class="cls-7" d="M18,51.92c1.17-.72,2.35-1.34,3.52-2,1.25-.3,2.5-.64,3.73-1s2.46-.72,3.67-1.12c.61-.2,1.2-.41,1.79-.63l.89-.35c.38-.11.76-.24,1.14-.32,3-.41,5.63.41,8.17,1.22,1.26.43,2.49.93,3.7,1.46a30.89,30.89,0,0,1,3.07,2.69c-1.35-.22-2.63-.52-3.94-.69-1.17-.51-2.34-1-3.54-1.39-2.35-.79-4.9-1.46-7.07-1.14l-.73.2c-.28.09-.62.24-.92.36-.63.23-1.25.46-1.88.66-1.25.42-2.51.79-3.77,1.15l-3.79,1A33.48,33.48,0,0,1,18,51.92Z"/><path class="cls-7" d="M16.15,57c1.17-.72,2.35-1.34,3.52-2,1.25-.3,2.5-.64,3.73-1s2.46-.72,3.67-1.12c.61-.2,1.2-.41,1.79-.63l.89-.35c.38-.11.76-.24,1.14-.32,3-.41,5.63.41,8.17,1.22,1.26.43,2.49.93,3.7,1.46A30.89,30.89,0,0,1,45.83,57c-1.35-.22-2.63-.52-3.94-.69-1.17-.51-2.34-1-3.54-1.39-2.35-.79-4.9-1.46-7.07-1.14l-.73.2c-.28.09-.62.24-.92.36-.63.23-1.25.46-1.88.66-1.25.42-2.51.79-3.77,1.15l-3.79,1A33.48,33.48,0,0,1,16.15,57Z"/><path class="cls-7" d="M16.15,66.14c1.17-.72,2.35-1.34,3.52-2,1.25-.3,2.5-.64,3.73-1s2.46-.72,3.67-1.12c.61-.2,1.2-.41,1.79-.63l.89-.35c.38-.11.76-.24,1.14-.32,3-.41,5.63.41,8.17,1.22,1.26.43,2.49.93,3.7,1.46a30.89,30.89,0,0,1,3.07,2.68c-1.35-.22-2.63-.52-3.94-.69-1.17-.51-2.34-1-3.54-1.39-2.35-.79-4.9-1.46-7.07-1.14l-.73.2c-.28.09-.62.24-.92.36-.63.23-1.25.46-1.88.66-1.25.42-2.51.79-3.77,1.15l-3.79,1A33.48,33.48,0,0,1,16.15,66.14Z"/><path class="cls-7" d="M12.64,62.93c.78-.8,1.6-1.49,2.4-2.19.94-.38,1.86-.81,2.79-1.23s1.83-.87,2.72-1.33l1.31-.71.65-.38c.29-.14.59-.3.89-.41A14.42,14.42,0,0,1,30,56.58c1,.18,2.07.41,3.09.67a19.16,19.16,0,0,1,2.67,1.93l-3.22.18c-1-.25-1.94-.47-2.92-.63a12.68,12.68,0,0,0-5.55,0l-.5.23-.68.39-1.39.76c-.93.48-1.87.94-2.81,1.38l-2.83,1.28A23.67,23.67,0,0,1,12.64,62.93Z"/><path class="cls-7" d="M81.85,51.92a33.49,33.49,0,0,1-4.05.16l-3.79-1c-1.26-.35-2.52-.73-3.77-1.15-.63-.21-1.25-.43-1.88-.66-.3-.12-.64-.26-.92-.36l-.73-.2c-2.17-.32-4.72.35-7.07,1.14-1.19.41-2.37.89-3.54,1.39-1.31.18-2.59.48-3.94.69a30.89,30.89,0,0,1,3.07-2.69c1.21-.53,2.44-1,3.71-1.46,2.53-.81,5.15-1.63,8.16-1.22.38.08.76.21,1.14.32l.89.35c.59.22,1.18.43,1.79.63,1.21.4,2.44.77,3.67,1.12s2.48.68,3.73,1C79.51,50.58,80.69,51.19,81.85,51.92Z"/><path class="cls-7" d="M83.73,57a33.49,33.49,0,0,1-4.05.16l-3.79-1c-1.26-.35-2.52-.73-3.77-1.15-.63-.21-1.25-.43-1.88-.66-.3-.12-.64-.26-.92-.36l-.73-.2c-2.17-.32-4.72.35-7.07,1.14-1.19.41-2.37.88-3.54,1.39-1.31.18-2.59.48-3.94.69a30.89,30.89,0,0,1,3.07-2.69c1.21-.53,2.44-1,3.71-1.46C63.35,52,66,51.19,69,51.6c.38.08.76.21,1.14.32l.89.35c.59.22,1.18.43,1.79.63,1.21.4,2.44.77,3.67,1.12s2.48.68,3.73,1C81.38,55.62,82.56,56.24,83.73,57Z"/><path class="cls-9" d="M58.44,58.12s6.93-3.8,12.5-2.08,12.66,4.35,14.87,4l6.11,9.33s-15.49-3.82-20.29-6.8c0,0-5.27-2.25-13.19,2.55Z"/></svg>