<svg id="Layer_1" data-name="Layer 1" xmlns="http://www.w3.org/2000/svg" viewBox="0 0 100 100"><defs><style>.cls-1{fill:#3e3e3f;}.cls-2{fill:#553734;}.cls-3{fill:#5f3f3b;}.cls-4{fill:#6d4945;}</style></defs><title>cart</title><rect class="cls-1" x="87.03" y="24.69" width="2.64" height="21.41" rx="0.65" ry="0.65" transform="translate(50.9 -52.1) rotate(45)"/><rect class="cls-2" x="90.74" y="25.95" width="9.79" height="4.57" rx="1.13" ry="1.13" transform="translate(47.98 -59.35) rotate(45)"/><path class="cls-2" d="M-.24,42.5v11a10.67,10.67,0,0,0,10,10.6V42.5Z"/><path class="cls-3" d="M9.76,42.5V64.07c.23,0,.44.07.67.07H26.32V42.5Z"/><rect class="cls-2" x="26.32" y="42.5" width="13.86" height="21.64"/><rect class="cls-3" x="40.19" y="42.5" width="17.92" height="21.64"/><rect class="cls-3" x="58.11" y="42.5" width="12.17" height="21.64"/><path class="cls-2" d="M70.28,42.5V64.13h3.29A10.7,10.7,0,0,0,84.24,53.46v-11Z"/><path class="cls-4" d="M84.24,43.34h0c0-3.8-4.8-6.91-10.67-6.91H10.43c-5.87,0-10.67,3.11-10.67,6.91H84.24Z"/><path class="cls-4" d="M-.24,43.34v.1c0,3.8,4.8,6.91,10.67,6.91H73.57c5.87,0,10.67-3.11,10.67-6.91v-.1Z"/><rect class="cls-3" x="4.52" y="39.47" width="75.63" height="6.34" rx="1.56" ry="1.56"/><circle class="cls-2" cx="26.32" cy="57.45" r="2.89" transform="translate(-32.91 35.44) rotate(-45)"/><circle class="cls-2" cx="68.66" cy="57.54" r="4.47" transform="translate(-20.57 65.41) rotate(-45)"/><circle class="cls-2" cx="40.42" cy="55.27" r="1.67" transform="translate(-27.24 44.77) rotate(-45)"/><path class="cls-3" d="M72.74,55.84a14.72,14.72,0,0,1-.73,4.5,14.28,14.28,0,0,1,0-9A14.72,14.72,0,0,1,72.74,55.84Z"/><path class="cls-3" d="M40.2,58.17a10.15,10.15,0,0,1-1.45,5,9.27,9.27,0,0,1,0-10A10.15,10.15,0,0,1,40.2,58.17Z"/><path class="cls-3" d="M31.33,57.54a10.15,10.15,0,0,1-1.45,5,9.27,9.27,0,0,1,0-10A10.15,10.15,0,0,1,31.33,57.54Z"/><path class="cls-4" d="M46.14,58.17a35.32,35.32,0,0,1-.39,5.21,35.09,35.09,0,0,1,0-10.41A35.32,35.32,0,0,1,46.14,58.17Z"/><path class="cls-4" d="M48.34,56.33a35.32,35.32,0,0,1-.39,5.21,35.09,35.09,0,0,1,0-10.41A35.32,35.32,0,0,1,48.34,56.33Z"/><path class="cls-3" d="M7.56,56.92a8.68,8.68,0,0,1-2,5.11,8.68,8.68,0,0,1-2-5.11,8.68,8.68,0,0,1,2-5.11A8.68,8.68,0,0,1,7.56,56.92Z"/><path class="cls-3" d="M67.79,58.17a16.9,16.9,0,0,1-.77,5,16.44,16.44,0,0,1,0-10A16.9,16.9,0,0,1,67.79,58.17Z"/><rect class="cls-4" x="17.28" y="54.73" width="1.64" height="19.29"/><rect class="cls-4" x="17.28" y="54.73" width="1.64" height="19.29" transform="translate(82.47 46.28) rotate(90)"/><rect class="cls-4" x="17.28" y="54.73" width="1.64" height="19.29" transform="translate(50.82 6.06) rotate(45)"/><rect class="cls-4" x="17.28" y="54.73" width="1.64" height="19.29" transform="translate(76.41 97.1) rotate(135)"/><path class="cls-4" d="M18.1,75.76A11.19,11.19,0,1,1,29.29,64.57,11.2,11.2,0,0,1,18.1,75.76Zm0-20.25a9.06,9.06,0,1,0,9.06,9.06A9.07,9.07,0,0,0,18.1,55.5Z"/><rect class="cls-4" x="16.35" y="52.78" width="3.46" height="1.66" rx="0.41" ry="0.41"/><rect class="cls-4" x="16.35" y="74.71" width="3.46" height="1.66" rx="0.41" ry="0.41"/><rect class="cls-4" x="27.31" y="63.74" width="3.46" height="1.66" rx="0.41" ry="0.41" transform="translate(93.62 35.53) rotate(90)"/><rect class="cls-4" x="5.38" y="63.74" width="3.46" height="1.66" rx="0.41" ry="0.41" transform="translate(71.69 57.46) rotate(90)"/><rect class="cls-4" x="24.1" y="55.99" width="3.46" height="1.66" rx="0.41" ry="0.41" transform="translate(47.74 -1.62) rotate(45)"/><rect class="cls-4" x="8.59" y="71.5" width="3.46" height="1.66" rx="0.41" ry="0.41" transform="translate(54.17 13.88) rotate(45)"/><rect class="cls-4" x="24.1" y="71.5" width="3.46" height="1.66" rx="0.41" ry="0.41" transform="translate(95.24 105.2) rotate(135)"/><rect class="cls-4" x="8.59" y="55.99" width="3.46" height="1.66" rx="0.41" ry="0.41" transform="translate(57.8 89.7) rotate(135)"/><rect class="cls-4" x="20.63" y="53.65" width="3.46" height="1.66" rx="0.41" ry="0.41" transform="translate(23.04 -4.41) rotate(22.98)"/><rect class="cls-4" x="12.07" y="73.84" width="3.46" height="1.66" rx="0.41" ry="0.41" transform="translate(30.25 0.54) rotate(22.98)"/><rect class="cls-4" x="26.44" y="68.02" width="3.46" height="1.66" rx="0.41" ry="0.41" transform="translate(102.56 69.8) rotate(112.98)"/><rect class="cls-4" x="6.25" y="59.46" width="3.46" height="1.66" rx="0.41" ry="0.41" transform="translate(66.61 76.48) rotate(112.98)"/><rect class="cls-4" x="26.63" y="59.92" width="3.46" height="1.66" rx="0.41" ry="0.41" transform="translate(75.42 13) rotate(69.6)"/><rect class="cls-4" x="6.07" y="67.56" width="3.46" height="1.66" rx="0.41" ry="0.41" transform="translate(69.19 37.25) rotate(69.6)"/><rect class="cls-4" x="20.17" y="74.02" width="3.46" height="1.66" rx="0.41" ry="0.41" transform="translate(68.51 137.38) rotate(159.6)"/><rect class="cls-4" x="12.53" y="53.46" width="3.46" height="1.66" rx="0.41" ry="0.41" transform="translate(46.54 100.22) rotate(159.6)"/><circle class="cls-4" cx="18.1" cy="64.37" r="2.6"/><circle class="cls-1" cx="18.16" cy="64.37" r="1.26"/><rect class="cls-4" x="65.42" y="54.73" width="1.64" height="19.29"/><rect class="cls-4" x="65.42" y="54.73" width="1.64" height="19.29" transform="translate(130.61 -1.86) rotate(90)"/><rect class="cls-4" x="65.42" y="54.73" width="1.64" height="19.29" transform="translate(64.92 -27.98) rotate(45)"/><rect class="cls-4" x="65.42" y="54.73" width="1.64" height="19.29" transform="translate(158.59 63.05) rotate(135)"/><path class="cls-4" d="M66.24,75.76A11.19,11.19,0,1,1,77.43,64.57,11.2,11.2,0,0,1,66.24,75.76Zm0-20.25a9.06,9.06,0,1,0,9.06,9.06A9.07,9.07,0,0,0,66.24,55.5Z"/><rect class="cls-4" x="64.49" y="52.78" width="3.46" height="1.66" rx="0.41" ry="0.41"/><rect class="cls-4" x="64.49" y="74.71" width="3.46" height="1.66" rx="0.41" ry="0.41"/><rect class="cls-4" x="75.46" y="63.74" width="3.46" height="1.66" rx="0.41" ry="0.41" transform="translate(141.76 -12.61) rotate(90)"/><rect class="cls-4" x="53.52" y="63.74" width="3.46" height="1.66" rx="0.41" ry="0.41" transform="translate(119.83 9.32) rotate(90)"/><rect class="cls-4" x="72.24" y="55.99" width="3.46" height="1.66" rx="0.41" ry="0.41" transform="translate(61.84 -35.66) rotate(45)"/><rect class="cls-4" x="56.74" y="71.5" width="3.46" height="1.66" rx="0.41" ry="0.41" transform="translate(68.27 -20.16) rotate(45)"/><rect class="cls-4" x="72.24" y="71.5" width="3.46" height="1.66" rx="0.41" ry="0.41" transform="translate(177.42 71.16) rotate(135)"/><rect class="cls-4" x="56.74" y="55.99" width="3.46" height="1.66" rx="0.41" ry="0.41" transform="translate(139.98 55.66) rotate(135)"/><rect class="cls-4" x="68.77" y="53.65" width="3.46" height="1.66" rx="0.41" ry="0.41" transform="translate(26.87 -23.2) rotate(22.98)"/><rect class="cls-4" x="60.21" y="73.84" width="3.46" height="1.66" rx="0.41" ry="0.41" transform="translate(34.07 -18.26) rotate(22.98)"/><rect class="cls-4" x="74.59" y="68.02" width="3.46" height="1.66" rx="0.41" ry="0.41" transform="translate(169.5 25.48) rotate(112.98)"/><rect class="cls-4" x="54.39" y="59.46" width="3.46" height="1.66" rx="0.41" ry="0.41" transform="translate(133.54 32.16) rotate(112.98)"/><rect class="cls-4" x="74.77" y="59.92" width="3.46" height="1.66" rx="0.41" ry="0.41" transform="translate(106.78 -32.12) rotate(69.6)"/><rect class="cls-4" x="54.21" y="67.56" width="3.46" height="1.66" rx="0.41" ry="0.41" transform="translate(100.55 -7.88) rotate(69.6)"/><rect class="cls-4" x="68.31" y="74.02" width="3.46" height="1.66" rx="0.41" ry="0.41" transform="translate(161.78 120.6) rotate(159.6)"/><rect class="cls-4" x="60.67" y="53.46" width="3.46" height="1.66" rx="0.41" ry="0.41" transform="translate(139.81 83.44) rotate(159.6)"/><circle class="cls-4" cx="66.24" cy="64.37" r="2.6"/><circle class="cls-1" cx="66.3" cy="64.37" r="1.26"/></svg>