<svg id="Layer_1" data-name="Layer 1" xmlns="http://www.w3.org/2000/svg" viewBox="0 0 100 100"><defs><style>.cls-1{fill:#dbdcdd;}.cls-2{fill:#a6a8ab;}</style></defs><title>machine</title><path class="cls-1" d="M36.6,35.08a14.06,14.06,0,0,0,1.19-3.45l2.29-.14-.45-7.36-2.29.14A14.06,14.06,0,0,0,35.74,21l1.53-1.72-5.52-4.89-1.53,1.72a14.06,14.06,0,0,0-3.45-1.19l-.14-2.29-7.36.45.14,2.29A14.07,14.07,0,0,0,16.14,17l-1.72-1.53L9.53,21l1.72,1.53a14.06,14.06,0,0,0-1.19,3.45l-2.29.14.45,7.36,2.29-.14a14.06,14.06,0,0,0,1.6,3.28l-1.53,1.72,5.52,4.89,1.53-1.72a14.06,14.06,0,0,0,3.45,1.19l.14,2.29,7.36-.45-.14-2.29a14.06,14.06,0,0,0,3.28-1.6l1.72,1.53,4.89-5.52ZM30,34.19a8.17,8.17,0,1,1-.7-11.53A8.17,8.17,0,0,1,30,34.19Z"/><path class="cls-2" d="M90.09,57.15l1.43.48L93.06,53l-1.43-.48a9.22,9.22,0,0,0-.17-2.38l1.35-.67-2.16-4.33-1.35.67a9.22,9.22,0,0,0-1.8-1.57L88,42.85l-4.59-1.53-.48,1.43a9.22,9.22,0,0,0-2.38.17l-.67-1.35-4.33,2.16.67,1.35a9.22,9.22,0,0,0-1.57,1.8l-1.43-.48L71.67,51l1.43.48a9.22,9.22,0,0,0,.17,2.38l-1.35.67,2.16,4.33,1.35-.67a9.22,9.22,0,0,0,1.8,1.57l-.48,1.43,4.59,1.53.48-1.43a9.22,9.22,0,0,0,2.38-.17l.67,1.35L89.2,60.3,88.53,59A9.22,9.22,0,0,0,90.09,57.15Zm-9.17-.82a4.55,4.55,0,1,1,5.75-2.87A4.55,4.55,0,0,1,80.92,56.32Z"/><path class="cls-1" d="M35.3,89.59l1.43.48,1.53-4.59L36.83,85a9.22,9.22,0,0,0-.17-2.38L38,81.94l-2.16-4.33-1.35.67a9.22,9.22,0,0,0-1.8-1.57l.48-1.43L28.6,73.76l-.48,1.43a9.22,9.22,0,0,0-2.38.17L25.06,74l-4.33,2.16.67,1.35a9.22,9.22,0,0,0-1.57,1.8l-1.43-.48-1.53,4.59,1.43.48a9.22,9.22,0,0,0,.17,2.38L17.13,87l2.16,4.33,1.35-.67a9.22,9.22,0,0,0,1.8,1.57L22,93.61l4.59,1.53L27,93.71a9.22,9.22,0,0,0,2.38-.17l.67,1.35,4.33-2.16-.67-1.35A9.22,9.22,0,0,0,35.3,89.59Zm-9.17-.82a4.55,4.55,0,1,1,5.75-2.87A4.55,4.55,0,0,1,26.13,88.76Z"/><rect class="cls-2" x="43.11" y="39.05" width="36" height="7.83" transform="translate(19.54 -19.1) rotate(21.08)"/><path class="cls-2" d="M15.32,51.1A23.92,23.92,0,1,1,46.25,37.38,24,24,0,0,1,15.32,51.1ZM31.08,10.21A19.9,19.9,0,1,0,42.49,35.94,19.92,19.92,0,0,0,31.08,10.21Z"/><path class="cls-1" d="M75.76,68.57a17.83,17.83,0,1,1,23-10.23A17.85,17.85,0,0,1,75.76,68.57ZM87.14,39.06A13.8,13.8,0,1,0,95.05,56.9,13.82,13.82,0,0,0,87.14,39.06Z"/><rect class="cls-1" x="47.78" y="50.26" width="7.49" height="42.98" transform="translate(88.88 -8.3) rotate(60.7)"/><rect class="cls-1" x="21.87" y="78.75" width="11.4" height="11.4" transform="translate(32.21 -4.27) rotate(21.08)"/><circle class="cls-2" cx="27.57" cy="84.45" r="2.8"/></svg>